SplineFontDB: 3.0
FontName: SAX2
FullName: SAX2
FamilyName: SAX2
Weight: Book
Copyright: Soliton Associates 1997.
Version: 2.001
ItalicAngle: 0
UnderlinePosition: -200
UnderlineWidth: 50
Ascent: 800
Descent: 200
InvalidEm: 0
sfntRevision: 0x00000000
LayerCount: 2
Layer: 0 1 "Back" 1
Layer: 1 1 "Fore" 0
XUID: [1021 139 -1233718897 27881]
StyleMap: 0x0040
FSType: 0
OS2Version: 1
OS2_WeightWidthSlopeOnly: 0
OS2_UseTypoMetrics: 0
CreationTime: 0
ModificationTime: 1581679837
PfmFamily: 17
TTFWeight: 400
TTFWidth: 5
LineGap: 90
VLineGap: 0
Panose: 2 0 5 9 0 0 0 0 0 0
OS2TypoAscent: 800
OS2TypoAOffset: 0
OS2TypoDescent: -200
OS2TypoDOffset: 0
OS2TypoLinegap: 90
OS2WinAscent: 760
OS2WinAOffset: 0
OS2WinDescent: 232
OS2WinDOffset: 0
HheadAscent: 760
HheadAOffset: 0
HheadDescent: -232
HheadDOffset: 0
OS2SubXSize: 650
OS2SubYSize: 700
OS2SubXOff: 0
OS2SubYOff: 140
OS2SupXSize: 650
OS2SupYSize: 700
OS2SupXOff: 0
OS2SupYOff: 480
OS2StrikeYSize: 49
OS2StrikeYPos: 258
OS2Vendor: 'PfEd'
OS2CodePages: 00000001.00000000
OS2UnicodeRanges: 00000003.00000040.00000000.00000000
Lookup: 1 0 0 "'sups' Superscript lookup 0" { "'sups' Superscript lookup 0 subtable" ("superior") } ['sups' ('DFLT' <'dflt' > ) ]
MarkAttachClasses: 1
DEI: 91125
ShortTable: cvt  2
  33
  633
EndShort
ShortTable: maxp 16
  1
  0
  464
  145
  8
  0
  0
  2
  0
  1
  1
  0
  64
  46
  0
  0
EndShort
LangName: 1033 "" "" "Normal" "FontForge 2.0 : SAX2 : 11-11-2019"
GaspTable: 1 65535 2 0
Encoding: UnicodeBmp
UnicodeInterp: none
NameList: AGL For New Fonts
DisplaySize: -72
AntiAlias: 1
FitToEm: 0
WinInfo: 900 15 6
BeginPrivate: 0
EndPrivate
BeginChars: 65539 557

StartChar: .notdef
Encoding: 65536 -1 0
Width: 600
Flags: W
LayerCount: 2
Fore
SplineSet
33 0 m 1,0,-1
 33 666 l 1,1,-1
 298 666 l 1,2,-1
 298 0 l 1,3,-1
 33 0 l 1,0,-1
66 33 m 1,4,-1
 265 33 l 1,5,-1
 265 633 l 1,6,-1
 66 633 l 1,7,-1
 66 33 l 1,4,-1
EndSplineSet
EndChar

StartChar: exclam
Encoding: 33 33 5
Width: 600
GlyphClass: 2
Flags: W
LayerCount: 2
Fore
SplineSet
366 528 m 1,0,-1
 363 506 l 1,1,-1
 358 493 l 1,2,-1
 350 474 l 2,3,4
 346 462 346 462 341 442 c 0,5,6
 335 414 335 414 332 399 c 2,7,-1
 321 276 l 1,8,-1
 319 246 l 1,9,-1
 281 246 l 1,10,-1
 281 288 l 1,11,-1
 277 327 l 1,12,-1
 274 371 l 1,13,-1
 270 406 l 1,14,15
 270 442 270 442 245 486 c 0,16,17
 236 505 236 505 234 525 c 0,18,19
 234 552 234 552 251 576 c 0,20,21
 270 597 270 597 300 599 c 0,22,23
 325 599 325 599 346 577 c 0,24,25
 364 557 364 557 366 528 c 1,0,-1
375 83 m 1,26,27
 375 47 375 47 354 23 c 0,28,29
 335 2 335 2 300 0 c 0,30,31
 269 0 269 0 245 24 c 0,32,33
 235 37 235 37 230 50 c 0,34,35
 227 60 227 60 225 82 c 0,36,37
 225 115 225 115 244 140 c 0,38,39
 263 164 263 164 300 165 c 0,40,41
 335 165 335 165 356 138 c 2,42,-1
 364 127 l 1,43,-1
 371 110 l 1,44,-1
 375 83 l 1,26,27
EndSplineSet
EndChar

StartChar: quotedbl
Encoding: 34 34 6
Width: 600
GlyphClass: 2
Flags: W
LayerCount: 2
Fore
SplineSet
487 530 m 5,0,-1
 483 508 l 5,1,-1
 478 495 l 5,2,-1
 470 477 l 6,3,4
 465 462 465 462 460 448 c 4,5,6
 459 443 459 443 455.5 427.5 c 132,-1,7
 452 412 452 412 450 403 c 6,8,-1
 439 283 l 5,9,-1
 436 254 l 5,10,-1
 395 254 l 5,11,-1
 395 296 l 5,12,-1
 391 333 l 5,13,-1
 388 376 l 5,14,-1
 384 411 l 6,15,16
 384 443 384 443 357 488 c 4,17,18
 345 509 345 509 345 527 c 4,19,20
 345 554 345 554 364 576 c 4,21,22
 383 597 383 597 416 599 c 4,23,24
 442 599 442 599 465 578 c 4,25,26
 485 559 485 559 487 530 c 5,0,-1
258 530 m 5,27,-1
 255 508 l 5,28,-1
 250 495 l 5,29,-1
 241 477 l 6,30,31
 234 460 234 460 221 403 c 5,32,-1
 210 283 l 5,33,-1
 207 254 l 5,34,-1
 166 254 l 5,35,-1
 166 296 l 5,36,-1
 162 333 l 5,37,-1
 160 376 l 5,38,-1
 155 411 l 5,39,40
 155 443 155 443 128 488 c 4,41,42
 116 512 116 512 116 527 c 4,43,44
 116 552 116 552 135 575 c 4,45,46
 155 599 155 599 187 599 c 4,47,48
 214 599 214 599 236 578 c 4,49,50
 256 559 256 559 258 530 c 5,27,-1
EndSplineSet
EndChar

StartChar: numbersign
Encoding: 35 35 7
Width: 600
GlyphClass: 2
Flags: W
LayerCount: 2
Fore
SplineSet
488 326 m 1,0,1
 488 302 488 302 460 299 c 1,2,-1
 409 309 l 1,3,-1
 390 243 l 1,4,-1
 459 227 l 2,5,6
 476 224 476 224 478 203 c 0,7,8
 478 191 478 191 472 185 c 0,9,10
 468 181 468 181 449 175 c 1,11,-1
 375 192 l 1,12,-1
 325 17 l 2,13,14
 319 0 319 0 301 -2 c 0,15,16
 295 -2 295 -2 290 2 c 2,17,-1
 282 7 l 2,18,19
 278 12 278 12 275 30 c 1,20,-1
 325 202 l 1,21,-1
 231 224 l 1,22,-1
 175 17 l 2,23,24
 169 -1 169 -1 150 -1 c 1,25,-1
 131 7 l 1,26,-1
 125 30 l 1,27,-1
 180 234 l 1,28,-1
 134 245 l 2,29,30
 117 249 117 249 115 269 c 0,31,32
 115 280 115 280 118 286 c 0,33,34
 119 287 119 287 142 297 c 1,35,-1
 195 285 l 1,36,-1
 213 350 l 1,37,-1
 131 368 l 2,38,39
 115 371 115 371 111 394 c 0,40,41
 111 416 111 416 139 420 c 1,42,-1
 227 402 l 1,43,-1
 275 580 l 2,44,45
 281 598 281 598 300 598 c 1,46,-1
 315 590 l 2,47,48
 320 586 320 586 325 566 c 1,49,-1
 277 391 l 1,50,-1
 374 371 l 1,51,-1
 435 584 l 2,52,53
 441 602 441 602 459 602 c 1,54,-1
 467 600 l 2,55,56
 472 598 472 598 476 593 c 0,57,58
 480 590 480 590 484 570 c 1,59,-1
 424 360 l 1,60,-1
 468 351 l 2,61,62
 484 348 484 348 488 326 c 1,0,1
359 319 m 1,63,-1
 264 340 l 1,64,-1
 246 275 l 1,65,-1
 340 254 l 1,66,-1
 359 319 l 1,63,-1
EndSplineSet
EndChar

StartChar: dollar
Encoding: 36 36 8
Width: 600
GlyphClass: 2
Flags: W
LayerCount: 2
Fore
SplineSet
597 587 m 0,0,1
 597 578 597 578 585 565 c 0,2,3
 577 559 577 559 561 504 c 2,4,-1
 543 428 l 2,5,6
 536 404 536 404 513 402 c 0,7,8
 506 402 506 402 488 414 c 0,9,10
 482 420 482 420 481 443 c 1,11,-1
 484 457 l 1,12,-1
 485 471 l 2,13,14
 485 506 485 506 448 530 c 0,15,16
 412 554 412 554 359 554 c 0,17,18
 292 554 292 554 236 511 c 0,19,20
 185 468 185 468 183 409 c 0,21,22
 183 372 183 372 254 354 c 1,23,-1
 407 326 l 1,24,25
 497 298 497 298 497 205 c 0,26,27
 497 131 497 131 436 66 c 0,28,29
 359 -12 359 -12 225 -14 c 0,30,31
 194 -14 194 -14 171 -6 c 0,32,33
 146 0 146 0 122 17 c 0,34,35
 115 23 115 23 97 38 c 0,36,37
 94 41 94 41 85 56 c 1,38,39
 83 48 83 48 81 43 c 0,40,41
 80 38 80 38 75 30 c 2,42,-1
 52 -5 l 1,43,-1
 37 -13 l 1,44,-1
 20 -3 l 1,45,-1
 12 13 l 1,46,-1
 19 29 l 2,47,48
 25 35 25 35 32 52 c 0,49,50
 36 65 36 65 45 98 c 1,51,-1
 59 198 l 2,52,53
 62 210 62 210 73 218 c 1,54,-1
 89 222 l 1,55,56
 116 222 116 222 117 199 c 0,57,58
 117 192 117 192 116 190 c 2,59,-1
 110 157 l 1,60,-1
 107 132 l 1,61,-1
 110 111 l 2,62,63
 116 82 116 82 156 57 c 0,64,65
 188 40 188 40 226 38 c 0,66,67
 316 38 316 38 381 89 c 0,68,69
 443 140 443 140 445 200 c 0,70,71
 445 269 445 269 371 284 c 1,72,-1
 216 305 l 1,73,74
 126 326 126 326 125 411 c 0,75,76
 125 496 125 496 205 558 c 0,77,78
 276 609 276 609 358 611 c 0,79,80
 420 611 420 611 465 588 c 0,81,82
 482 581 482 581 492 571 c 0,83,84
 506 561 506 561 513 551 c 1,85,-1
 514 557 l 2,86,87
 517 568 517 568 526 582 c 0,88,89
 534 592 534 592 550 607 c 1,90,-1
 566 614 l 1,91,92
 580 614 580 614 587 607 c 0,93,94
 596 601 596 601 597 587 c 0,0,1
326 -81 m 2,95,96
 326 -103 326 -103 300 -107 c 0,97,98
 278 -107 278 -107 274 -81 c 1,99,-1
 274 681 l 2,100,101
 274 702 274 702 299 706 c 0,102,103
 315 706 315 706 325 683 c 1,104,-1
 326 -81 l 2,95,96
EndSplineSet
EndChar

StartChar: percent
Encoding: 37 37 9
Width: 600
GlyphClass: 2
Flags: W
LayerCount: 2
Fore
SplineSet
554 602 m 1,0,-1
 126 -20 l 2,1,2
 123 -29 123 -29 106 -32 c 0,3,4
 97 -32 97 -32 89 -25 c 0,5,6
 86 -23 86 -23 80 -5 c 1,7,-1
 83 9 l 1,8,-1
 468 569 l 1,9,-1
 500 569 l 1,10,-1
 501 550 l 1,11,12
 486 547 486 547 433 519 c 0,13,14
 389 496 389 496 339 494 c 1,15,-1
 312 496 l 1,16,-1
 311 469 l 1,17,18
 298 419 298 419 247 374 c 0,19,20
 198 332 198 332 141 332 c 2,21,-1
 120 333 l 1,22,23
 87 342 87 342 68 367 c 1,24,25
 54 393 54 393 52 424 c 2,26,-1
 53 450 l 1,27,-1
 61 476 l 2,28,29
 68 496 68 496 84 515 c 0,30,31
 112 552 112 552 146 569 c 128,-1,32
 180 586 180 586 222 588 c 2,33,-1
 232 588 l 2,34,35
 257 588 257 588 271 578 c 0,36,37
 286 570 286 570 298 553 c 1,38,-1
 344 549 l 2,39,40
 377 549 377 549 410 567 c 2,41,-1
 449 586 l 1,42,-1
 491 602 l 1,43,-1
 554 602 l 1,0,-1
557 150 m 1,44,-1
 553 122 l 1,45,46
 540 68 540 68 491 27 c 0,47,48
 441 -12 441 -12 385 -14 c 1,49,-1
 363 -12 l 1,50,51
 334 -3 334 -3 311 21 c 1,52,53
 296 43 296 43 294 79 c 0,54,55
 294 124 294 124 326 168 c 0,56,57
 352 203 352 203 388 222 c 0,58,59
 423 240 423 240 465 241 c 2,60,-1
 474 241 l 2,61,62
 508 241 508 241 534 215 c 0,63,64
 555 189 555 189 557 150 c 1,44,-1
262 503 m 2,65,66
 262 530 262 530 228 536 c 0,67,68
 207 539 207 539 177 525 c 0,69,70
 147 513 147 513 125 482 c 0,71,72
 104 454 104 454 104 425 c 0,73,74
 104 398 104 398 132 386 c 1,75,-1
 146 384 l 2,76,77
 174 384 174 384 214 414 c 0,78,79
 248 442 248 442 259 480 c 1,80,-1
 262 503 l 2,65,66
504 156 m 2,81,82
 504 185 504 185 470 189 c 0,83,84
 452 192 452 192 421 179 c 0,85,86
 392 168 392 168 368 137 c 0,87,88
 347 107 347 107 345 78 c 0,89,90
 345 48 345 48 373 41 c 2,91,-1
 389 39 l 2,92,93
 419 39 419 39 456 67 c 0,94,95
 492 96 492 96 501 133 c 1,96,-1
 504 156 l 2,81,82
EndSplineSet
EndChar

StartChar: ampersand
Encoding: 38 38 10
Width: 600
GlyphClass: 2
Flags: W
LayerCount: 2
Fore
SplineSet
515 521 m 0,0,1
 515 421 515 421 413 361 c 1,2,3
 297 315 297 315 281 306 c 0,4,5
 212 276 212 276 171 238 c 0,6,7
 133 202 133 202 131 145 c 0,8,9
 131 103 131 103 155 67 c 0,10,11
 177 40 177 40 220 39 c 0,12,13
 277 39 277 39 334 77 c 0,14,15
 384 109 384 109 413 160 c 0,16,17
 427 182 427 182 431 192 c 0,18,19
 436 203 436 203 441 221 c 2,20,-1
 447 240 l 1,21,-1
 465 234 l 1,22,23
 462 222 462 222 440 218 c 0,24,25
 428 218 428 218 412 228 c 0,26,27
 408 230 408 230 401 240 c 0,28,29
 398 250 398 250 395 263 c 0,30,31
 395 274 395 274 400 281 c 0,32,33
 404 288 404 288 410 294 c 0,34,35
 423 309 423 309 444 310 c 0,36,37
 458 310 458 310 465 307 c 0,38,39
 471 306 471 306 480 298 c 0,40,41
 488 292 488 292 492 282 c 0,42,43
 495 276 495 276 497 261 c 0,44,45
 497 238 497 238 495 228 c 0,46,47
 494 216 494 216 486 190 c 0,48,49
 480 168 480 168 456 132 c 0,50,51
 426 79 426 79 359 33 c 0,52,53
 294 -11 294 -11 220 -13 c 0,54,55
 158 -13 158 -13 118 34 c 0,56,57
 79 80 79 80 79 145 c 0,58,59
 79 215 79 215 136 278 c 0,60,61
 147 291 147 291 180 310 c 0,62,63
 203 324 203 324 260 354 c 1,64,-1
 384 407 l 1,65,66
 462 452 462 452 463 522 c 0,67,68
 466 535 466 535 452 546 c 2,69,-1
 438 553 l 1,70,-1
 415 557 l 1,71,72
 391 557 391 557 364 545 c 1,73,-1
 343 532 l 2,74,75
 336 528 336 528 325 511 c 0,76,77
 307 484 307 484 294 452 c 1,78,-1
 288 418 l 1,79,-1
 286 379 l 1,80,-1
 286 359 l 2,81,82
 286 346 286 346 287 336 c 0,83,84
 288 322 288 322 290 315 c 0,85,86
 296 290 296 290 298 284 c 0,87,88
 304 260 304 260 314 240 c 0,89,90
 324 218 324 218 340 193 c 0,91,92
 370 148 370 148 408 116 c 1,93,-1
 497 56 l 2,94,95
 503 53 503 53 507 36 c 1,96,97
 507 9 507 9 480 9 c 1,98,-1
 470 12 l 1,99,-1
 453 22 l 1,100,-1
 425 41 l 1,101,-1
 377 74 l 2,102,103
 335 106 335 106 301 160 c 0,104,105
 286 187 286 187 273 215 c 0,106,107
 262 239 262 239 252 269 c 0,108,109
 247 288 247 288 239 326 c 0,110,111
 236 344 236 344 234 380 c 2,112,-1
 234 404 l 1,113,-1
 236 427 l 2,114,115
 236 440 236 440 245 468 c 2,116,-1
 260 505 l 1,117,-1
 269 524 l 1,118,-1
 283 542 l 2,119,120
 304 572 304 572 342 591 c 0,121,122
 377 608 377 608 419 610 c 0,123,124
 456 610 456 610 485 588 c 0,125,126
 515 564 515 564 515 521 c 0,0,1
EndSplineSet
EndChar

StartChar: quotesingle
Encoding: 39 39 11
Width: 600
GlyphClass: 2
Flags: W
LayerCount: 2
Fore
SplineSet
365 530 m 1,0,-1
 362 508 l 1,1,-1
 357 495 l 1,2,-1
 349 477 l 2,3,4
 343 459 343 459 341 454 c 0,5,6
 340 450 340 450 338.5 443 c 128,-1,7
 337 436 337 436 335 424.5 c 128,-1,8
 333 413 333 413 331 403 c 2,9,-1
 321 283 l 1,10,-1
 318 254 l 1,11,-1
 281 254 l 1,12,-1
 281 296 l 1,13,-1
 277 333 l 1,14,-1
 275 376 l 1,15,-1
 271 411 l 2,16,17
 271 444 271 444 246 488 c 0,18,19
 237 507 237 507 235 527 c 0,20,21
 235 553 235 553 252 576 c 0,22,23
 269 597 269 597 300 599 c 0,24,25
 324 599 324 599 345 578 c 0,26,27
 363 560 363 560 365 530 c 1,0,-1
EndSplineSet
EndChar

StartChar: parenleft
Encoding: 40 40 12
Width: 600
GlyphClass: 2
Flags: W
LayerCount: 2
Fore
SplineSet
425 -46 m 0,0,1
 425 -73 425 -73 398 -73 c 1,2,-1
 388 -70 l 1,3,4
 286 -4 286 -4 229 83 c 0,5,6
 169 181 169 181 168 295 c 0,7,8
 168 406 168 406 225 509 c 0,9,10
 279 600 279 600 381 668 c 1,11,-1
 395 673 l 1,12,-1
 403 668 l 2,13,14
 406 665 406 665 407 663 c 0,15,16
 413 654 413 654 417 646 c 0,17,18
 417 638 417 638 415 634 c 0,19,20
 414 630 414 630 406 624 c 0,21,22
 323 565 323 565 281 484 c 0,23,24
 243 407 243 407 241 295 c 0,25,26
 241 190 241 190 281 113 c 0,27,28
 320 38 320 38 413 -25 c 0,29,30
 422 -30 422 -30 425 -46 c 0,0,1
EndSplineSet
EndChar

StartChar: parenright
Encoding: 41 41 13
Width: 600
GlyphClass: 2
Flags: W
LayerCount: 2
Fore
SplineSet
444 297 m 0,0,1
 444 181 444 181 383 86 c 0,2,3
 333 4 333 4 223 -67 c 1,4,-1
 212 -73 l 1,5,-1
 196 -64 l 1,6,-1
 187 -46 l 1,7,8
 187 -31 187 -31 198 -23 c 0,9,10
 242 6 242 6 275 39 c 0,11,12
 306 70 306 70 328 112 c 0,13,14
 370 186 370 186 371 297 c 0,15,16
 371 408 371 408 332 484 c 0,17,18
 311 527 311 527 282 559 c 0,19,20
 251 593 251 593 206 625 c 0,21,22
 197 628 197 628 194 646 c 0,23,24
 194 673 194 673 221 673 c 1,25,-1
 231 669 l 1,26,27
 327 607 327 607 386 509 c 0,28,29
 443 415 443 415 444 297 c 0,0,1
EndSplineSet
EndChar

StartChar: asterisk
Encoding: 42 42 14
Width: 600
GlyphClass: 2
Flags: W
LayerCount: 2
Fore
SplineSet
535 368 m 0,0,1
 535 359 535 359 519 346 c 1,2,-1
 342 288 l 1,3,-1
 452 137 l 2,4,5
 458 131 458 131 458 124 c 0,6,7
 458 118 458 118 452 109 c 0,8,9
 448 101 448 101 431 96 c 0,10,11
 422 96 422 96 411 106 c 2,12,-1
 299 259 l 1,13,-1
 188 107 l 2,14,15
 182 98 182 98 168 97 c 0,16,17
 144 97 144 97 141 126 c 1,18,-1
 145 136 l 1,19,-1
 256 288 l 1,20,-1
 79 346 l 2,21,22
 68 350 68 350 62 368 c 0,23,24
 62 375 62 375 64 377 c 2,25,-1
 67 383 l 2,26,27
 69 387 69 387 72 389 c 0,28,29
 75 392 75 392 93 395 c 1,30,-1
 274 336 l 1,31,-1
 274 523 l 2,32,33
 274 544 274 544 299 548 c 0,34,35
 315 548 315 548 325 525 c 1,36,-1
 326 337 l 1,37,-1
 502 395 l 2,38,39
 515 401 515 401 525 390 c 0,40,41
 534 382 534 382 535 368 c 0,0,1
EndSplineSet
EndChar

StartChar: plus
Encoding: 43 43 15
Width: 600
GlyphClass: 2
Flags: W
LayerCount: 2
Fore
SplineSet
557 301 m 0,0,1
 557 277 557 277 531 274 c 2,2,-1
 326 274 l 1,3,-1
 326 69 l 2,4,5
 326 47 326 47 300 43 c 0,6,7
 278 43 278 43 274 69 c 1,8,-1
 274 274 l 1,9,-1
 69 274 l 2,10,11
 48 274 48 274 44 300 c 0,12,13
 44 316 44 316 67 326 c 1,14,-1
 274 326 l 1,15,-1
 274 531 l 2,16,17
 274 552 274 552 299 556 c 0,18,19
 315 556 315 556 325 533 c 1,20,-1
 326 326 l 1,21,-1
 531 326 l 2,22,23
 553 326 553 326 557 301 c 0,0,1
EndSplineSet
EndChar

StartChar: comma
Encoding: 44 44 16
Width: 600
GlyphClass: 2
Flags: W
LayerCount: 2
Fore
SplineSet
374 76 m 4,0,1
 374 18 374 18 349 -33 c 4,2,3
 320 -92 320 -92 244 -144 c 5,4,-1
 215 -99 l 5,5,6
 258 -64 258 -64 269 -55 c 4,7,8
 291 -36 291 -36 301 -23 c 4,9,10
 311 -12 311 -12 312 -11 c 4,11,12
 313 -11 313 -11 317 -7 c 6,13,-1
 298 -8 l 6,14,15
 262 -8 262 -8 241 23 c 5,16,-1
 229 48 l 5,17,-1
 226 76 l 6,18,19
 226 110 226 110 247 131 c 4,20,21
 268 149 268 149 301 149 c 4,22,23
 331 149 331 149 352 129 c 4,24,25
 373 110 373 110 374 76 c 4,0,1
EndSplineSet
EndChar

StartChar: hyphen
Encoding: 45 45 17
Width: 600
GlyphClass: 2
Flags: W
LayerCount: 2
Fore
SplineSet
540 302 m 1,0,1
 540 274 540 274 505 273 c 2,2,-1
 93 273 l 2,3,4
 65 273 65 273 59 299 c 1,5,6
 59 318 59 318 90 327 c 1,7,-1
 505 327 l 2,8,9
 534 327 534 327 540 302 c 1,0,1
EndSplineSet
EndChar

StartChar: period
Encoding: 46 46 18
Width: 600
GlyphClass: 2
Flags: W
LayerCount: 2
Fore
SplineSet
375 76 m 1,0,1
 375 41 375 41 355 21 c 0,2,3
 346 12 346 12 332 5 c 0,4,5
 323 2 323 2 300 0 c 0,6,7
 267 0 267 0 245 22 c 0,8,9
 227 42 227 42 225 75 c 0,10,11
 225 105 225 105 244 127 c 0,12,13
 252 137 252 137 267 144 c 0,14,15
 280 150 280 150 300 150 c 0,16,17
 335 150 335 150 356 126 c 2,18,-1
 364 116 l 1,19,-1
 371 101 l 1,20,-1
 375 76 l 1,0,1
EndSplineSet
EndChar

StartChar: slash
Encoding: 47 47 19
Width: 600
GlyphClass: 2
Flags: W
LayerCount: 2
Fore
SplineSet
554 615 m 1,0,-1
 550 603 l 1,1,-1
 93 -32 l 2,2,3
 88 -41 88 -41 74 -43 c 0,4,5
 62 -43 62 -43 54 -35 c 0,6,7
 49 -29 49 -29 46 -14 c 1,8,-1
 50 -3 l 1,9,-1
 507 632 l 2,10,11
 512 642 512 642 527 643 c 0,12,13
 551 643 551 643 554 615 c 1,0,-1
EndSplineSet
EndChar

StartChar: zero
Encoding: 48 48 20
Width: 600
GlyphClass: 2
Flags: W
LayerCount: 2
Fore
SplineSet
488 293 m 0,0,1
 488 172 488 172 442 89 c 0,2,3
 391 -7 391 -7 300 -7 c 0,4,5
 258 -7 258 -7 223 16 c 0,6,7
 189 38 189 38 159 88 c 0,8,9
 115 171 115 171 113 293 c 0,10,11
 113 413 113 413 158 497 c 0,12,13
 209 593 209 593 300 593 c 0,14,15
 389 593 389 593 442 498 c 0,16,17
 486 415 486 415 488 293 c 0,0,1
434 293 m 0,18,19
 434 392 434 392 398 467 c 0,20,21
 362 540 362 540 300 541 c 0,22,23
 242 541 242 541 201 466 c 1,24,25
 168 393 168 393 166 293 c 0,26,27
 166 188 166 188 202 116 c 0,28,29
 237 46 237 46 300 45 c 0,30,31
 359 45 359 45 399 121 c 0,32,33
 432 191 432 191 434 293 c 0,18,19
EndSplineSet
EndChar

StartChar: one
Encoding: 49 49 21
Width: 600
GlyphClass: 2
Flags: W
LayerCount: 2
Fore
SplineSet
527 25 m 0,0,1
 527 1 527 1 501 -2 c 2,2,-1
 108 -2 l 2,3,4
 87 -2 87 -2 83 24 c 0,5,6
 83 41 83 41 106 50 c 1,7,-1
 303 50 l 1,8,-1
 303 509 l 1,9,10
 286 494 286 494 270 482 c 0,11,12
 256 472 256 472 232 454 c 0,13,14
 207 437 207 437 174 420 c 0,15,16
 158 413 158 413 110 394 c 0,17,18
 99 388 99 388 84 400 c 1,19,-1
 76 418 l 1,20,21
 76 431 76 431 93 442 c 1,22,23
 149 456 149 456 210 501 c 128,-1,24
 271 546 271 546 301 592 c 1,25,-1
 355 599 l 1,26,-1
 355 50 l 1,27,-1
 501 50 l 2,28,29
 523 50 523 50 527 25 c 0,0,1
EndSplineSet
Substitution2: "'sups' Superscript lookup 0 subtable" one.superior
EndChar

StartChar: two
Encoding: 50 50 22
Width: 600
GlyphClass: 2
Flags: W
LayerCount: 2
Fore
SplineSet
513 419 m 0,0,1
 513 376 513 376 497 343 c 0,2,3
 491 330 491 330 484 321 c 0,4,5
 471 303 471 303 445 280 c 2,6,-1
 192 50 l 1,7,-1
 474 50 l 2,8,9
 495 50 495 50 499 25 c 0,10,11
 499 1 499 1 474 -2 c 2,12,-1
 56 -2 l 1,13,-1
 412 320 l 2,14,15
 424 330 424 330 434 342 c 0,16,17
 440 350 440 350 450 366 c 0,18,19
 462 385 462 385 463 419 c 0,20,21
 463 466 463 466 421 505 c 0,22,23
 380 541 380 541 324 543 c 0,24,25
 266 543 266 543 228 509 c 0,26,27
 189 476 189 476 177 413 c 1,28,29
 177 391 177 391 154 390 c 0,30,31
 130 390 130 390 127 418 c 1,32,33
 136 495 136 495 192 545 c 0,34,35
 246 593 246 593 324 595 c 0,36,37
 395 595 395 595 454 546 c 0,38,39
 511 499 511 499 513 419 c 0,0,1
EndSplineSet
EndChar

StartChar: three
Encoding: 51 51 23
Width: 600
GlyphClass: 2
Flags: W
LayerCount: 2
Fore
SplineSet
479 150 m 0,0,1
 479 75 479 75 421 23 c 0,2,3
 399 4 399 4 364 -9 c 0,4,5
 337 -18 337 -18 294 -20 c 0,6,7
 238 -20 238 -20 187 7 c 0,8,9
 139 34 139 34 115 91 c 1,10,11
 112 109 112 109 124 119 c 1,12,-1
 140 125 l 2,13,14
 150 125 150 125 164 108 c 1,15,16
 170 73 170 73 208 51 c 0,17,18
 247 30 247 30 292 30 c 0,19,20
 348 30 348 30 386 59 c 0,21,22
 428 92 428 92 428 150 c 0,23,24
 428 214 428 214 387 248 c 0,25,26
 369 263 369 263 335 274 c 0,27,28
 304 283 304 283 258 283 c 1,29,-1
 258 336 l 1,30,31
 321 336 321 336 354 354 c 0,32,33
 417 382 417 382 417 449 c 0,34,35
 417 498 417 498 380 526 c 0,36,37
 364 540 364 540 338 547 c 0,38,39
 316 552 316 552 285 554 c 0,40,41
 228 554 228 554 189 531 c 0,42,43
 171 522 171 522 160 508 c 0,44,45
 151 496 151 496 151 479 c 0,46,47
 151 464 151 464 129 457 c 1,48,49
 105 457 105 457 100 481 c 1,50,51
 100 529 100 529 159 567 c 0,52,53
 214 600 214 600 286 600 c 128,-1,54
 358 600 358 600 411 565 c 0,55,56
 468 525 468 525 469 449 c 0,57,58
 469 383 469 383 416 334 c 0,59,60
 400 323 400 323 394 318 c 0,61,62
 392 317 392 317 386 314.5 c 128,-1,63
 380 312 380 312 375 310 c 1,64,65
 398 303 398 303 419 288 c 0,66,67
 447 268 447 268 463 232 c 0,68,69
 477 200 477 200 479 150 c 0,0,1
EndSplineSet
EndChar

StartChar: four
Encoding: 52 52 24
Width: 600
GlyphClass: 2
Flags: W
LayerCount: 2
Fore
SplineSet
542 169 m 1,0,1
 542 142 542 142 516 142 c 2,2,-1
 423 142 l 1,3,-1
 423 -6 l 2,4,5
 423 -28 423 -28 397 -32 c 0,6,7
 375 -32 375 -32 371 -6 c 1,8,-1
 371 142 l 1,9,-1
 62 142 l 1,10,11
 62 237 62 237 86 336 c 0,12,13
 110 432 110 432 110 482 c 2,14,-1
 107 529 l 1,15,-1
 105 573 l 2,16,17
 105 603 105 603 130 603 c 0,18,19
 150 603 150 603 158 570 c 1,20,-1
 162 523 l 1,21,-1
 163 472 l 2,22,23
 163 410 163 410 134 288 c 0,24,25
 122 239 122 239 120 194 c 1,26,-1
 371 194 l 1,27,-1
 371 485 l 2,28,29
 371 506 371 506 396 510 c 0,30,31
 412 510 412 510 422 487 c 1,32,-1
 423 194 l 1,33,-1
 516 194 l 2,34,35
 538 194 538 194 542 169 c 1,0,1
EndSplineSet
EndChar

StartChar: five
Encoding: 53 53 25
Width: 600
GlyphClass: 2
Flags: W
LayerCount: 2
Fore
SplineSet
508 183 m 0,0,1
 508 107 508 107 444 52 c 0,2,3
 381 -2 381 -2 301 -2 c 0,4,5
 234 -2 234 -2 187 21 c 0,6,7
 139 45 139 45 102 106 c 0,8,9
 99 113 99 113 99 119 c 0,10,11
 99 121 99 121 103 129 c 0,12,13
 108 136 108 136 124 144 c 0,14,15
 130 144 130 144 147 133 c 1,16,17
 168 93 168 93 206 70 c 0,18,19
 243 52 243 52 299 50 c 0,20,21
 357 50 357 50 408 89 c 0,22,23
 432 107 432 107 444 131 c 0,24,25
 455 154 455 154 457 185 c 0,26,27
 457 247 457 247 410 291 c 0,28,29
 366 333 366 333 300 335 c 2,30,-1
 277 335 l 2,31,32
 263 335 263 335 258 333 c 0,33,34
 248 333 248 333 220 324 c 0,35,36
 204 321 204 321 187 305 c 0,37,38
 175 296 175 296 164 285 c 2,39,-1
 120 243 l 1,40,-1
 123 602 l 1,41,-1
 464 602 l 2,42,43
 486 602 486 602 490 577 c 0,44,45
 490 553 490 553 464 550 c 2,46,-1
 174 550 l 1,47,-1
 172 357 l 1,48,49
 196 372 196 372 220 378 c 0,50,51
 253 387 253 387 300 387 c 0,52,53
 384 387 384 387 446 328 c 0,54,55
 506 270 506 270 508 183 c 0,0,1
EndSplineSet
EndChar

StartChar: six
Encoding: 54 54 26
Width: 600
GlyphClass: 2
Flags: W
LayerCount: 2
Fore
SplineSet
523 184 m 0,0,1
 523 97 523 97 453 39 c 0,2,3
 391 -12 391 -12 300 -14 c 0,4,5
 222 -14 222 -14 154 43 c 0,6,7
 88 100 88 100 88 190 c 2,8,-1
 88 423 l 2,9,10
 88 498 88 498 155 553 c 0,11,12
 170 564 170 564 185 571 c 0,13,14
 201 579 201 579 222 586 c 0,15,16
 260 598 260 598 300 598 c 0,17,18
 362 598 362 598 391 584 c 1,19,20
 432 572 432 572 468 537 c 0,21,22
 474 530 474 530 475 517 c 1,23,-1
 469 502 l 1,24,-1
 458 494 l 1,25,-1
 452 493 l 2,26,27
 438 493 438 493 433 498 c 0,28,29
 427 503 427 503 417.5 510 c 128,-1,30
 408 517 408 517 406 518 c 0,31,32
 393 525 393 525 374 533 c 0,33,34
 356 539 356 539 338 543 c 0,35,36
 324 546 324 546 301 546 c 0,37,38
 242 546 242 546 191 511 c 128,-1,39
 140 476 140 476 140 423 c 2,40,-1
 140 318 l 1,41,-1
 132 310 l 2,42,43
 138 314 138 314 139 315 c 2,44,-1
 159 332 l 1,45,-1
 207 359 l 1,46,47
 229 365 229 365 260 372 c 0,48,49
 276 375 276 375 304 377 c 0,50,51
 392 377 392 377 457 324 c 0,52,53
 523 273 523 273 523 184 c 0,0,1
471 184 m 0,54,55
 471 241 471 241 421 285 c 0,56,57
 372 326 372 326 303 328 c 0,58,59
 257 328 257 328 215 307 c 0,60,61
 195 296 195 296 177 281 c 0,62,63
 158 265 158 265 140 243 c 1,64,-1
 140 190 l 2,65,66
 140 130 140 130 186 84 c 0,67,68
 230 40 230 40 300 38 c 0,69,70
 368 38 368 38 419 79 c 0,71,72
 469 121 469 121 471 184 c 0,54,55
EndSplineSet
EndChar

StartChar: seven
Encoding: 55 55 27
Width: 600
GlyphClass: 2
Flags: W
LayerCount: 2
Fore
SplineSet
521 598 m 1,0,-1
 260 14 l 2,1,2
 257 2 257 2 237 -2 c 0,3,4
 228 -2 228 -2 215 11 c 1,5,-1
 213 33 l 1,6,-1
 443 546 l 1,7,-1
 137 546 l 1,8,-1
 131 462 l 2,9,10
 131 440 131 440 106 436 c 0,11,12
 81 436 81 436 80 464 c 2,13,-1
 89 598 l 1,14,-1
 521 598 l 1,0,-1
EndSplineSet
EndChar

StartChar: eight
Encoding: 56 56 28
Width: 600
GlyphClass: 2
Flags: W
LayerCount: 2
Fore
SplineSet
495 147 m 0,0,1
 495 74 495 74 431 22 c 0,2,3
 402 2 402 2 366 -8 c 0,4,5
 335 -17 335 -17 291 -19 c 0,6,7
 209 -19 209 -19 150 22 c 0,8,9
 84 68 84 68 84 147 c 0,10,11
 84 205 84 205 116 247 c 0,12,13
 137 276 137 276 177 298 c 1,14,15
 149 317 149 317 129 341 c 0,16,17
 102 378 102 378 102 423 c 0,18,19
 102 510 102 510 161 559 c 0,20,21
 219 606 219 606 300 608 c 0,22,23
 372 608 372 608 432 560 c 128,-1,24
 492 512 492 512 493 423 c 0,25,26
 493 375 493 375 465 341 c 0,27,28
 445 316 445 316 408 294 c 1,29,30
 435 278 435 278 466 243 c 1,31,32
 493 204 493 204 495 147 c 0,0,1
442 423 m 0,33,34
 442 484 442 484 399 520 c 0,35,36
 357 556 357 556 300 556 c 0,37,38
 241 556 241 556 197 521 c 0,39,40
 155 487 155 487 154 423 c 0,41,42
 154 382 154 382 182 357 c 0,43,44
 214 332 214 332 263 324 c 1,45,-1
 322 323 l 1,46,47
 368 329 368 329 407 353 c 1,48,49
 440 381 440 381 442 423 c 0,33,34
444 147 m 0,50,51
 444 198 444 198 410 228 c 0,52,53
 377 258 377 258 321 268 c 1,54,-1
 265 269 l 1,55,56
 209 263 209 263 172 232 c 0,57,58
 136 202 136 202 135 147 c 0,59,60
 135 102 135 102 183 63 c 0,61,62
 195 56 195 56 230 43 c 1,63,-1
 259 37 l 1,64,-1
 292 35 l 2,65,66
 358 35 358 35 401 64 c 0,67,68
 443 95 443 95 444 147 c 0,50,51
EndSplineSet
EndChar

StartChar: nine
Encoding: 57 57 29
Width: 600
GlyphClass: 2
Flags: W
LayerCount: 2
Fore
SplineSet
514 155 m 2,0,1
 514 80 514 80 447 25 c 0,2,3
 418 4 418 4 380 -8 c 2,4,-1
 344 -17 l 1,5,-1
 302 -20 l 2,6,7
 272 -20 272 -20 250 -17 c 0,8,9
 230 -14 230 -14 210 -5 c 0,10,11
 188 2 188 2 171 12 c 0,12,13
 151 25 151 25 134 41 c 0,14,15
 128 46 128 46 126 59 c 0,16,17
 126 70 126 70 134 78 c 0,18,19
 142 87 142 87 155 87 c 1,20,-1
 167 82 l 1,21,22
 179 70 179 70 200 58 c 0,23,24
 213 50 213 50 228 43 c 2,25,-1
 261 35 l 1,26,-1
 302 32 l 1,27,28
 364 32 364 32 413 66 c 0,29,30
 461 100 461 100 462 155 c 2,31,-1
 462 262 l 1,32,-1
 441 246 l 1,33,-1
 395 220 l 1,34,35
 358 210 358 210 356 209 c 0,36,37
 330 203 330 203 298 201 c 0,38,39
 218 201 218 201 147 252 c 0,40,41
 132 264 132 264 120 279 c 128,-1,42
 108 294 108 294 96 315 c 0,43,44
 81 349 81 349 79 394 c 0,45,46
 79 481 79 481 146 536 c 0,47,48
 211 590 211 590 302 592 c 0,49,50
 387 592 387 592 450 533 c 0,51,52
 513 475 513 475 514 388 c 2,53,-1
 514 155 l 2,0,1
462 335 m 1,54,-1
 462 388 l 2,55,56
 462 449 462 449 415 495 c 0,57,58
 369 540 369 540 302 540 c 0,59,60
 239 540 239 540 182 498 c 0,61,62
 131 456 131 456 131 394 c 0,63,64
 131 334 131 334 179 292 c 0,65,66
 232 250 232 250 299 250 c 0,67,68
 345 250 345 250 387 271 c 0,69,70
 427 294 427 294 462 335 c 1,54,-1
EndSplineSet
EndChar

StartChar: colon
Encoding: 58 58 30
Width: 600
GlyphClass: 2
Flags: W
LayerCount: 2
Fore
SplineSet
375 370 m 1,0,1
 375 334 375 334 354 310 c 0,2,3
 335 289 335 289 300 287 c 0,4,5
 269 287 269 287 245 311 c 0,6,7
 227 332 227 332 225 369 c 0,8,9
 225 403 225 403 244 426 c 0,10,11
 264 450 264 450 300 450 c 128,-1,12
 336 450 336 450 356 424 c 2,13,-1
 364 413 l 1,14,-1
 371 396 l 1,15,-1
 375 370 l 1,0,1
375 82 m 1,16,17
 375 44 375 44 354 22 c 0,18,19
 335 2 335 2 300 0 c 0,20,21
 269 0 269 0 245 24 c 0,22,23
 227 45 227 45 225 81 c 0,24,25
 225 114 225 114 244 139 c 0,26,27
 264 163 264 163 300 163 c 128,-1,28
 336 163 336 163 356 137 c 2,29,-1
 364 125 l 1,30,-1
 371 109 l 1,31,-1
 375 82 l 1,16,17
EndSplineSet
EndChar

StartChar: semicolon
Encoding: 59 59 31
Width: 600
GlyphClass: 2
Flags: W
LayerCount: 2
Fore
SplineSet
375 369 m 1,0,1
 375 331 375 331 355 310 c 0,2,3
 338 289 338 289 301 287 c 0,4,5
 281 287 281 287 270 292 c 0,6,7
 257 297 257 297 246 311 c 0,8,9
 228 332 228 332 226 368 c 0,10,11
 226 401 226 401 245 426 c 0,12,13
 264 450 264 450 301 450 c 0,14,15
 337 450 337 450 356 424 c 2,16,-1
 364 413 l 1,17,-1
 371 396 l 1,18,-1
 375 369 l 1,0,1
374 85 m 0,19,20
 374 24 374 24 349 -29 c 0,21,22
 334 -61 334 -61 308 -88 c 0,23,24
 286 -113 286 -113 244 -144 c 1,25,-1
 215 -97 l 1,26,27
 286 -39 286 -39 302 -18 c 0,28,29
 308 -10 308 -10 312 -5 c 0,30,31
 314 -3 314 -3 317 -2 c 2,32,-1
 298 -3 l 2,33,34
 262 -3 262 -3 241 30 c 1,35,-1
 229 56 l 1,36,-1
 226 85 l 2,37,38
 226 120 226 120 247 141 c 0,39,40
 267 159 267 159 301 161 c 0,41,42
 328 161 328 161 351 141 c 0,43,44
 362 130 362 130 368 116 c 0,45,46
 374 104 374 104 374 85 c 0,19,20
EndSplineSet
EndChar

StartChar: less
Encoding: 60 60 32
Width: 600
GlyphClass: 2
Flags: W
LayerCount: 2
Fore
SplineSet
518 111 m 0,0,1
 518 100 518 100 511 93 c 0,2,3
 505 87 505 87 485 87 c 1,4,-1
 52 300 l 1,5,-1
 483 516 l 2,6,7
 484 516 484 516 494 518 c 0,8,9
 502 518 502 518 508 513 c 0,10,11
 517 507 517 507 518 494 c 0,12,13
 518 489 518 489 506 471 c 1,14,-1
 165 300 l 1,15,-1
 504 133 l 2,16,17
 516 126 516 126 518 111 c 0,0,1
EndSplineSet
EndChar

StartChar: equal
Encoding: 61 61 33
Width: 600
GlyphClass: 2
Flags: W
LayerCount: 2
Fore
SplineSet
542 420 m 0,0,1
 542 396 542 396 516 393 c 2,2,-1
 86 393 l 2,3,4
 65 393 65 393 61 419 c 0,5,6
 61 434 61 434 84 444 c 1,7,-1
 516 444 l 2,8,9
 538 444 538 444 542 420 c 0,0,1
540 181 m 0,10,11
 540 159 540 159 514 155 c 1,12,-1
 84 155 l 2,13,14
 63 155 63 155 59 180 c 0,15,16
 59 196 59 196 82 206 c 1,17,-1
 514 206 l 2,18,19
 536 206 536 206 540 181 c 0,10,11
EndSplineSet
EndChar

StartChar: greater
Encoding: 62 62 34
Width: 600
GlyphClass: 2
Flags: W
LayerCount: 2
Fore
SplineSet
540 300 m 1,0,-1
 108 87 l 2,1,2
 99 84 99 84 83 91 c 1,3,-1
 74 109 l 2,4,5
 74 114 74 114 86 132 c 1,6,-1
 426 300 l 1,7,-1
 88 470 l 2,8,9
 76 477 76 477 74 492 c 0,10,11
 74 501 74 501 81 509 c 0,12,13
 86 516 86 516 107 517 c 1,14,-1
 540 300 l 1,0,-1
EndSplineSet
EndChar

StartChar: question
Encoding: 63 63 35
Width: 600
GlyphClass: 2
Flags: W
LayerCount: 2
Fore
SplineSet
495 474 m 0,0,1
 495 453 495 453 479 427 c 0,2,3
 464 403 464 403 430 375 c 2,4,-1
 318 296 l 1,5,6
 262 250 262 250 260 197 c 1,7,-1
 255 192 l 2,8,9
 248 186 248 186 238 181 c 1,10,11
 214 181 214 181 211 205 c 0,12,13
 211 268 211 268 274 326 c 1,14,-1
 387 406 l 2,15,16
 444 445 444 445 444 474 c 0,17,18
 444 514 444 514 415 534 c 0,19,20
 386 555 386 555 319 555 c 0,21,22
 292 555 292 555 248 537 c 0,23,24
 195 516 195 516 193 483 c 1,25,-1
 174 483 l 1,26,27
 174 503 174 503 185 514 c 0,28,29
 196 526 196 526 211 526 c 0,30,31
 228 526 228 526 243 511 c 0,32,33
 255 499 255 499 257 474 c 0,34,35
 257 452 257 452 242 432 c 0,36,37
 229 414 229 414 198 413 c 0,38,39
 166 413 166 413 153 435 c 2,40,-1
 144 456 l 1,41,-1
 141 484 l 1,42,43
 141 532 141 532 217 578 c 1,44,45
 280 604 280 604 319 606 c 0,46,47
 398 606 398 606 446 574 c 0,48,49
 494 544 494 544 495 474 c 0,0,1
272 83 m 1,50,51
 272 46 272 46 249 23 c 0,52,53
 229 2 229 2 191 0 c 0,54,55
 158 0 158 0 132 24 c 0,56,57
 112 47 112 47 110 82 c 0,58,59
 110 115 110 115 130 139 c 128,-1,60
 150 163 150 163 191 165 c 0,61,62
 230 165 230 165 251 138 c 2,63,-1
 259 127 l 1,64,-1
 267 110 l 1,65,-1
 272 83 l 1,50,51
EndSplineSet
EndChar

StartChar: at
Encoding: 64 64 36
Width: 600
GlyphClass: 2
Flags: W
LayerCount: 2
Fore
SplineSet
541 219 m 1,0,-1
 536 206 l 1,1,-1
 514 179 l 1,2,3
 494 162 494 162 468 160 c 0,4,5
 447 160 447 160 430 171 c 0,6,7
 414 181 414 181 413 209 c 2,8,-1
 413 199 l 1,9,10
 407 197 407 197 403 195 c 0,11,12
 395 190 395 190 387.5 186 c 128,-1,13
 380 182 380 182 376 180 c 2,14,-1
 373 178 l 1,15,16
 342 163 342 163 305 161 c 1,17,-1
 285 163 l 1,18,19
 252 172 252 172 233 197 c 0,20,21
 218 223 218 223 217 253 c 2,22,-1
 218 280 l 1,23,-1
 225 306 l 2,24,25
 231 324 231 324 248 344 c 0,26,27
 260 360 260 360 274 373 c 128,-1,28
 288 386 288 386 311 397 c 0,29,30
 353 418 353 418 386 418 c 2,31,-1
 395 418 l 2,32,33
 419 418 419 418 439 404 c 1,34,35
 448 431 448 431 458 451 c 0,36,37
 470 484 470 484 470 500 c 0,38,39
 470 517 470 517 454 530 c 0,40,41
 449 535 449 535 428 541 c 0,42,43
 410 546 410 546 386 550 c 1,44,45
 313 550 313 550 244 481 c 0,46,47
 176 412 176 412 157 317 c 1,48,-1
 149 259 l 1,49,-1
 145 206 l 2,50,51
 145 167 145 167 150 148 c 0,52,53
 153 121 153 121 165 100 c 0,54,55
 182 62 182 62 231 50 c 2,56,-1
 248 47 l 1,57,-1
 267 46 l 2,58,59
 297 46 297 46 317 56 c 2,60,-1
 355 76 l 1,61,-1
 383 100 l 1,62,-1
 396 104 l 2,63,64
 408 104 408 104 416 97 c 0,65,66
 418 95 418 95 424 78 c 0,67,68
 424 69 424 69 414 59 c 0,69,70
 379 30 379 30 341 10 c 0,71,72
 305 -5 305 -5 263 -7 c 1,73,-1
 244 -6 l 2,74,75
 229 -6 229 -6 219 -1 c 0,76,77
 151 14 151 14 118 78 c 0,78,79
 109 100 109 100 100 135 c 2,80,-1
 95 168 l 1,81,-1
 93 206 l 1,82,-1
 96 264 l 1,83,-1
 99 298 l 1,84,-1
 105 326 l 2,85,86
 116 382 116 382 141 431 c 0,87,88
 165 477 165 477 207 520 c 0,89,90
 288 600 288 600 388 602 c 0,91,92
 451 602 451 602 487 572 c 128,-1,93
 523 542 523 542 523 493 c 0,94,95
 523 463 523 463 504 428 c 1,96,-1
 488 387 l 1,97,-1
 478 333 l 1,98,-1
 474 297 l 1,99,-1
 472 290 l 1,100,-1
 467 249 l 1,101,-1
 466 214 l 1,102,-1
 470 213 l 1,103,-1
 482 221 l 1,104,-1
 496 239 l 2,105,106
 502 248 502 248 514 248 c 0,107,108
 521 248 521 248 524 246 c 0,109,110
 526 245 526 245 532 239 c 0,111,112
 537 236 537 236 541 219 c 1,0,-1
426 337 m 2,113,114
 426 345 426 345 419 352 c 0,115,116
 416 357 416 357 389 366 c 0,117,118
 370 369 370 369 340 355 c 0,119,120
 311 342 311 342 290 312 c 0,121,122
 269 285 269 285 269 254 c 0,123,124
 269 228 269 228 296 216 c 1,125,-1
 311 214 l 2,126,127
 337 214 337 214 373 241 c 0,128,129
 406 267 406 267 420 301 c 1,130,-1
 423 318 l 1,131,-1
 426 337 l 2,113,114
EndSplineSet
EndChar

StartChar: A
Encoding: 65 65 37
Width: 600
GlyphClass: 2
Flags: W
LayerCount: 2
Fore
SplineSet
580 25 m 0,0,1
 580 1 580 1 554 -2 c 2,2,-1
 372 -2 l 2,3,4
 351 -2 351 -2 347 24 c 0,5,6
 347 40 347 40 370 50 c 1,7,-1
 430 50 l 1,8,-1
 425 155 l 1,9,-1
 181 155 l 1,10,-1
 117 50 l 1,11,-1
 174 50 l 2,12,13
 196 50 196 50 200 25 c 0,14,15
 200 1 200 1 174 -2 c 2,16,-1
 32 -2 l 2,17,18
 11 -2 11 -2 7 24 c 0,19,20
 7 40 7 40 30 50 c 1,21,-1
 54 50 l 1,22,-1
 377 600 l 1,23,-1
 457 600 l 1,24,-1
 483 50 l 1,25,-1
 554 50 l 2,26,27
 576 50 576 50 580 25 c 0,0,1
423 207 m 1,28,-1
 407 548 l 1,29,-1
 209 207 l 1,30,-1
 423 207 l 1,28,-1
EndSplineSet
EndChar

StartChar: B
Encoding: 66 66 38
Width: 600
GlyphClass: 2
Flags: W
LayerCount: 2
Fore
SplineSet
570 480 m 0,0,1
 570 463 570 463 568 453 c 0,2,3
 566 435 566 435 563 426 c 0,4,5
 553 398 553 398 530 371 c 0,6,7
 506 339 506 339 472 320 c 1,8,9
 526 288 526 288 528 221 c 0,10,11
 528 137 528 137 452 67 c 0,12,13
 377 -2 377 -2 282 -2 c 2,14,-1
 43 -2 l 2,15,16
 22 -2 22 -2 18 24 c 0,17,18
 18 40 18 40 41 50 c 1,19,-1
 87 50 l 1,20,-1
 222 550 l 1,21,-1
 124 550 l 2,22,23
 103 550 103 550 99 576 c 0,24,25
 99 592 99 592 122 602 c 1,26,-1
 427 602 l 2,27,28
 485 602 485 602 527 567 c 0,29,30
 568 534 568 534 570 480 c 0,0,1
518 480 m 0,31,32
 518 503 518 503 491 527 c 0,33,34
 467 548 467 548 427 550 c 2,35,-1
 276 550 l 1,36,-1
 222 349 l 1,37,-1
 375 349 l 2,38,39
 410 349 410 349 439 361 c 0,40,41
 453 367 453 367 465 378 c 0,42,43
 478 387 478 387 490 404 c 0,44,45
 495 410 495 410 503 426 c 0,46,47
 509 441 509 441 515 453 c 0,48,49
 518 465 518 465 518 480 c 0,31,32
477 208 m 1,50,-1
 476 219 l 2,51,52
 476 249 476 249 445 273 c 0,53,54
 415 297 415 297 372 297 c 2,55,-1
 207 297 l 1,56,-1
 141 50 l 1,57,-1
 282 50 l 2,58,59
 352 50 352 50 414 100 c 0,60,61
 477 151 477 151 477 208 c 1,50,-1
EndSplineSet
EndChar

StartChar: C
Encoding: 67 67 39
Width: 600
GlyphClass: 2
Flags: W
LayerCount: 2
Fore
SplineSet
569 572 m 1,0,-1
 565 561 l 1,1,2
 540 526 540 526 532 495 c 1,3,-1
 519 387 l 1,4,-1
 468 400 l 1,5,-1
 472 451 l 2,6,7
 472 490 472 490 459 519 c 0,8,9
 445 545 445 545 416 558 c 0,10,11
 415 558 415 558 392 563 c 0,12,13
 388 564 388 564 373 567 c 0,14,15
 312 567 312 567 253 511 c 0,16,17
 202 466 202 466 154 395 c 0,18,19
 132 365 132 365 107 293 c 0,20,21
 87 229 87 229 85 173 c 0,22,23
 85 127 85 127 102 92 c 0,24,25
 115 63 115 63 156 45 c 0,26,27
 159 44 159 44 164.5 42 c 128,-1,28
 170 40 170 40 173 39 c 0,29,30
 184 39 184 39 192 38 c 0,31,32
 250 38 250 38 322 88 c 0,33,34
 394 137 394 137 401 176 c 0,35,36
 407 194 407 194 426 195 c 0,37,38
 436 195 436 195 442 190 c 0,39,40
 447 186 447 186 453 166 c 1,41,42
 444 137 444 137 420 105 c 0,43,44
 395 73 395 73 355 45 c 0,45,46
 277 -12 277 -12 192 -12 c 2,47,-1
 165 -11 l 2,48,49
 152 -11 152 -11 137 -3 c 0,50,51
 82 18 82 18 56 68 c 0,52,53
 47 85 47 85 39 117 c 0,54,55
 33 144 33 144 33 176 c 2,56,-1
 34 206 l 2,57,58
 34 226 34 226 39 247 c 0,59,60
 42 273 42 273 47 281 c 2,61,-1
 59 318 l 1,62,-1
 70 350 l 1,63,-1
 81 377 l 1,64,-1
 110 426 l 1,65,66
 183 528 183 528 253 576 c 0,67,68
 314 618 314 618 373 618 c 0,69,70
 406 618 406 618 433 606 c 0,71,72
 444 602 444 602 454 595 c 0,73,74
 468 588 468 588 478 578 c 0,75,76
 482 574 482 574 488 566 c 0,77,78
 489 564 489 564 490.5 562 c 128,-1,79
 492 560 492 560 494.5 556.5 c 128,-1,80
 497 553 497 553 498 551 c 2,81,-1
 503 562 l 1,82,-1
 522 590 l 2,83,84
 525 600 525 600 542 601 c 0,85,86
 566 601 566 601 569 572 c 1,0,-1
EndSplineSet
EndChar

StartChar: D
Encoding: 68 68 40
Width: 600
GlyphClass: 2
Flags: W
LayerCount: 2
Fore
SplineSet
572 409 m 2,0,-1
 572 368 l 2,1,2
 571 363 571 363 569.5 353 c 128,-1,3
 568 343 568 343 567 338 c 0,4,5
 566 324 566 324 552 288 c 0,6,7
 507 148 507 148 421 77 c 0,8,9
 329 -1 329 -1 179 -2 c 2,10,-1
 31 -2 l 2,11,12
 10 -2 10 -2 6 24 c 0,13,14
 6 40 6 40 29 50 c 1,15,-1
 72 50 l 1,16,-1
 219 547 l 1,17,-1
 140 547 l 2,18,19
 119 547 119 547 115 573 c 0,20,21
 115 589 115 589 138 599 c 1,22,-1
 416 599 l 2,23,24
 491 599 491 599 538 540 c 1,25,26
 571 490 571 490 572 409 c 2,0,-1
520 409 m 0,27,28
 520 472 520 472 497 506 c 0,29,30
 469 545 469 545 416 547 c 2,31,-1
 275 547 l 1,32,-1
 127 50 l 1,33,-1
 179 50 l 2,34,35
 308 50 308 50 388 117 c 0,36,37
 449 167 449 167 503 306 c 0,38,39
 518 354 518 354 520 409 c 0,27,28
EndSplineSet
EndChar

StartChar: E
Encoding: 69 69 41
Width: 600
GlyphClass: 2
Flags: W
LayerCount: 2
Fore
SplineSet
600 602 m 1,0,-1
 549 425 l 2,1,2
 545 408 545 408 525 406 c 1,3,-1
 513 409 l 1,4,-1
 506 414 l 2,5,6
 502 419 502 419 499 437 c 1,7,-1
 531 550 l 1,8,-1
 278 550 l 1,9,-1
 214 345 l 1,10,-1
 336 345 l 1,11,-1
 359 418 l 2,12,13
 364 432 364 432 382 436 c 0,14,15
 389 436 389 436 392 434 c 0,16,17
 397 432 397 432 401 426 c 0,18,19
 404 423 404 423 409 405 c 1,20,-1
 345 204 l 2,21,22
 341 193 341 193 323 187 c 0,23,24
 316 188 316 188 312 190 c 0,25,26
 311 190 311 190 308 192 c 0,27,28
 306 192 306 192 302 196 c 0,29,30
 299 199 299 199 296 218 c 1,31,-1
 319 292 l 1,32,-1
 198 292 l 1,33,-1
 125 53 l 1,34,-1
 387 53 l 1,35,-1
 444 206 l 2,36,37
 448 216 448 216 466 222 c 0,38,39
 473 222 473 222 477 220 c 128,-1,40
 481 218 481 218 486 212 c 0,41,42
 488 210 488 210 489 202 c 256,43,44
 490 194 490 194 492 190 c 2,45,-1
 423 1 l 1,46,-1
 27 1 l 2,47,48
 6 1 6 1 2 27 c 0,49,50
 2 43 2 43 25 53 c 1,51,-1
 70 53 l 1,52,-1
 223 550 l 1,53,-1
 119 550 l 2,54,55
 98 550 98 550 94 576 c 0,56,57
 94 592 94 592 117 602 c 1,58,-1
 600 602 l 1,0,-1
EndSplineSet
EndChar

StartChar: F
Encoding: 70 70 42
Width: 600
GlyphClass: 2
Flags: W
LayerCount: 2
Fore
SplineSet
600 602 m 1,0,-1
 549 425 l 2,1,2
 545 408 545 408 525 406 c 0,3,4
 518 406 518 406 513 409 c 2,5,-1
 506 414 l 2,6,7
 502 419 502 419 499 437 c 1,8,-1
 531 550 l 1,9,-1
 278 550 l 1,10,-1
 214 345 l 1,11,-1
 336 345 l 1,12,-1
 359 418 l 2,13,14
 364 432 364 432 382 436 c 0,15,16
 389 436 389 436 391 434 c 0,17,18
 397 432 397 432 401 426 c 0,19,20
 404 423 404 423 409 405 c 1,21,-1
 345 204 l 2,22,23
 342 193 342 193 323 187 c 0,24,25
 316 188 316 188 312 190 c 0,26,27
 311 190 311 190 308 192 c 0,28,29
 306 192 306 192 302 196 c 0,30,31
 299 199 299 199 296 218 c 1,32,-1
 319 292 l 1,33,-1
 198 292 l 1,34,-1
 124 50 l 1,35,-1
 284 50 l 2,36,37
 306 50 306 50 310 25 c 0,38,39
 310 1 310 1 284 -2 c 2,40,-1
 28 -2 l 2,41,42
 7 -2 7 -2 3 24 c 0,43,44
 3 40 3 40 26 50 c 1,45,-1
 69 50 l 1,46,-1
 223 550 l 1,47,-1
 119 550 l 2,48,49
 98 550 98 550 94 576 c 0,50,51
 94 592 94 592 117 602 c 1,52,-1
 600 602 l 1,0,-1
EndSplineSet
EndChar

StartChar: G
Encoding: 71 71 43
Width: 600
GlyphClass: 2
Flags: W
LayerCount: 2
Fore
SplineSet
579 580 m 0,0,1
 579 568 579 568 571 560 c 0,2,3
 550 540 550 540 537 472 c 2,4,-1
 526 396 l 1,5,-1
 473 408 l 1,6,-1
 477 437 l 1,7,8
 477 483 477 483 451 515 c 0,9,10
 420 555 420 555 371 556 c 0,11,12
 279 556 279 556 190 461 c 0,13,14
 91 351 91 351 89 184 c 0,15,16
 89 141 89 141 102 106 c 0,17,18
 114 72 114 72 149 54 c 0,19,20
 177 37 177 37 216 35 c 0,21,22
 277 35 277 35 339 88 c 0,23,24
 386 126 386 126 415 190 c 1,25,-1
 422 213 l 1,26,-1
 349 212 l 2,27,28
 328 212 328 212 324 237 c 0,29,30
 324 254 324 254 348 263 c 1,31,-1
 464 263 l 1,32,-1
 546 262 l 2,33,34
 568 262 568 262 572 237 c 0,35,36
 572 213 572 213 546 210 c 2,37,-1
 476 210 l 1,38,-1
 418 6 l 2,39,40
 412 -12 412 -12 393 -12 c 0,41,42
 380 -9 380 -9 374 -4 c 0,43,44
 368 0 368 0 368 20 c 1,45,-1
 375 49 l 2,46,47
 374 48 374 48 370 45 c 128,-1,48
 366 42 366 42 362.5 39 c 128,-1,49
 359 36 359 36 355 33 c 0,50,51
 348 28 348 28 319 11 c 0,52,53
 266 -16 266 -16 217 -16 c 0,54,55
 172 -16 172 -16 125 8 c 1,56,57
 84 34 84 34 56 82 c 1,58,59
 38 125 38 125 36 185 c 0,60,61
 36 371 36 371 144 494 c 0,62,63
 242 603 242 603 368 604 c 0,64,65
 423 604 423 604 469 570 c 0,66,67
 486 556 486 556 497 540 c 1,68,-1
 511 567 l 2,69,70
 519 582 519 582 524 589 c 0,71,72
 528 594 528 594 534 597 c 2,73,-1
 551 604 l 1,74,75
 574 604 574 604 579 580 c 0,0,1
EndSplineSet
EndChar

StartChar: H
Encoding: 72 72 44
Width: 600
GlyphClass: 2
Flags: W
LayerCount: 2
Fore
SplineSet
602 576 m 0,0,1
 602 552 602 552 576 549 c 2,2,-1
 557 549 l 1,3,-1
 417 50 l 1,4,-1
 477 50 l 2,5,6
 499 50 499 50 503 25 c 0,7,8
 503 1 503 1 477 -2 c 2,9,-1
 311 -2 l 2,10,11
 289 -2 289 -2 285 24 c 0,12,13
 285 41 285 41 309 50 c 1,14,-1
 362 50 l 1,15,-1
 425 274 l 1,16,-1
 192 274 l 1,17,-1
 130 50 l 1,18,-1
 191 50 l 2,19,20
 213 50 213 50 217 25 c 0,21,22
 217 1 217 1 191 -2 c 2,23,-1
 24 -2 l 2,24,25
 3 -2 3 -2 -1 24 c 0,26,27
 -1 40 -1 40 22 50 c 1,28,-1
 74 50 l 1,29,-1
 215 549 l 1,30,-1
 133 549 l 2,31,32
 111 549 111 549 107 575 c 0,33,34
 107 592 107 592 131 601 c 1,35,-1
 336 601 l 2,36,37
 358 601 358 601 362 576 c 0,38,39
 362 552 362 552 336 549 c 2,40,-1
 270 549 l 1,41,-1
 207 326 l 1,42,-1
 440 326 l 1,43,-1
 502 549 l 1,44,-1
 437 549 l 2,45,46
 416 549 416 549 412 575 c 0,47,48
 412 592 412 592 436 601 c 1,49,-1
 576 601 l 2,50,51
 598 601 598 601 602 576 c 0,0,1
EndSplineSet
EndChar

StartChar: I
Encoding: 73 73 45
Width: 600
GlyphClass: 2
Flags: W
LayerCount: 2
Fore
SplineSet
593 577 m 0,0,1
 593 553 593 553 567 550 c 2,2,-1
 403 550 l 1,3,-1
 249 48 l 1,4,-1
 411 48 l 2,5,6
 433 48 433 48 437 23 c 0,7,8
 437 -1 437 -1 411 -4 c 2,9,-1
 34 -4 l 2,10,11
 13 -4 13 -4 9 22 c 0,12,13
 9 38 9 38 32 48 c 1,14,-1
 194 48 l 1,15,-1
 348 550 l 1,16,-1
 178 550 l 2,17,18
 157 550 157 550 153 576 c 0,19,20
 153 592 153 592 176 602 c 1,21,-1
 567 602 l 2,22,23
 589 602 589 602 593 577 c 0,0,1
EndSplineSet
EndChar

StartChar: J
Encoding: 74 74 46
Width: 600
GlyphClass: 2
Flags: W
LayerCount: 2
Fore
SplineSet
587 573 m 0,0,1
 587 549 587 549 561 546 c 2,2,-1
 472 546 l 1,3,-1
 354 139 l 2,4,5
 339 86 339 86 278 35 c 0,6,7
 258 21 258 21 246 13 c 0,8,9
 231 4 231 4 214 -3 c 2,10,-1
 188 -12 l 1,11,-1
 169 -16 l 1,12,-1
 148 -17 l 1,13,-1
 116 -14 l 2,14,15
 98 -11 98 -11 84 -2 c 0,16,17
 52 15 52 15 31 50 c 1,18,-1
 19 81 l 1,19,-1
 15 113 l 2,20,21
 15 145 15 145 29 179 c 0,22,23
 35 198 35 198 56 225 c 0,24,25
 84 261 84 261 132 263 c 0,26,27
 152 263 152 263 169 248 c 0,28,29
 184 234 184 234 186 205 c 0,30,31
 186 177 186 177 173 163 c 0,32,33
 162 151 162 151 137 149 c 0,34,35
 115 149 115 149 98 162 c 0,36,37
 89 168 89 168 86 179 c 1,38,-1
 76 164 l 2,39,40
 67 149 67 149 65 119 c 0,41,42
 65 98 65 98 75 78 c 0,43,44
 84 60 84 60 110 43 c 0,45,46
 124 34 124 34 145 34 c 0,47,48
 165 34 165 34 187 45 c 0,49,50
 208 54 208 54 237 75 c 0,51,52
 264 94 264 94 280 115 c 0,53,54
 295 134 295 134 304 154 c 2,55,-1
 417 546 l 1,56,-1
 300 546 l 2,57,58
 279 546 279 546 275 572 c 0,59,60
 275 588 275 588 298 598 c 1,61,-1
 561 598 l 2,62,63
 583 598 583 598 587 573 c 0,0,1
EndSplineSet
EndChar

StartChar: K
Encoding: 75 75 47
Width: 600
GlyphClass: 2
Flags: W
LayerCount: 2
Fore
SplineSet
599 577 m 0,0,1
 599 553 599 553 573 550 c 2,2,-1
 548 550 l 1,3,-1
 501 494 l 1,4,-1
 452 436 l 1,5,-1
 408 390 l 1,6,-1
 332 314 l 1,7,-1
 456 50 l 1,8,-1
 519 50 l 2,9,10
 541 50 541 50 545 25 c 0,11,12
 545 1 545 1 519 -2 c 2,13,-1
 320 -2 l 2,14,15
 299 -2 299 -2 295 24 c 0,16,17
 295 40 295 40 318 50 c 1,18,-1
 399 50 l 1,19,-1
 291 279 l 1,20,-1
 231 233 l 1,21,-1
 185 203 l 1,22,-1
 138 50 l 1,23,-1
 197 50 l 2,24,25
 219 50 219 50 223 25 c 0,26,27
 223 1 223 1 197 -2 c 2,28,-1
 33 -2 l 2,29,30
 12 -2 12 -2 8 24 c 0,31,32
 8 40 8 40 31 50 c 1,33,-1
 82 50 l 1,34,-1
 239 550 l 1,35,-1
 147 550 l 2,36,37
 126 550 126 550 122 576 c 0,38,39
 122 592 122 592 145 602 c 1,40,-1
 325 602 l 2,41,42
 347 602 347 602 351 577 c 0,43,44
 351 553 351 553 325 550 c 2,45,-1
 294 550 l 1,46,-1
 208 279 l 1,47,48
 252 311 252 311 277 334 c 2,49,-1
 332 387 l 1,50,-1
 372 427 l 1,51,-1
 408 465 l 1,52,-1
 435 495 l 1,53,-1
 482 550 l 1,54,-1
 449 550 l 2,55,56
 428 550 428 550 424 576 c 0,57,58
 424 592 424 592 447 602 c 1,59,-1
 573 602 l 2,60,61
 595 602 595 602 599 577 c 0,0,1
EndSplineSet
EndChar

StartChar: L
Encoding: 76 76 48
Width: 600
GlyphClass: 2
Flags: W
LayerCount: 2
Fore
SplineSet
526 190 m 2,0,-1
 457 1 l 1,1,-1
 60 1 l 2,2,3
 39 1 39 1 35 27 c 0,4,5
 35 43 35 43 58 53 c 1,6,-1
 104 53 l 1,7,-1
 257 550 l 1,8,-1
 153 550 l 2,9,10
 132 550 132 550 128 576 c 0,11,12
 128 592 128 592 151 602 c 1,13,-1
 495 602 l 2,14,15
 517 602 517 602 521 577 c 0,16,17
 521 553 521 553 495 550 c 2,18,-1
 312 550 l 1,19,-1
 159 53 l 1,20,-1
 422 53 l 1,21,-1
 478 206 l 2,22,23
 482 218 482 218 500 222 c 0,24,25
 507 222 507 222 510 220 c 0,26,27
 514 220 514 220 519 212 c 0,28,29
 521 210 521 210 522 204 c 0,30,31
 522 203 522 203 522.5 201 c 128,-1,32
 523 199 523 199 524 196 c 128,-1,33
 525 193 525 193 526 190 c 2,0,-1
EndSplineSet
EndChar

StartChar: M
Encoding: 77 77 49
Width: 600
GlyphClass: 2
Flags: W
LayerCount: 2
Fore
SplineSet
619 577 m 0,0,1
 619 553 619 553 593 550 c 1,2,-1
 476 50 l 1,3,-1
 513 50 l 2,4,5
 537 50 537 50 540 25 c 0,6,7
 540 1 540 1 513 -2 c 2,8,-1
 342 -2 l 2,9,10
 321 -2 321 -2 317 24 c 0,11,12
 317 41 317 41 340 50 c 1,13,-1
 420 50 l 1,14,-1
 537 550 l 1,15,-1
 548 550 l 1,16,-1
 260 66 l 1,17,-1
 193 508 l 1,18,-1
 84 50 l 1,19,-1
 133 50 l 2,20,21
 155 50 155 50 159 25 c 0,22,23
 159 1 159 1 133 -2 c 2,24,-1
 22 -2 l 2,25,26
 1 -2 1 -2 -3 24 c 0,27,28
 -3 40 -3 40 20 50 c 1,29,-1
 29 50 l 1,30,-1
 147 550 l 1,31,-1
 111 550 l 2,32,33
 90 550 90 550 86 576 c 0,34,35
 86 592 86 592 109 602 c 1,36,-1
 232 602 l 1,37,-1
 290 222 l 1,38,-1
 517 602 l 1,39,-1
 593 602 l 2,40,41
 615 602 615 602 619 577 c 0,0,1
EndSplineSet
EndChar

StartChar: N
Encoding: 78 78 50
Width: 600
GlyphClass: 2
Flags: W
LayerCount: 2
Fore
SplineSet
603 577 m 0,0,1
 603 553 603 553 577 550 c 2,2,-1
 558 550 l 1,3,-1
 413 -3 l 1,4,-1
 344 -3 l 1,5,-1
 241 550 l 1,6,-1
 104 48 l 1,7,-1
 182 48 l 2,8,9
 204 48 204 48 208 23 c 0,10,11
 208 -1 208 -1 182 -4 c 2,12,-1
 25 -4 l 2,13,14
 4 -4 4 -4 0 22 c 0,15,16
 0 38 0 38 23 48 c 1,17,-1
 49 48 l 1,18,-1
 184 550 l 1,19,-1
 114 550 l 2,20,21
 93 550 93 550 89 576 c 0,22,23
 89 592 89 592 112 602 c 1,24,-1
 284 602 l 1,25,-1
 381 85 l 1,26,-1
 504 550 l 1,27,-1
 441 550 l 2,28,29
 420 550 420 550 416 576 c 0,30,31
 416 592 416 592 439 602 c 1,32,-1
 577 602 l 2,33,34
 599 602 599 602 603 577 c 0,0,1
EndSplineSet
EndChar

StartChar: O
Encoding: 79 79 51
Width: 600
GlyphClass: 2
Flags: W
LayerCount: 2
Fore
SplineSet
581 418 m 0,0,1
 581 272 581 272 476 131 c 0,2,3
 362 -19 362 -19 213 -20 c 0,4,5
 127 -20 127 -20 79 37 c 0,6,7
 40 85 40 85 38 174 c 0,8,9
 38 322 38 322 140 460 c 0,10,11
 250 607 250 607 404 609 c 0,12,13
 494 609 494 609 540 553 c 0,14,15
 579 506 579 506 581 418 c 0,0,1
525 419 m 0,16,17
 525 483 525 483 494 521 c 0,18,19
 464 560 464 560 402 560 c 0,20,21
 285 560 285 560 183 427 c 1,22,23
 96 305 96 305 94 173 c 0,24,25
 94 109 94 109 123 68 c 0,26,27
 152 28 152 28 215 27 c 0,28,29
 327 27 327 27 432 163 c 0,30,31
 525 289 525 289 525 419 c 0,16,17
EndSplineSet
EndChar

StartChar: P
Encoding: 80 80 52
Width: 600
GlyphClass: 2
Flags: W
LayerCount: 2
Fore
SplineSet
588 468 m 2,0,-1
 587 436 l 1,1,2
 581 375 581 375 544 329 c 0,3,4
 475 242 475 242 367 242 c 2,5,-1
 192 242 l 1,6,-1
 141 50 l 1,7,-1
 270 50 l 2,8,9
 292 50 292 50 296 25 c 0,10,11
 296 1 296 1 270 -2 c 2,12,-1
 25 -2 l 2,13,14
 4 -2 4 -2 0 24 c 0,15,16
 0 40 0 40 23 50 c 1,17,-1
 87 50 l 1,18,-1
 220 538 l 1,19,-1
 107 538 l 2,20,21
 86 538 86 538 82 564 c 0,22,23
 82 580 82 580 105 590 c 1,24,-1
 430 590 l 2,25,26
 491 590 491 590 539 555 c 0,27,28
 586 522 586 522 588 468 c 2,0,-1
536 468 m 0,29,30
 536 490 536 490 504 513 c 0,31,32
 501 515 501 515 498.5 516.5 c 128,-1,33
 496 518 496 518 494 519 c 128,-1,34
 492 520 492 520 490.5 521 c 128,-1,35
 489 522 489 522 488 523 c 0,36,37
 483 526 483 526 464 533 c 0,38,39
 453 536 453 536 429 538 c 2,40,-1
 274 538 l 1,41,-1
 208 294 l 1,42,-1
 367 294 l 2,43,44
 448 294 448 294 503 362 c 0,45,46
 518 380 518 380 527 408 c 0,47,48
 536 435 536 435 536 468 c 0,29,30
EndSplineSet
EndChar

StartChar: Q
Encoding: 81 81 53
Width: 600
GlyphClass: 2
Flags: W
LayerCount: 2
Fore
SplineSet
562 414 m 0,0,1
 562 378 562 378 553 330 c 0,2,3
 538 245 538 245 483 160 c 0,4,5
 430 77 430 77 354 27 c 1,6,-1
 351 -5 l 1,7,-1
 349 -31 l 2,8,9
 349 -52 349 -52 354 -53 c 2,10,-1
 364 -51 l 1,11,12
 405 -51 405 -51 424 -31 c 0,13,14
 441 -17 441 -17 461 29 c 0,15,16
 465 47 465 47 486 48 c 1,17,-1
 501 40 l 2,18,19
 506 36 506 36 511 16 c 1,20,21
 503 -7 503 -7 490 -31 c 0,22,23
 479 -51 479 -51 459 -69 c 0,24,25
 424 -102 424 -102 364 -104 c 1,26,27
 324 -96 324 -96 310 -65 c 0,28,29
 299 -42 299 -42 297 -5 c 1,30,31
 258 -20 258 -20 217 -22 c 0,32,33
 191 -22 191 -22 167 -16 c 0,34,35
 144 -9 144 -9 122 7 c 0,36,37
 86 32 86 32 61 87 c 0,38,39
 53 109 53 109 45 137 c 0,40,41
 39 164 39 164 39 191 c 2,42,-1
 40 222 l 1,43,-1
 40 244 l 1,44,-1
 45 268 l 2,45,46
 47 283 47 283 62 321 c 0,47,48
 82 380 82 380 112 425 c 0,49,50
 118 434 118 434 125 443 c 0,51,52
 127 446 127 446 130.5 451.5 c 128,-1,53
 134 457 134 457 136 459 c 2,54,-1
 167 493 l 2,55,56
 182 509 182 509 198 524 c 0,57,58
 201 526 201 526 211 534.5 c 128,-1,59
 221 543 221 543 229 550 c 0,60,61
 310 610 310 610 395 610 c 0,62,63
 424 610 424 610 430 607 c 0,64,65
 495 598 495 598 531 540 c 0,66,67
 560 491 560 491 562 414 c 0,0,1
510 416 m 0,68,69
 510 476 510 476 488 513 c 0,70,71
 467 549 467 549 421 556 c 1,72,-1
 405 556 l 1,73,-1
 394 557 l 1,74,75
 324 557 324 557 260 508 c 0,76,77
 203 469 203 469 155 394 c 0,78,79
 128 356 128 356 110 300 c 2,80,-1
 102 270 l 1,81,-1
 96 237 l 1,82,-1
 92 208 l 1,83,-1
 92 188 l 2,84,85
 92 158 92 158 98 131 c 2,86,-1
 109 101 l 1,87,88
 126 142 126 142 163 169 c 0,89,90
 210 205 210 205 268 205 c 1,91,92
 319 197 319 197 340 159 c 0,93,94
 346 148 346 148 350 130 c 0,95,96
 353 118 353 118 355 95 c 1,97,98
 404 135 404 135 442 196 c 0,99,100
 482 260 482 260 501 340 c 0,101,102
 510 379 510 379 510 416 c 0,68,69
301 108 m 2,103,104
 301 135 301 135 296 144 c 0,105,106
 292 153 292 153 280 154 c 2,107,-1
 268 153 l 2,108,109
 227 153 227 153 191 126 c 0,110,111
 162 102 162 102 150 51 c 1,112,-1
 152 50 l 1,113,114
 175 29 175 29 214 28 c 0,115,116
 235 28 235 28 256 34 c 0,117,118
 276 40 276 40 299 55 c 1,119,-1
 300 80 l 1,120,-1
 301 108 l 2,103,104
EndSplineSet
EndChar

StartChar: R
Encoding: 82 82 54
Width: 600
GlyphClass: 2
Flags: W
LayerCount: 2
Fore
SplineSet
588 480 m 0,0,1
 588 434 588 434 576 406 c 0,2,3
 573 396 573 396 564 380 c 0,4,5
 558 368 558 368 542 349 c 1,6,-1
 515 326 l 1,7,-1
 485 305 l 2,8,9
 476 301 476 301 460 295 c 0,10,11
 457 294 457 294 446 291 c 128,-1,12
 435 288 435 288 427 285 c 1,13,14
 430 280 430 280 434.5 274 c 128,-1,15
 439 268 439 268 440 267 c 0,16,17
 440 266 440 266 449 251 c 0,18,19
 452 241 452 241 455 225 c 0,20,21
 456 220 456 220 459 202 c 0,22,23
 459 196 459 196 463 188 c 2,24,-1
 466 158 l 1,25,-1
 468 121 l 1,26,-1
 465 77 l 1,27,-1
 460 50 l 1,28,-1
 503 50 l 2,29,30
 525 50 525 50 529 25 c 0,31,32
 529 1 529 1 503 -2 c 2,33,-1
 386 -2 l 1,34,-1
 398 34 l 1,35,-1
 411 77 l 1,36,-1
 416 123 l 1,37,-1
 416 133 l 1,38,-1
 416 140 l 1,39,-1
 414 152 l 1,40,-1
 411 181 l 2,41,42
 405 230 405 230 402 232 c 2,43,-1
 364 280 l 1,44,-1
 202 280 l 1,45,-1
 140 50 l 1,46,-1
 216 50 l 2,47,48
 238 50 238 50 242 25 c 0,49,50
 242 1 242 1 216 -2 c 2,51,-1
 25 -2 l 2,52,53
 4 -2 4 -2 0 24 c 0,54,55
 0 40 0 40 23 50 c 1,56,-1
 87 50 l 1,57,-1
 221 550 l 1,58,-1
 147 550 l 2,59,60
 126 550 126 550 122 576 c 0,61,62
 122 592 122 592 145 602 c 1,63,-1
 427 602 l 2,64,65
 490 602 490 602 534 577 c 0,66,67
 588 546 588 546 588 480 c 0,0,1
536 480 m 2,68,69
 536 513 536 513 507 530 c 0,70,71
 477 548 477 548 427 550 c 2,72,-1
 276 550 l 1,73,-1
 218 332 l 1,74,-1
 367 332 l 1,75,-1
 412 335 l 1,76,-1
 427 338 l 1,77,-1
 447 345 l 2,78,79
 480 357 480 357 505 385 c 0,80,81
 512 392 512 392 517 402 c 0,82,83
 523 416 523 416 526 424 c 2,84,-1
 533 451 l 1,85,-1
 536 480 l 2,68,69
EndSplineSet
EndChar

StartChar: S
Encoding: 83 83 55
Width: 600
GlyphClass: 2
Flags: W
LayerCount: 2
Fore
SplineSet
597 585 m 0,0,1
 597 576 597 576 585 564 c 0,2,3
 577 558 577 558 561 503 c 2,4,-1
 543 427 l 2,5,6
 537 404 537 404 513 402 c 0,7,8
 504 402 504 402 488 413 c 0,9,10
 482 419 482 419 481 442 c 1,11,-1
 484 456 l 1,12,-1
 485 470 l 2,13,14
 485 502 485 502 449 529 c 1,15,16
 413 550 413 550 359 552 c 0,17,18
 292 552 292 552 236 509 c 0,19,20
 211 489 211 489 197 463 c 0,21,22
 185 441 185 441 183 409 c 0,23,24
 183 372 183 372 254 353 c 1,25,-1
 407 326 l 1,26,27
 497 298 497 298 497 206 c 0,28,29
 497 132 497 132 436 67 c 0,30,31
 358 -10 358 -10 225 -12 c 0,32,33
 169 -12 169 -12 122 19 c 0,34,35
 115 25 115 25 97 40 c 0,36,37
 94 43 94 43 85 58 c 1,38,39
 83 50 83 50 81 45 c 0,40,41
 80 40 80 40 75 32 c 2,42,-1
 52 -2 l 1,43,-1
 37 -11 l 1,44,-1
 20 0 l 1,45,-1
 12 15 l 1,46,-1
 19 31 l 2,47,48
 24 36 24 36 32 55 c 0,49,50
 37 69 37 69 45 99 c 2,51,-1
 59 199 l 2,52,53
 62 211 62 211 73 219 c 1,54,-1
 89 222 l 1,55,56
 116 222 116 222 117 200 c 0,57,58
 117 193 117 193 116 191 c 2,59,-1
 110 158 l 1,60,-1
 107 133 l 1,61,-1
 110 112 l 2,62,63
 116 83 116 83 156 59 c 0,64,65
 188 42 188 42 226 40 c 0,66,67
 313 40 313 40 382 97 c 0,68,69
 442 144 442 144 442 198 c 0,70,71
 442 258 442 258 368 276 c 1,72,-1
 215 301 l 1,73,74
 125 326 125 326 125 410 c 128,-1,75
 125 494 125 494 205 556 c 0,76,77
 276 607 276 607 358 609 c 0,78,79
 420 609 420 609 465 586 c 0,80,81
 496 572 496 572 513 549 c 1,82,-1
 514 555 l 2,83,84
 517 566 517 566 526 580 c 0,85,86
 534 590 534 590 550 605 c 1,87,-1
 566 612 l 1,88,89
 580 612 580 612 588 604 c 0,90,91
 597 598 597 598 597 585 c 0,0,1
EndSplineSet
EndChar

StartChar: T
Encoding: 84 84 56
Width: 600
GlyphClass: 2
Flags: W
LayerCount: 2
Fore
SplineSet
583 602 m 1,0,-1
 529 367 l 2,1,2
 523 349 523 349 505 347 c 0,3,4
 493 347 493 347 482 357 c 1,5,-1
 477 376 l 1,6,-1
 516 550 l 1,7,-1
 387 550 l 1,8,-1
 233 48 l 1,9,-1
 394 48 l 2,10,11
 416 48 416 48 420 23 c 0,12,13
 420 -1 420 -1 394 -4 c 2,14,-1
 19 -4 l 2,15,16
 -2 -4 -2 -4 -6 22 c 0,17,18
 -6 38 -6 38 17 48 c 1,19,-1
 178 48 l 1,20,-1
 332 550 l 1,21,-1
 158 550 l 1,22,-1
 101 364 l 2,23,24
 95 346 95 346 77 344 c 0,25,26
 70 344 70 344 65 348 c 2,27,-1
 58 353 l 2,28,29
 54 358 54 358 51 376 c 1,30,-1
 119 602 l 1,31,-1
 583 602 l 1,0,-1
EndSplineSet
EndChar

StartChar: U
Encoding: 85 85 57
Width: 600
GlyphClass: 2
Flags: W
LayerCount: 2
Fore
SplineSet
596 577 m 0,0,1
 596 553 596 553 570 550 c 2,2,-1
 535 550 l 1,3,-1
 414 152 l 2,4,5
 395 84 395 84 329 33 c 0,6,7
 267 -14 267 -14 193 -16 c 1,8,-1
 174 -15 l 2,9,10
 159 -15 159 -15 149 -10 c 0,11,12
 99 2 99 2 62 45 c 0,13,14
 26 90 26 90 26 138 c 1,15,-1
 32 177 l 1,16,-1
 151 550 l 1,17,-1
 74 550 l 2,18,19
 53 550 53 550 49 576 c 0,20,21
 49 592 49 592 72 602 c 1,22,-1
 275 602 l 2,23,24
 297 602 297 602 301 577 c 0,25,26
 301 553 301 553 275 550 c 2,27,-1
 206 550 l 1,28,-1
 82 162 l 1,29,-1
 78 137 l 2,30,31
 78 120 78 120 83 107 c 0,32,33
 88 93 88 93 100 79 c 0,34,35
 126 53 126 53 161 41 c 2,36,-1
 178 37 l 1,37,-1
 196 36 l 2,38,39
 246 36 246 36 295 75 c 0,40,41
 345 114 345 114 364 167 c 2,42,-1
 480 550 l 1,43,-1
 440 550 l 2,44,45
 419 550 419 550 415 576 c 0,46,47
 415 593 415 593 439 602 c 1,48,-1
 570 602 l 2,49,50
 592 602 592 602 596 577 c 0,0,1
EndSplineSet
EndChar

StartChar: V
Encoding: 86 86 58
Width: 600
GlyphClass: 2
Flags: W
LayerCount: 2
Fore
SplineSet
573 577 m 0,0,1
 573 553 573 553 547 550 c 2,2,-1
 518 550 l 1,3,-1
 188 -3 l 1,4,-1
 119 -3 l 1,5,-1
 104 550 l 1,6,-1
 48 550 l 2,7,8
 27 550 27 550 23 576 c 0,9,10
 23 592 23 592 46 602 c 1,11,-1
 221 602 l 2,12,13
 243 602 243 602 247 577 c 0,14,15
 247 553 247 553 221 550 c 2,16,-1
 156 550 l 1,17,-1
 171 73 l 1,18,-1
 455 550 l 1,19,-1
 410 550 l 2,20,21
 389 550 389 550 385 576 c 0,22,23
 385 592 385 592 408 602 c 1,24,-1
 547 602 l 2,25,26
 569 602 569 602 573 577 c 0,0,1
EndSplineSet
EndChar

StartChar: W
Encoding: 87 87 59
Width: 600
GlyphClass: 2
Flags: W
LayerCount: 2
Fore
SplineSet
600 580 m 1,0,1
 600 554 600 554 570 550 c 1,2,-1
 311 0 l 1,3,-1
 270 0 l 1,4,-1
 242 285 l 1,5,-1
 57 -2 l 1,6,-1
 8 0 l 1,7,-1
 78 548 l 1,8,-1
 35 548 l 2,9,10
 14 548 14 548 10 574 c 0,11,12
 10 590 10 590 33 600 c 1,13,-1
 218 600 l 2,14,15
 240 600 240 600 244 575 c 0,16,17
 244 551 244 551 218 548 c 2,18,-1
 130 548 l 1,19,-1
 70 101 l 1,20,-1
 238 372 l 1,21,-1
 282 372 l 1,22,-1
 309 105 l 1,23,-1
 512 550 l 1,24,-1
 431 550 l 2,25,26
 418 550 418 550 408 572 c 1,27,28
 408 599 408 599 429 602 c 2,29,-1
 570 602 l 2,30,31
 591 602 591 602 600 580 c 1,0,1
EndSplineSet
EndChar

StartChar: X
Encoding: 88 88 60
Width: 600
GlyphClass: 2
Flags: W
LayerCount: 2
Fore
SplineSet
602 575 m 0,0,1
 602 551 602 551 576 548 c 2,2,-1
 538 548 l 1,3,-1
 332 301 l 1,4,-1
 419 50 l 1,5,-1
 472 50 l 2,6,7
 494 50 494 50 498 25 c 0,8,9
 498 1 498 1 472 -2 c 2,10,-1
 294 -2 l 2,11,12
 273 -2 273 -2 269 24 c 0,13,14
 269 40 269 40 292 50 c 1,15,-1
 365 50 l 1,16,-1
 293 256 l 1,17,-1
 119 48 l 1,18,-1
 141 48 l 2,19,20
 163 48 163 48 167 23 c 0,21,22
 167 -1 167 -1 141 -4 c 2,23,-1
 25 -4 l 2,24,25
 4 -4 4 -4 0 22 c 0,26,27
 0 38 0 38 23 48 c 1,28,-1
 51 48 l 1,29,-1
 273 313 l 1,30,-1
 192 548 l 1,31,-1
 135 548 l 2,32,33
 114 548 114 548 110 574 c 0,34,35
 110 591 110 591 134 600 c 1,36,-1
 324 600 l 2,37,38
 346 600 346 600 350 575 c 0,39,40
 350 551 350 551 324 548 c 2,41,-1
 247 548 l 1,42,-1
 312 359 l 1,43,-1
 470 548 l 1,44,-1
 455 548 l 2,45,46
 434 548 434 548 430 574 c 0,47,48
 430 591 430 591 453 600 c 1,49,-1
 576 600 l 2,50,51
 598 600 598 600 602 575 c 0,0,1
EndSplineSet
EndChar

StartChar: Y
Encoding: 89 89 61
Width: 600
GlyphClass: 2
Flags: W
LayerCount: 2
Fore
SplineSet
588 577 m 0,0,1
 588 553 588 553 562 550 c 2,2,-1
 531 550 l 1,3,-1
 530 547 l 1,4,-1
 328 269 l 1,5,-1
 250 50 l 1,6,-1
 376 50 l 2,7,8
 398 50 398 50 402 25 c 0,9,10
 402 1 402 1 376 -2 c 2,11,-1
 33 -2 l 2,12,13
 12 -2 12 -2 8 24 c 0,14,15
 8 40 8 40 31 50 c 1,16,-1
 196 50 l 1,17,-1
 274 266 l 1,18,-1
 157 548 l 1,19,-1
 121 548 l 2,20,21
 100 548 100 548 96 574 c 0,22,23
 96 590 96 590 119 600 c 1,24,-1
 281 600 l 2,25,26
 303 600 303 600 307 575 c 0,27,28
 307 551 307 551 281 548 c 2,29,-1
 213 548 l 1,30,-1
 304 322 l 1,31,-1
 467 550 l 1,32,-1
 399 550 l 2,33,34
 377 550 377 550 373 576 c 0,35,36
 373 593 373 593 397 602 c 1,37,-1
 562 602 l 2,38,39
 584 602 584 602 588 577 c 0,0,1
EndSplineSet
EndChar

StartChar: Z
Encoding: 90 90 62
Width: 600
GlyphClass: 2
Flags: W
LayerCount: 2
Fore
SplineSet
544 598 m 1,0,-1
 137 50 l 1,1,-1
 412 50 l 1,2,-1
 459 202 l 2,3,4
 464 216 464 216 481 220 c 0,5,6
 488 220 488 220 490 218 c 0,7,8
 496 216 496 216 500 210 c 0,9,10
 502 207 502 207 507 189 c 1,11,-1
 449 -2 l 1,12,-1
 37 -2 l 1,13,-1
 444 546 l 1,14,-1
 213 546 l 1,15,-1
 172 415 l 2,16,17
 169 404 169 404 151 398 c 1,18,-1
 141 401 l 2,19,20
 139 401 139 401 136 403 c 0,21,22
 135 403 135 403 131 407 c 0,23,24
 128 410 128 410 125 429 c 1,25,-1
 176 598 l 1,26,-1
 544 598 l 1,0,-1
EndSplineSet
EndChar

StartChar: bracketleft
Encoding: 91 91 63
Width: 600
GlyphClass: 2
Flags: W
LayerCount: 2
Fore
SplineSet
461 -20 m 0,0,1
 461 -44 461 -44 436 -47 c 2,2,-1
 208 -47 l 1,3,-1
 208 647 l 1,4,-1
 436 647 l 2,5,6
 457 647 457 647 461 622 c 1,7,8
 461 595 461 595 436 595 c 2,9,-1
 258 595 l 1,10,-1
 258 5 l 1,11,-1
 436 5 l 2,12,13
 457 5 457 5 461 -20 c 0,0,1
EndSplineSet
EndChar

StartChar: backslash
Encoding: 92 92 64
Width: 600
GlyphClass: 2
Flags: W
LayerCount: 2
Fore
SplineSet
542 -24 m 0,0,1
 537 -32 537 -32 521 -38 c 0,2,3
 512 -38 512 -38 501 -28 c 2,4,-1
 55 597 l 2,5,6
 49 603 49 603 49 610 c 0,7,8
 49 616 49 616 54 624 c 0,9,10
 62 636 62 636 78 638 c 0,11,12
 87 638 87 638 96 629 c 2,13,-1
 542 4 l 2,14,15
 548 -2 548 -2 548 -9 c 0,16,17
 548 -15 548 -15 542 -24 c 0,0,1
EndSplineSet
EndChar

StartChar: bracketright
Encoding: 93 93 65
Width: 600
GlyphClass: 2
Flags: W
LayerCount: 2
Fore
SplineSet
392 -47 m 1,0,-1
 163 -47 l 2,1,2
 142 -47 142 -47 139 -21 c 0,3,4
 139 -4 139 -4 161 5 c 1,5,-1
 342 5 l 1,6,-1
 342 595 l 1,7,-1
 163 595 l 2,8,9
 142 595 142 595 139 621 c 0,10,11
 139 638 139 638 161 647 c 1,12,-1
 392 647 l 1,13,-1
 392 -47 l 1,0,-1
EndSplineSet
EndChar

StartChar: asciicircum
Encoding: 94 94 66
Width: 600
GlyphClass: 2
Flags: W
LayerCount: 2
Fore
SplineSet
515 342 m 6,0,1
 518 336 518 336 518 331 c 4,2,3
 518 327 518 327 513 317 c 4,4,5
 509 309 509 309 492 307 c 4,6,7
 488 307 488 307 470 319 c 5,8,-1
 300 660 l 5,9,-1
 134 321 l 6,10,11
 127 309 127 309 112 307 c 4,12,13
 104 307 104 307 92 316 c 5,14,15
 89 324 89 324 87 340 c 5,16,-1
 300 774 l 5,17,-1
 515 342 l 6,0,1
EndSplineSet
EndChar

StartChar: underscore
Encoding: 95 95 67
Width: 600
GlyphClass: 2
Flags: W
LayerCount: 2
Fore
SplineSet
544 -89 m 1,0,1
 544 -107 544 -107 518 -107 c 2,2,-1
 81 -107 l 2,3,4
 60 -107 60 -107 56 -90 c 0,5,6
 56 -80 56 -80 79 -73 c 1,7,-1
 518 -73 l 2,8,9
 540 -73 540 -73 544 -89 c 1,0,1
EndSplineSet
EndChar

StartChar: grave
Encoding: 96 96 68
Width: 600
GlyphClass: 2
Flags: W
LayerCount: 2
Fore
SplineSet
415 445 m 1,0,-1
 350 446 l 1,1,-1
 165 605 l 1,2,-1
 324 605 l 1,3,-1
 415 445 l 1,0,-1
EndSplineSet
EndChar

StartChar: a
Encoding: 97 97 69
Width: 600
GlyphClass: 2
Flags: W
LayerCount: 2
Fore
SplineSet
560 415 m 1,0,-1
 552 403 l 1,1,2
 525 380 525 380 466 250 c 0,3,4
 412 125 412 125 410 79 c 1,5,-1
 407 69 l 1,6,-1
 407 60 l 2,7,8
 407 48 407 48 414 41 c 0,9,10
 422 35 422 35 441 35 c 0,11,12
 450 35 450 35 473 53 c 1,13,-1
 488 71 l 1,14,-1
 505 96 l 2,15,16
 510 105 510 105 527 107 c 1,17,-1
 533 104 l 1,18,-1
 542 98 l 2,19,20
 546 97 546 97 550 81 c 1,21,-1
 547 68 l 1,22,-1
 509 19 l 1,23,24
 480 -11 480 -11 440 -13 c 0,25,26
 402 -13 402 -13 377 4 c 0,27,28
 359 20 359 20 357 49 c 2,29,-1
 357 65 l 2,30,31
 357 76 357 76 362 86 c 2,32,-1
 375 124 l 1,33,-1
 392 115 l 1,34,35
 351 66 351 66 286 28 c 0,36,37
 224 -7 224 -7 172 -9 c 2,38,-1
 161 -9 l 1,39,-1
 151 -7 l 2,40,41
 101 2 101 2 72 44 c 0,42,43
 61 63 61 63 54 84 c 0,44,45
 49 103 49 103 47 130 c 0,46,47
 47 219 47 219 109 299 c 0,48,49
 129 324 129 324 160 355 c 0,50,51
 182 375 182 375 218 402 c 0,52,53
 275 444 275 444 330 444 c 2,54,-1
 345 443 l 2,55,56
 390 443 390 443 426 410 c 0,57,58
 446 391 446 391 461 357 c 1,59,-1
 477 385 l 1,60,-1
 511 433 l 2,61,62
 517 441 517 441 529 443 c 0,63,64
 540 443 540 443 547 436 c 0,65,66
 554 433 554 433 560 415 c 1,0,-1
421 301 m 0,67,68
 421 337 421 337 401 360 c 0,69,70
 383 381 383 381 339 391 c 1,71,-1
 328 392 l 2,72,73
 292 392 292 392 245 360 c 0,74,75
 199 328 199 328 152 269 c 0,76,77
 126 238 126 238 113 204 c 0,78,79
 102 172 102 172 100 136 c 0,80,81
 100 99 100 99 114 75 c 0,82,83
 128 55 128 55 165 43 c 1,84,-1
 175 42 l 2,85,86
 209 42 209 42 269 75 c 0,87,88
 326 107 326 107 373 162 c 0,89,90
 384 178 384 178 402 233 c 0,91,92
 418 283 418 283 421 301 c 0,67,68
EndSplineSet
EndChar

StartChar: b
Encoding: 98 98 70
Width: 600
GlyphClass: 2
Flags: W
LayerCount: 2
Fore
SplineSet
571 285 m 1,0,-1
 570 260 l 2,1,2
 570 247 570 247 562 230 c 0,3,4
 538 135 538 135 445 57 c 0,5,6
 353 -18 353 -18 255 -20 c 2,7,-1
 233 -20 l 1,8,-1
 213 -17 l 2,9,10
 196 -13 196 -13 176 -2 c 0,11,12
 158 7 158 7 141 21 c 0,13,14
 138 24 138 24 124 42 c 0,15,16
 116 55 116 55 109 70 c 1,17,18
 100 50 100 50 91 34 c 0,19,20
 80 13 80 13 54 -22 c 0,21,22
 48 -31 48 -31 35 -32 c 0,23,24
 26 -32 26 -32 18 -25 c 0,25,26
 14 -23 14 -23 7 -5 c 1,27,-1
 13 10 l 1,28,29
 46 48 46 48 90 162 c 1,30,-1
 128 275 l 1,31,-1
 153 349 l 1,32,-1
 176 421 l 1,33,-1
 210 549 l 1,34,-1
 100 519 l 2,35,36
 89 513 89 513 74 525 c 1,37,-1
 66 543 l 1,38,39
 66 554 66 554 82 567 c 1,40,-1
 283 624 l 1,41,-1
 273 581 l 2,42,43
 263 528 263 528 257 505 c 0,44,45
 249 473 249 473 240 448 c 2,46,-1
 223 391 l 1,47,-1
 220 379 l 1,48,-1
 214 364 l 2,49,50
 211 352 211 352 208 346 c 0,51,52
 208 339 208 339 201 324 c 1,53,-1
 185 335 l 1,54,55
 235 386 235 386 294 413 c 0,56,57
 350 437 350 437 407 439 c 1,58,-1
 428 438 l 2,59,60
 493 432 493 432 531 390 c 0,61,62
 569 349 569 349 571 285 c 1,0,-1
517 288 m 0,63,64
 517 370 517 370 423 386 c 1,65,-1
 405 387 l 2,66,67
 380 387 380 387 355 380 c 0,68,69
 328 373 328 373 303 360 c 0,70,71
 275 346 275 346 249 323 c 0,72,73
 223 301 223 301 197 270 c 0,74,75
 188 258 188 258 179 243 c 0,76,77
 177 238 177 238 170.5 225.5 c 128,-1,78
 164 213 164 213 159 204 c 0,79,80
 150 166 150 166 148 136 c 0,81,82
 148 98 148 98 165 72 c 0,83,84
 184 45 184 45 224 35 c 1,85,-1
 259 31 l 1,86,87
 326 31 326 31 409 97 c 0,88,89
 490 163 490 163 511 243 c 0,90,91
 517 267 517 267 517 288 c 0,63,64
EndSplineSet
EndChar

StartChar: c
Encoding: 99 99 71
Width: 600
GlyphClass: 2
Flags: W
LayerCount: 2
Fore
SplineSet
551 336 m 0,0,1
 551 288 551 288 524 253 c 0,2,3
 497 220 497 220 457 220 c 0,4,5
 430 220 430 220 408 235 c 0,6,7
 387 250 387 250 387 279 c 0,8,9
 387 311 387 311 407 328 c 0,10,11
 428 346 428 346 456 346 c 0,12,13
 482 346 482 346 498 335 c 0,14,15
 516 324 516 324 516 302 c 2,16,-1
 514 291 l 1,17,-1
 496 295 l 1,18,-1
 501 311 l 1,19,-1
 503 325 l 2,20,21
 503 341 503 341 493 352 c 0,22,23
 485 363 485 363 449 381 c 1,24,-1
 416 386 l 1,25,-1
 380 389 l 1,26,27
 277 389 277 389 187 314 c 0,28,29
 101 239 101 239 99 140 c 0,30,31
 99 90 99 90 133 62 c 0,32,33
 167 35 167 35 228 34 c 0,34,35
 304 34 304 34 366 55 c 128,-1,36
 428 76 428 76 474 124 c 1,37,-1
 495 134 l 1,38,39
 514 134 514 134 518 110 c 1,40,-1
 513 96 l 1,41,42
 495 69 495 69 465 48 c 0,43,44
 438 29 438 29 389 11 c 0,45,46
 314 -16 314 -16 228 -18 c 0,47,48
 149 -18 149 -18 98 23 c 0,49,50
 47 65 47 65 47 138 c 0,51,52
 47 258 47 258 151 355 c 1,53,54
 249 439 249 439 381 440 c 2,55,-1
 403 440 l 2,56,57
 418 440 418 440 427 438 c 0,58,59
 442 438 442 438 466 429 c 0,60,61
 502 420 502 420 531 391 c 0,62,63
 538 382 538 382 545 366 c 0,64,65
 551 352 551 352 551 336 c 0,0,1
EndSplineSet
EndChar

StartChar: d
Encoding: 100 100 72
Width: 600
GlyphClass: 2
Flags: W
LayerCount: 2
Fore
SplineSet
602 616 m 1,0,-1
 443 85 l 1,1,-1
 440 65 l 2,2,3
 440 48 440 48 449 35 c 0,4,5
 454 26 454 26 471 24 c 0,6,7
 489 24 489 24 498 32 c 2,8,-1
 521 63 l 1,9,-1
 527 69 l 2,10,11
 532 73 532 73 542 77 c 1,12,13
 569 77 569 77 569 50 c 1,14,-1
 566 41 l 1,15,16
 545 6 545 6 525 -11 c 0,17,18
 507 -26 507 -26 476 -28 c 0,19,20
 428 -28 428 -28 407 5 c 0,21,22
 392 30 392 30 391 67 c 2,23,-1
 392 83 l 1,24,-1
 390 73 l 1,25,26
 383 64 383 64 358 46 c 0,27,28
 334 28 334 28 304 13 c 0,29,30
 244 -20 244 -20 180 -20 c 2,31,-1
 158 -20 l 1,32,-1
 138 -16 l 1,33,34
 84 -1 84 -1 52 44 c 0,35,36
 40 63 40 63 30 89 c 0,37,38
 25 110 25 110 23 137 c 0,39,40
 23 222 23 222 83 303 c 0,41,42
 132 366 132 366 201 404 c 0,43,44
 269 439 269 439 333 441 c 1,45,-1
 354 440 l 2,46,47
 439 432 439 432 474 369 c 1,48,-1
 528 554 l 1,49,-1
 391 537 l 2,50,51
 384 537 384 537 372 546 c 1,52,-1
 364 563 l 1,53,54
 364 588 364 588 386 589 c 2,55,-1
 602 616 l 1,0,-1
441 291 m 0,56,57
 441 331 441 331 420 355 c 0,58,59
 397 376 397 376 349 388 c 1,60,-1
 331 389 l 2,61,62
 306 389 306 389 281 382 c 0,63,64
 258 376 258 376 226 361 c 0,65,66
 174 334 174 334 124 270 c 0,67,68
 76 208 76 208 74 137 c 0,69,70
 74 99 74 99 91 72 c 0,71,72
 109 46 109 46 150 36 c 2,73,-1
 184 31 l 1,74,75
 254 31 254 31 334 98 c 0,76,77
 414 163 414 163 435 244 c 0,78,79
 441 270 441 270 441 291 c 0,56,57
EndSplineSet
EndChar

StartChar: e
Encoding: 101 101 73
Width: 600
GlyphClass: 2
Flags: W
LayerCount: 2
Fore
SplineSet
542 116 m 0,0,1
 542 107 542 107 535 100 c 0,2,3
 515 76 515 76 481 51 c 0,4,5
 453 32 453 32 410 10 c 0,6,7
 334 -23 334 -23 253 -25 c 0,8,9
 155 -25 155 -25 95 17 c 1,10,11
 53 54 53 54 51 120 c 0,12,13
 51 154 51 154 72 209 c 0,14,15
 93 262 93 262 123 300 c 0,16,17
 177 369 177 369 257 406 c 0,18,19
 322 436 322 436 394 436 c 0,20,21
 433 436 433 436 448 431 c 0,22,23
 467 428 467 428 492 412 c 0,24,25
 537 386 537 386 539 333 c 0,26,27
 539 267 539 267 421 203 c 0,28,29
 390 189 390 189 333 170 c 0,30,31
 270 150 270 150 211 134 c 1,32,-1
 105 115 l 1,33,34
 108 82 108 82 128 59 c 1,35,36
 164 29 164 29 260 29 c 0,37,38
 313 29 313 29 397 68 c 0,39,40
 438 88 438 88 454 100 c 0,41,42
 480 116 480 116 496 133 c 0,43,44
 500 139 500 139 514 142 c 0,45,46
 526 142 526 142 532 135 c 0,47,48
 541 129 541 129 542 116 c 0,0,1
481 333 m 0,49,50
 481 351 481 351 458 367 c 0,51,52
 438 382 438 382 390 384 c 0,53,54
 368 384 368 384 340 378 c 0,55,56
 311 373 311 373 304 370 c 0,57,58
 294 367 294 367 276 357 c 0,59,60
 214 331 214 331 162 269 c 0,61,62
 153 260 153 260 144 245 c 0,63,64
 142 241 142 241 127 214 c 2,65,-1
 114 184 l 1,66,-1
 112 165 l 1,67,68
 134 169 134 169 146 171 c 0,69,70
 167 175 167 175 199 185 c 2,71,-1
 240 194 l 1,72,-1
 297 211 l 1,73,-1
 344 227 l 1,74,-1
 384 245 l 2,75,76
 480 290 480 290 481 333 c 0,49,50
EndSplineSet
EndChar

StartChar: f
Encoding: 102 102 74
Width: 600
GlyphClass: 2
Flags: W
LayerCount: 2
Fore
SplineSet
590 503 m 0,0,1
 590 480 590 480 575 456 c 0,2,3
 562 435 562 435 528 434 c 0,4,5
 504 434 504 434 486 452 c 0,6,7
 474 467 474 467 472 498 c 0,8,9
 472 519 472 519 485 536 c 0,10,11
 489 541 489 541 497 547 c 1,12,-1
 494 549 l 1,13,-1
 481 552 l 1,14,-1
 455 553 l 2,15,16
 416 553 416 553 377 517 c 0,17,18
 342 483 342 483 334 448 c 2,19,-1
 324 383 l 1,20,-1
 448 383 l 2,21,22
 470 383 470 383 474 358 c 0,23,24
 474 334 474 334 448 330 c 1,25,-1
 316 330 l 1,26,-1
 257 -38 l 6,27,28
 251 -85 251 -85 216 -121 c 4,29,30
 182 -157 182 -157 129 -157 c 4,31,32
 99 -157 99 -157 69 -136 c 4,33,34
 42 -115 42 -115 42 -75 c 4,35,36
 42 -18 42 -18 106 -17 c 4,37,38
 127 -17 127 -17 137 -27 c 4,39,40
 147 -36 147 -36 154 -62 c 5,41,42
 154 -81 154 -81 137 -101 c 5,43,44
 159 -101 159 -101 182 -78 c 4,45,46
 204 -58 204 -58 205 -31 c 6,47,-1
 262 330 l 1,48,-1
 148 330 l 2,49,50
 128 330 128 330 123 357 c 0,51,52
 123 373 123 373 146 383 c 1,53,-1
 270 383 l 1,54,-1
 282 458 l 2,55,56
 291 511 291 511 339 555 c 0,57,58
 393 606 393 606 455 606 c 0,59,60
 509 606 509 606 544 584 c 0,61,62
 588 556 588 556 590 503 c 0,0,1
EndSplineSet
EndChar

StartChar: g
Encoding: 103 103 75
Width: 600
GlyphClass: 2
Flags: W
LayerCount: 2
Fore
SplineSet
599 400 m 1,0,-1
 594 387 l 1,1,-1
 517 297 l 1,2,-1
 422 -82 l 2,3,4
 404 -155 404 -155 341 -194 c 0,5,6
 309 -212 309 -212 276 -221 c 128,-1,7
 243 -230 243 -230 201 -230 c 0,8,9
 129 -230 129 -230 81 -206 c 0,10,11
 35 -183 35 -183 34 -132 c 0,12,13
 34 -106 34 -106 50 -89 c 0,14,15
 65 -77 65 -77 89 -75 c 0,16,17
 98 -75 98 -75 105 -78 c 0,18,19
 113 -81 113 -81 124 -88 c 0,20,21
 142 -102 142 -102 142 -128 c 0,22,23
 142 -143 142 -143 129 -156 c 0,24,25
 122 -168 122 -168 101 -169 c 0,26,27
 84 -169 84 -169 70 -142 c 1,28,-1
 88 -138 l 1,29,30
 88 -152 88 -152 118 -167 c 0,31,32
 147 -178 147 -178 201 -180 c 0,33,34
 235 -180 235 -180 260 -173 c 0,35,36
 284 -167 284 -167 310 -152 c 0,37,38
 352 -130 352 -130 371 -70 c 2,39,-1
 407 75 l 1,40,41
 390 58 390 58 367 41 c 0,42,43
 349 28 349 28 320 12 c 0,44,45
 256 -24 256 -24 191 -26 c 0,46,47
 111 -26 111 -26 70 24 c 0,48,49
 38 65 38 65 36 139 c 0,50,51
 36 250 36 250 149 347 c 0,52,53
 256 434 256 434 367 436 c 0,54,55
 408 436 408 436 447 409 c 0,56,57
 463 397 463 397 474 383 c 0,58,59
 484 371 484 371 494 352 c 1,60,-1
 555 421 l 1,61,-1
 570 428 l 1,62,63
 595 428 595 428 599 400 c 1,0,-1
452 266 m 0,64,65
 452 322 452 322 431 354 c 0,66,67
 410 384 410 384 363 384 c 0,68,69
 287 384 287 384 188 307 c 0,70,71
 90 231 90 231 88 139 c 0,72,73
 88 89 88 89 113 55 c 0,74,75
 138 25 138 25 191 25 c 0,76,77
 265 25 265 25 358 105 c 0,78,79
 451 184 451 184 452 266 c 0,64,65
EndSplineSet
EndChar

StartChar: h
Encoding: 104 104 76
Width: 600
GlyphClass: 2
Flags: W
LayerCount: 2
Fore
SplineSet
540 72 m 1,0,-1
 538 63 l 1,1,-1
 532 54 l 2,2,3
 523 39 523 39 508 24 c 0,4,5
 470 -8 470 -8 415 -10 c 0,6,7
 393 -10 393 -10 372 4 c 1,8,9
 360 19 360 19 360 44 c 2,10,-1
 360 66 l 1,11,-1
 368 95 l 2,12,13
 368 102 368 102 382 133 c 0,14,15
 391 155 391 155 424 227 c 1,16,17
 456 310 456 310 458 360 c 0,18,19
 458 382 458 382 440 383 c 0,20,21
 401 383 401 383 302 302 c 0,22,23
 221 236 221 236 151 154 c 1,24,-1
 109 16 l 2,25,26
 106 4 106 4 86 0 c 1,27,28
 72 3 72 3 69 6 c 0,29,30
 60 15 60 15 60 30 c 1,31,-1
 206 546 l 1,32,-1
 115 515 l 2,33,34
 113 515 113 515 110 514.5 c 128,-1,35
 107 514 107 514 106 513 c 0,36,37
 100 513 100 513 90 519 c 0,38,39
 81 528 81 528 81 541 c 0,40,41
 81 548 81 548 96 563 c 1,42,-1
 284 628 l 1,43,-1
 177 262 l 1,44,45
 210 296 210 296 233 316 c 0,46,47
 258 338 258 338 298 369 c 0,48,49
 391 441 391 441 449 443 c 0,50,51
 470 443 470 443 490 422 c 0,52,53
 508 404 508 404 508 363 c 2,54,-1
 505 306 l 2,55,56
 505 294 505 294 502 282 c 0,57,58
 498 268 498 268 494 259 c 2,59,-1
 453 149 l 1,60,-1
 429 93 l 2,61,62
 417 66 417 66 415 50 c 0,63,64
 415 43 415 43 425 42 c 0,65,66
 446 42 446 42 472 64 c 1,67,-1
 497 91 l 1,68,-1
 513 98 l 1,69,70
 537 98 537 98 540 72 c 1,0,-1
EndSplineSet
EndChar

StartChar: i
Encoding: 105 105 77
Width: 600
GlyphClass: 2
Flags: W
LayerCount: 2
Fore
SplineSet
470 577 m 4,0,1
 470 542 470 542 446 518 c 4,2,3
 437 509 437 509 421 501 c 4,4,5
 412 498 412 498 391 496 c 4,6,7
 363 496 363 496 334 515 c 4,8,9
 323 526 323 526 316 541 c 4,10,11
 310 556 310 556 310 577 c 4,12,13
 310 609 310 609 333 635 c 4,14,15
 354 656 354 656 391 658 c 4,16,17
 422 658 422 658 446 638 c 4,18,19
 470 617 470 617 470 577 c 4,0,1
529 158 m 0,20,21
 529 150 529 150 527 146 c 0,22,23
 526 142 526 142 518 136 c 2,24,-1
 343 23 l 1,25,-1
 301 -1 l 1,26,-1
 281 -9 l 1,27,-1
 252 -15 l 1,28,-1
 239 -14 l 2,29,30
 234 -14 234 -14 220 -8 c 0,31,32
 208 -2 208 -2 193 20 c 1,33,-1
 185 53 l 1,34,35
 185 78 185 78 188 82 c 2,36,-1
 196 109 l 1,37,-1
 294 357 l 1,38,-1
 300 374 l 1,39,-1
 304 386 l 1,40,-1
 302 392 l 1,41,42
 295 392 295 392 290 394 c 0,43,44
 274 394 274 394 255 383 c 2,45,-1
 105 291 l 1,46,-1
 94 287 l 1,47,-1
 78 295 l 1,48,-1
 68 313 l 1,49,50
 68 327 68 327 80 336 c 2,51,-1
 228 428 l 1,52,-1
 255 440 l 2,53,54
 270 445 270 445 290 447 c 0,55,56
 323 447 323 447 347 417 c 1,57,-1
 356 388 l 2,58,59
 356 382 356 382 347 353 c 2,60,-1
 342 338 l 1,61,-1
 245 90 l 1,62,-1
 238 69 l 2,63,64
 238 60 238 60 237 54 c 0,65,66
 237 46 237 46 243 38 c 1,67,-1
 252 36 l 2,68,69
 260 36 260 36 269 40 c 2,70,-1
 296 54 l 1,71,-1
 316 67 l 1,72,-1
 492 180 l 1,73,-1
 507 185 l 1,74,-1
 515 180 l 2,75,76
 518 177 518 177 519 175 c 0,77,78
 525 166 525 166 529 158 c 0,20,21
EndSplineSet
EndChar

StartChar: j
Encoding: 106 106 78
Width: 600
GlyphClass: 2
Flags: W
LayerCount: 2
Fore
SplineSet
554 577 m 0,0,1
 554 541 554 541 530 517 c 0,2,3
 507 496 507 496 474 495 c 0,4,5
 444 495 444 495 419 516 c 0,6,7
 395 537 395 537 395 577 c 0,8,9
 395 610 395 610 417 636 c 1,10,-1
 428 644 l 2,11,12
 431 650 431 650 445 654 c 2,13,-1
 473 658 l 1,14,15
 506 658 506 658 530 638 c 0,16,17
 554 614 554 614 554 577 c 0,0,1
486 387 m 1,18,-1
 482 363 l 1,19,-1
 478 347 l 1,20,-1
 372 -28 l 2,21,22
 360 -77 360 -77 314 -107 c 0,23,24
 271 -134 271 -134 223 -136 c 1,25,-1
 192 -133 l 1,26,27
 141 -124 141 -124 105 -81 c 0,28,29
 69 -40 69 -40 69 12 c 2,30,-1
 70 32 l 2,31,32
 70 39 70 39 77 57 c 0,33,34
 84 74 84 74 105 89 c 0,35,36
 123 101 123 101 145 103 c 0,37,38
 166 103 166 103 182 87 c 0,39,40
 197 76 197 76 199 51 c 0,41,42
 199 30 199 30 182 12 c 0,43,44
 177 6 177 6 151 -1 c 1,45,46
 134 -1 134 -1 120 9 c 0,47,48
 118 10 118 10 115 15 c 1,49,50
 115 13 115 13 116 12 c 1,51,52
 118 18 118 18 120 22 c 1,53,54
 120 16 120 16 121 12 c 0,55,56
 121 -19 121 -19 142 -46 c 0,57,58
 161 -73 161 -73 201 -80 c 2,59,-1
 227 -83 l 2,60,61
 256 -83 256 -83 283 -65 c 0,62,63
 308 -49 308 -49 323 -13 c 1,64,-1
 427 360 l 1,65,-1
 432 379 l 1,66,-1
 435 386 l 1,67,-1
 432 389 l 1,68,-1
 424 393 l 1,69,70
 414 393 414 393 406 389 c 0,71,72
 400 387 400 387 384 377 c 2,73,-1
 220 305 l 2,74,75
 213 302 213 302 192 310 c 1,76,-1
 182 328 l 1,77,78
 182 338 182 338 196 352 c 1,79,-1
 363 426 l 1,80,-1
 391 438 l 1,81,-1
 424 445 l 1,82,83
 445 445 445 445 468 428 c 0,84,85
 478 418 478 418 482 407 c 2,86,-1
 486 387 l 1,18,-1
EndSplineSet
EndChar

StartChar: k
Encoding: 107 107 79
Width: 600
GlyphClass: 2
Flags: W
LayerCount: 2
Fore
SplineSet
546 62 m 1,0,1
 538 32 538 32 517 13 c 0,2,3
 498 -4 498 -4 471 -6 c 0,4,5
 428 -6 428 -6 400 31 c 2,6,-1
 278 209 l 1,7,-1
 185 155 l 1,8,-1
 145 16 l 2,9,10
 142 4 142 4 123 0 c 0,11,12
 113 0 113 0 100 10 c 1,13,-1
 96 30 l 1,14,-1
 245 561 l 1,15,-1
 130 526 l 2,16,17
 129 526 129 526 127.5 525.5 c 128,-1,18
 126 525 126 525 124.5 524.5 c 128,-1,19
 123 524 123 524 121 524 c 0,20,21
 112 524 112 524 106 529 c 0,22,23
 97 538 97 538 97 551 c 0,24,25
 97 569 97 569 115 575 c 2,26,-1
 322 640 l 1,27,-1
 205 229 l 1,28,-1
 324 297 l 2,29,30
 354 314 354 314 390 339 c 2,31,-1
 420 361 l 1,32,-1
 446 384 l 1,33,-1
 460 370 l 1,34,35
 454 364 454 364 447 364 c 0,36,37
 441 364 441 364 432 370 c 0,38,39
 429 371 429 371 422 396 c 1,40,41
 422 414 422 414 432 424 c 0,42,43
 441 434 441 434 464 435 c 0,44,45
 482 435 482 435 495 426 c 0,46,47
 507 417 507 417 508 394 c 0,48,49
 508 377 508 377 500 365 c 0,50,51
 493 353 493 353 480 344 c 0,52,53
 465 332 465 332 437 311 c 128,-1,54
 409 290 409 290 399 282 c 2,55,-1
 324 237 l 1,56,-1
 442 60 l 2,57,58
 448 50 448 50 457 44 c 1,59,-1
 472 42 l 2,60,61
 477 44 477 44 480 49 c 2,62,-1
 497 77 l 2,63,64
 503 92 503 92 520 93 c 0,65,66
 527 93 527 93 530 91 c 0,67,68
 533 90 533 90 538 83 c 0,69,70
 541 82 541 82 546 62 c 1,0,1
EndSplineSet
EndChar

StartChar: l
Encoding: 108 108 80
Width: 600
GlyphClass: 2
Flags: W
LayerCount: 2
Fore
SplineSet
486 140 m 1,0,1
 486 129 486 129 477 120 c 2,2,-1
 371 40 l 1,3,4
 297 -5 297 -5 255 -6 c 0,5,6
 238 -6 238 -6 229 -2 c 0,7,8
 221 1 221 1 213 9 c 0,9,10
 197 25 197 25 194 29 c 0,11,12
 185 45 185 45 183 70 c 0,13,14
 183 92 183 92 185 96 c 2,15,-1
 192 119 l 1,16,-1
 343 527 l 1,17,-1
 166 476 l 2,18,19
 165 476 165 476 163.5 475.5 c 128,-1,20
 162 475 162 475 160.5 474.5 c 128,-1,21
 159 474 159 474 157 474 c 0,22,23
 148 474 148 474 142 479 c 0,24,25
 133 488 133 488 133 501 c 0,26,27
 133 519 133 519 151 525 c 2,28,-1
 426 608 l 1,29,-1
 240 102 l 1,30,-1
 235 68 l 2,31,32
 235 54 235 54 245 48 c 2,33,-1
 258 44 l 1,34,35
 276 44 276 44 342 83 c 1,36,-1
 392 117 l 1,37,-1
 418 135 l 1,38,-1
 448 160 l 1,39,-1
 459 164 l 2,40,41
 470 164 470 164 478 156 c 2,42,-1
 486 140 l 1,0,1
EndSplineSet
EndChar

StartChar: m
Encoding: 109 109 81
Width: 600
GlyphClass: 2
Flags: W
LayerCount: 2
Fore
SplineSet
571 330 m 1,0,-1
 566 299 l 2,1,2
 566 290 566 290 561 278 c 0,3,4
 558 263 558 263 552 245 c 2,5,-1
 520 154 l 1,6,-1
 505 98 l 1,7,-1
 500 69 l 1,8,-1
 498 48 l 1,9,-1
 500 40 l 1,10,-1
 510 46 l 1,11,-1
 522 67 l 2,12,13
 522 70 522 70 541 80 c 1,14,15
 566 80 566 80 567 54 c 1,16,-1
 563 42 l 1,17,18
 552 24 552 24 543 15 c 0,19,20
 532 2 532 2 529 0 c 0,21,22
 519 -6 519 -6 499 -13 c 1,23,24
 474 -13 474 -13 460 8 c 0,25,26
 451 26 451 26 451 56 c 0,27,28
 451 89 451 89 452 97 c 0,29,30
 454 113 454 113 460 131 c 2,31,-1
 463 147 l 1,32,-1
 472 169 l 1,33,-1
 504 270 l 2,34,35
 519 318 519 318 519 376 c 0,36,37
 520 391 520 391 508 391 c 0,38,39
 478 391 478 391 424 352 c 0,40,41
 397 334 397 334 380 317 c 0,42,43
 367 304 367 304 360 287 c 2,44,-1
 293 13 l 2,45,46
 290 -5 290 -5 268 -6 c 0,47,48
 257 -6 257 -6 251 -1 c 0,49,50
 247 2 247 2 241 22 c 1,51,-1
 285 200 l 1,52,-1
 307 301 l 1,53,-1
 319 369 l 1,54,55
 316 377 316 377 299 380 c 0,56,57
 272 380 272 380 230 351 c 0,58,59
 210 336 210 336 197 321 c 256,60,61
 184 306 184 306 176 289 c 2,62,-1
 137 156 l 1,63,-1
 98 16 l 2,64,65
 92 -2 92 -2 73 -3 c 0,66,67
 64 -3 64 -3 52 6 c 1,68,-1
 46 24 l 2,69,70
 47 29 47 29 48.5 39.5 c 128,-1,71
 50 50 50 50 51 55 c 0,72,73
 56 76 56 76 62 95 c 0,74,75
 65 109 65 109 71 129 c 0,76,77
 72 133 72 133 74.5 140.5 c 128,-1,78
 77 148 77 148 79.5 155 c 128,-1,79
 82 162 82 162 84 168 c 0,80,81
 131 322 131 322 133 359 c 0,82,83
 133 378 133 378 126 379 c 0,84,85
 115 379 115 379 110 378 c 0,86,87
 106 378 106 378 93 375 c 1,88,-1
 77 362 l 1,89,-1
 62 357 l 1,90,91
 38 357 38 357 37 378 c 0,92,93
 37 388 37 388 46 399 c 0,94,95
 50 404 50 404 57 410 c 0,96,97
 63 414 63 414 78 422 c 1,98,-1
 100 427 l 1,99,-1
 124 428 l 2,100,101
 154 428 154 428 167 413 c 0,102,103
 178 399 178 399 180 373 c 1,104,-1
 181 380 l 1,105,106
 200 404 200 404 233 420 c 0,107,108
 265 434 265 434 300 436 c 0,109,110
 336 436 336 436 355 413 c 0,111,112
 356 412 356 412 357 410 c 128,-1,113
 358 408 358 408 360 404 c 128,-1,114
 362 400 362 400 363 397 c 0,115,116
 366 389 366 389 368 369 c 2,117,-1
 368 362 l 1,118,-1
 384 380 l 2,119,120
 396 390 396 390 404 396 c 0,121,122
 407 398 407 398 414 402.5 c 128,-1,123
 421 407 421 407 426 410 c 0,124,125
 475 437 475 437 506 438 c 0,126,127
 561 438 561 438 571 374 c 1,128,-1
 571 330 l 1,0,-1
EndSplineSet
EndChar

StartChar: n
Encoding: 110 110 82
Width: 600
GlyphClass: 2
Flags: W
LayerCount: 2
Fore
SplineSet
576 89 m 0,0,1
 576 77 576 77 567 68 c 0,2,3
 545 42 545 42 538 35 c 0,4,5
 524 21 524 21 518 16 c 0,6,7
 485 -8 485 -8 444 -8 c 0,8,9
 390 -8 390 -8 388 55 c 0,10,11
 388 101 388 101 434 221 c 0,12,13
 478 340 478 340 480 370 c 0,14,15
 480 388 480 388 462 390 c 0,16,17
 426 390 426 390 335 321 c 0,18,19
 289 285 289 285 249 247 c 0,20,21
 214 213 214 213 169 162 c 1,22,-1
 127 16 l 2,23,24
 124 -2 124 -2 98 -3 c 0,25,26
 79 -3 79 -3 75 25 c 1,27,-1
 116 159 l 1,28,-1
 133 225 l 1,29,-1
 147 281 l 2,30,31
 150 301 150 301 153 321 c 0,32,33
 155 333 155 333 157 358 c 2,34,-1
 157 371 l 2,35,36
 157 379 157 379 152 380 c 0,37,38
 131 380 131 380 114 370 c 1,39,-1
 71 329 l 1,40,-1
 57 323 l 1,41,42
 33 323 33 323 29 348 c 0,43,44
 29 360 29 360 38 369 c 0,45,46
 47 382 47 382 57 392 c 0,47,48
 64 399 64 399 76 408 c 0,49,50
 96 420 96 420 113 426 c 0,51,52
 131 432 131 432 157 432 c 0,53,54
 206 432 206 432 207 362 c 0,55,56
 207 346 207 346 206 335 c 0,57,58
 206 318 206 318 202 301 c 2,59,-1
 192 260 l 1,60,61
 249 318 249 318 316 369 c 0,62,63
 411 441 411 441 471 443 c 0,64,65
 495 443 495 443 513 424 c 0,66,67
 531 406 531 406 531 367 c 0,68,69
 531 344 531 344 520 310 c 0,70,71
 511 275 511 275 484 207 c 0,72,73
 442 93 442 93 440 59 c 0,74,75
 440 45 440 45 450 42 c 0,76,77
 462 42 462 42 482 52 c 1,78,-1
 529 101 l 2,79,80
 540 113 540 113 552 113 c 0,81,82
 576 113 576 113 576 89 c 0,0,1
EndSplineSet
EndChar

StartChar: o
Encoding: 111 111 83
Width: 600
GlyphClass: 2
Flags: W
LayerCount: 2
Fore
SplineSet
535 285 m 2,0,-1
 534 260 l 2,1,2
 534 251 534 251 533 247 c 0,3,4
 533 242 533 242 526 229 c 0,5,6
 514 180 514 180 485 138 c 0,7,8
 458 96 458 96 410 57 c 0,9,10
 320 -18 320 -18 220 -20 c 2,11,-1
 198 -20 l 1,12,-1
 178 -16 l 2,13,14
 121 -1 121 -1 92 43 c 0,15,16
 80 62 80 62 70 88 c 0,17,18
 65 109 65 109 63 136 c 0,19,20
 63 220 63 220 123 300 c 0,21,22
 171 363 171 363 240 401 c 0,23,24
 307 437 307 437 373 437 c 2,25,-1
 394 436 l 2,26,27
 453 436 453 436 496 389 c 0,28,29
 535 348 535 348 535 285 c 2,0,-1
481 288 m 0,30,31
 481 314 481 314 476 326 c 0,32,33
 473 339 473 339 460 352 c 0,34,35
 440 372 440 372 389 384 c 1,36,-1
 371 385 l 2,37,38
 323 385 323 385 267 357 c 0,39,40
 213 330 213 330 163 268 c 0,41,42
 116 207 116 207 114 136 c 0,43,44
 114 100 114 100 132 71 c 0,45,46
 149 45 149 45 190 36 c 2,47,-1
 224 31 l 1,48,49
 292 31 292 31 373 96 c 0,50,51
 454 162 454 162 476 242 c 0,52,53
 477 248 477 248 478 256 c 128,-1,54
 479 264 479 264 480 267 c 0,55,56
 480 278 480 278 481 288 c 0,30,31
EndSplineSet
EndChar

StartChar: p
Encoding: 112 112 84
Width: 600
GlyphClass: 2
Flags: W
LayerCount: 2
Fore
SplineSet
585 282 m 1,0,-1
 584 257 l 2,1,2
 584 244 584 244 576 227 c 0,3,4
 552 131 552 131 458 52 c 0,5,6
 366 -23 366 -23 268 -25 c 2,7,-1
 246 -25 l 1,8,-1
 226 -22 l 2,9,10
 209 -18 209 -18 192 -10 c 0,11,12
 180 -4 180 -4 164 8 c 0,13,14
 152 20 152 20 137 38 c 1,15,-1
 100 -148 l 1,16,-1
 218 -148 l 2,17,18
 242 -148 242 -148 242 -176 c 0,19,20
 242 -200 242 -200 218 -200 c 2,21,-1
 24 -200 l 2,22,23
 3 -200 3 -200 -1 -174 c 0,24,25
 -1 -157 -1 -157 22 -148 c 1,26,-1
 46 -148 l 1,27,-1
 143 331 l 1,28,-1
 145 354 l 2,29,30
 145 377 145 377 127 389 c 1,31,-1
 114 392 l 2,32,33
 105 392 105 392 95 385 c 0,34,35
 87 380 87 380 81 366 c 0,36,37
 78 348 78 348 57 345 c 0,38,39
 50 345 50 345 46 346 c 0,40,41
 42 348 42 348 34 356 c 1,42,-1
 30 374 l 1,43,44
 33 390 33 390 41 402 c 0,45,46
 47 412 47 412 62 425 c 0,47,48
 88 443 88 443 116 443 c 0,49,50
 132 443 132 443 145 438 c 0,51,52
 173 429 173 429 186 404 c 0,53,54
 198 380 198 380 198 351 c 2,55,-1
 195 323 l 1,56,-1
 189 295 l 1,57,-1
 172 302 l 1,58,59
 221 366 221 366 289 402 c 0,60,61
 353 435 353 435 421 437 c 1,62,-1
 442 436 l 2,63,64
 507 430 507 430 545 388 c 0,65,66
 583 347 583 347 585 282 c 1,0,-1
531 285 m 0,67,68
 531 369 531 369 437 384 c 1,69,-1
 419 385 l 2,70,71
 394 385 394 385 369 378 c 0,72,73
 347 373 347 373 313 357 c 0,74,75
 264 331 264 331 210 267 c 0,76,77
 201 255 201 255 192 240 c 0,78,79
 190 236 190 236 183 223 c 128,-1,80
 176 210 176 210 172 201 c 0,81,82
 160 158 160 158 160 132 c 0,83,84
 160 92 160 92 177 67 c 0,85,86
 195 43 195 43 237 31 c 1,87,-1
 272 26 l 1,88,89
 341 26 341 26 423 93 c 0,90,91
 506 161 506 161 525 239 c 0,92,93
 531 264 531 264 531 285 c 0,67,68
EndSplineSet
EndChar

StartChar: q
Encoding: 113 113 85
Width: 600
GlyphClass: 2
Flags: W
LayerCount: 2
Fore
SplineSet
583 396 m 2,0,-1
 579 384 l 1,1,-1
 544 341 l 1,2,-1
 399 -165 l 1,3,-1
 462 -167 l 2,4,5
 483 -167 483 -167 487 -191 c 1,6,7
 487 -218 487 -218 460 -219 c 2,8,-1
 330 -214 l 1,9,-1
 409 66 l 1,10,11
 377 36 377 36 328 8 c 0,12,13
 263 -24 263 -24 202 -26 c 2,14,-1
 180 -26 l 1,15,-1
 160 -22 l 2,16,17
 103 -7 103 -7 73 38 c 0,18,19
 61 57 61 57 51 83 c 0,20,21
 46 105 46 105 44 132 c 0,22,23
 44 221 44 221 105 298 c 0,24,25
 155 365 155 365 224 400 c 0,26,27
 292 435 292 435 356 437 c 1,28,-1
 377 436 l 2,29,30
 461 428 461 428 497 366 c 1,31,-1
 498 369 l 1,32,-1
 539 417 l 2,33,34
 540 420 540 420 556 424 c 0,35,36
 566 424 566 424 573 418 c 0,37,38
 578 414 578 414 581 407 c 0,39,40
 582 405 582 405 582 401 c 0,41,42
 583 398 583 398 583 396 c 2,0,-1
465 287 m 0,43,44
 465 327 465 327 444 351 c 0,45,46
 422 372 422 372 372 384 c 1,47,-1
 354 385 l 2,48,49
 304 385 304 385 249 356 c 0,50,51
 199 331 199 331 146 266 c 0,52,53
 95 203 95 203 95 132 c 0,54,55
 95 93 95 93 113 66 c 0,56,57
 131 40 131 40 172 30 c 1,58,-1
 206 26 l 1,59,60
 274 26 274 26 357 92 c 0,61,62
 438 158 438 158 459 239 c 0,63,64
 465 266 465 266 465 287 c 0,43,44
EndSplineSet
EndChar

StartChar: r
Encoding: 114 114 86
Width: 600
GlyphClass: 2
Flags: W
LayerCount: 2
Fore
SplineSet
570 300 m 0,0,1
 570 276 570 276 552 255 c 0,2,3
 535 241 535 241 512 239 c 0,4,5
 497 239 497 239 476 253 c 0,6,7
 461 266 461 266 460 293 c 0,8,9
 460 312 460 312 474 320 c 2,10,-1
 486 328 l 2,11,12
 489 329 489 329 494.5 331 c 128,-1,13
 500 333 500 333 503 334 c 0,14,15
 518 334 518 334 527 322 c 2,16,-1
 538 295 l 1,17,-1
 519 293 l 1,18,19
 519 332 519 332 497 360 c 0,20,21
 476 387 476 387 441 387 c 0,22,23
 387 387 387 387 311 299 c 0,24,25
 303 289 303 289 281 256 c 0,26,27
 268 238 268 238 250 210 c 1,28,-1
 211 49 l 1,29,-1
 322 49 l 2,30,31
 344 49 344 49 348 24 c 0,32,33
 348 0 348 0 322 -3 c 2,34,-1
 63 -3 l 2,35,36
 42 -3 42 -3 38 23 c 0,37,38
 38 39 38 39 61 49 c 1,39,-1
 157 49 l 1,40,-1
 189 198 l 1,41,42
 203 290 203 290 205 320 c 0,43,44
 205 355 205 355 197 371 c 0,45,46
 190 388 190 388 173 390 c 0,47,48
 161 390 161 390 150 383 c 2,49,-1
 121 354 l 1,50,-1
 106 349 l 1,51,-1
 91 353 l 1,52,-1
 80 375 l 1,53,-1
 86 392 l 1,54,55
 97 404 97 404 111 418 c 0,56,57
 123 428 123 428 132 433 c 0,58,59
 152 441 152 441 177 443 c 0,60,61
 222 443 222 443 245 399 c 0,62,63
 257 372 257 372 257 309 c 1,64,65
 264 320 264 320 281 340 c 128,-1,66
 298 360 298 360 312 373 c 0,67,68
 378 439 378 439 438 439 c 0,69,70
 494 439 494 439 532 401 c 0,71,72
 568 364 568 364 570 300 c 0,0,1
EndSplineSet
EndChar

StartChar: s
Encoding: 115 115 87
Width: 600
GlyphClass: 2
Flags: W
LayerCount: 2
Fore
SplineSet
527 332 m 0,0,1
 527 314 527 314 512 298 c 0,2,3
 510 297 510 297 496 289 c 0,4,5
 489 287 489 287 473 285 c 0,6,7
 461 285 461 285 435 298 c 1,8,9
 417 312 417 312 415 334 c 0,10,11
 415 341 415 341 428 364 c 1,12,-1
 440 374 l 2,13,14
 448 379 448 379 459 381 c 0,15,16
 471 381 471 381 479 373 c 1,17,-1
 465 361 l 1,18,19
 458 368 458 368 448 373 c 0,20,21
 440 378 440 378 423 383 c 2,22,-1
 392 389 l 1,23,-1
 361 392 l 1,24,25
 296 392 296 392 252 368 c 2,26,-1
 225 355 l 1,27,-1
 206 341 l 1,28,-1
 192 323 l 2,29,30
 190 318 190 318 188 305 c 2,31,-1
 189 295 l 2,32,33
 188 284 188 284 201.5 275.5 c 128,-1,34
 215 267 215 267 244 261 c 2,35,-1
 378 240 l 1,36,37
 460 219 460 219 486 163 c 1,38,-1
 489 147 l 1,39,40
 489 95 489 95 402 40 c 0,41,42
 369 22 369 22 330 7 c 0,43,44
 306 1 306 1 289 -2 c 0,45,46
 278 -4 278 -4 256 -6 c 0,47,48
 171 -6 171 -6 114 33 c 1,49,50
 69 69 69 69 68 125 c 0,51,52
 68 139 68 139 83 157 c 0,53,54
 97 171 97 171 122 173 c 0,55,56
 143 173 143 173 158 159 c 0,57,58
 174 146 174 146 175 124 c 0,59,60
 175 105 175 105 167 93 c 128,-1,61
 159 81 159 81 139 75 c 1,62,-1
 121 76 l 2,63,64
 105 80 105 80 96 100 c 1,65,-1
 114 107 l 1,66,67
 122 81 122 81 161 62 c 0,68,69
 208 41 208 41 255 41 c 2,70,-1
 266 41 l 1,71,-1
 284 42 l 1,72,-1
 311 51 l 2,73,74
 339 57 339 57 380 85 c 0,75,76
 446 124 446 124 437 149 c 1,77,78
 433 178 433 178 294 196 c 0,79,80
 156 214 156 214 137 290 c 1,81,-1
 136 304 l 2,82,83
 136 345 136 345 170 378 c 0,84,85
 186 393 186 393 227 414 c 0,86,87
 282 438 282 438 357 440 c 0,88,89
 420 440 420 440 471 416 c 0,90,91
 499 404 499 404 513 381 c 2,92,-1
 521 363 l 2,93,94
 527 351 527 351 527 332 c 0,0,1
EndSplineSet
EndChar

StartChar: t
Encoding: 116 116 88
Width: 600
GlyphClass: 2
Flags: W
LayerCount: 2
Fore
SplineSet
548 166 m 0,0,1
 548 158 548 158 546 154 c 0,2,3
 545 150 545 150 537 144 c 2,4,-1
 423 68 l 2,5,6
 417 64 417 64 408.5 59 c 128,-1,7
 400 54 400 54 394 50 c 128,-1,8
 388 46 388 46 383 43 c 0,9,10
 373 37 373 37 350.5 25 c 128,-1,11
 328 13 328 13 320 9 c 0,12,13
 275 -11 275 -11 236 -13 c 0,14,15
 214 -13 214 -13 203 -7 c 0,16,17
 182 1 182 1 159 29 c 0,18,19
 158 31 158 31 148 56 c 0,20,21
 145 69 145 69 145 84 c 0,22,23
 145 100 145 100 149 115 c 2,24,-1
 229 383 l 1,25,-1
 57 383 l 2,26,27
 36 383 36 383 32 409 c 0,28,29
 32 425 32 425 55 435 c 1,30,-1
 244 435 l 1,31,-1
 300 621 l 2,32,33
 306 639 306 639 324 639 c 0,34,35
 331 639 331 639 334 637 c 0,36,37
 336 636 336 636 342 630 c 0,38,39
 346 626 346 626 350 607 c 1,40,-1
 299 435 l 1,41,-1
 513 435 l 2,42,43
 535 435 535 435 539 410 c 0,44,45
 539 386 539 386 513 383 c 2,46,-1
 284 383 l 1,47,-1
 199 101 l 1,48,-1
 196 82 l 2,49,50
 196 58 196 58 222 42 c 1,51,-1
 237 38 l 1,52,53
 265 38 265 38 344 82 c 2,54,-1
 415 125 l 1,55,-1
 510 188 l 1,56,-1
 526 193 l 1,57,-1
 534 188 l 2,58,59
 537 185 537 185 538 183 c 0,60,61
 544 174 544 174 548 166 c 0,0,1
EndSplineSet
EndChar

StartChar: u
Encoding: 117 117 89
Width: 600
GlyphClass: 2
Flags: W
LayerCount: 2
Fore
SplineSet
585 50 m 0,0,1
 585 42 585 42 573 30 c 0,2,3
 557 14 557 14 523 0 c 0,4,5
 490 -15 490 -15 472 -15 c 0,6,7
 433 -15 433 -15 408 7 c 0,8,9
 390 28 390 28 390 64 c 0,10,11
 390 101 390 101 409 157 c 2,12,-1
 413 169 l 1,13,-1
 348 106 l 2,14,15
 299 59 299 59 244 21 c 0,16,17
 191 -14 191 -14 151 -16 c 0,18,19
 113 -16 113 -16 92 5 c 0,20,21
 74 26 74 26 74 63 c 0,22,23
 74 118 74 118 116 232 c 0,24,25
 157 343 157 343 159 368 c 0,26,27
 159 383 159 383 149 383 c 0,28,29
 137 383 137 383 130 381 c 0,30,31
 119 379 119 379 115 376 c 0,32,33
 109 374 109 374 96 363 c 0,34,35
 81 352 81 352 66 338 c 1,36,-1
 48 331 l 2,37,38
 39 331 39 331 31 335 c 0,39,40
 26 339 26 339 23 352 c 1,41,-1
 26 363 l 1,42,-1
 34 376 l 1,43,44
 50 390 50 390 60 397 c 0,45,46
 63 399 63 399 75 405.5 c 128,-1,47
 87 412 87 412 94 417 c 0,48,49
 97 418 97 418 107 422 c 128,-1,50
 117 426 117 426 122 428 c 0,51,52
 125 429 125 429 133.5 431.5 c 128,-1,53
 142 434 142 434 147 436 c 0,54,55
 180 436 180 436 195 418 c 128,-1,56
 210 400 210 400 210 369 c 0,57,58
 210 323 210 323 169 209 c 0,59,60
 131 97 131 97 129 63 c 0,61,62
 129 36 129 36 152 35 c 0,63,64
 182 35 182 35 253 88 c 0,65,66
 315 136 315 136 374 195 c 0,67,68
 425 241 425 241 437 260 c 1,69,-1
 472 354 l 2,70,71
 478 372 478 372 481 387 c 0,72,73
 482 391 482 391 483 396 c 128,-1,74
 484 401 484 401 484.5 405 c 128,-1,75
 485 409 485 409 486 412 c 0,76,77
 486 430 486 430 510 433 c 1,78,-1
 527 425 l 1,79,-1
 537 407 l 1,80,81
 532 378 532 378 524 348 c 0,82,83
 518 317 518 317 505 280 c 2,84,-1
 464 153 l 1,85,-1
 450 100 l 1,86,-1
 445 62 l 2,87,88
 445 34 445 34 465 33 c 0,89,90
 480 33 480 33 495 37 c 0,91,92
 512 42 512 42 543 68 c 1,93,-1
 559 74 l 1,94,95
 584 74 584 74 585 50 c 0,0,1
EndSplineSet
EndChar

StartChar: v
Encoding: 118 118 90
Width: 600
GlyphClass: 2
Flags: W
LayerCount: 2
Fore
SplineSet
557 364 m 1,0,-1
 556 338 l 1,1,-1
 554 315 l 1,2,3
 554 247 554 247 497 173 c 0,4,5
 486 156 486 156 428 104 c 0,6,7
 378 61 378 61 310 24 c 0,8,9
 248 -8 248 -8 201 -10 c 0,10,11
 170 -10 170 -10 138 13 c 1,12,13
 118 36 118 36 116 83 c 0,14,15
 116 103 116 103 117 114 c 0,16,17
 119 134 119 134 128 163 c 0,18,19
 139 202 139 202 166 265 c 2,20,-1
 187 311 l 1,21,-1
 202 348 l 1,22,-1
 207 369 l 2,23,24
 207 385 207 385 199 393 c 0,25,26
 196 394 196 394 184 397 c 0,27,28
 168 397 168 397 135 379 c 1,29,-1
 109 359 l 1,30,-1
 96 373 l 1,31,32
 99 376 99 376 105 376 c 0,33,34
 115 376 115 376 120 371 c 0,35,36
 131 365 131 365 136 344 c 1,37,38
 136 326 136 326 124 309 c 0,39,40
 112 294 112 294 89 294 c 0,41,42
 75 294 75 294 61 305 c 0,43,44
 49 316 49 316 47 338 c 0,45,46
 47 349 47 349 52 358 c 0,47,48
 67 396 67 396 109 420 c 0,49,50
 146 441 146 441 187 443 c 0,51,52
 217 443 217 443 238 426 c 1,53,-1
 253 396 l 1,54,-1
 258 367 l 1,55,56
 258 342 258 342 234 287 c 2,57,-1
 214 246 l 1,58,59
 181 143 181 143 179 93 c 0,60,61
 179 52 179 52 209 50 c 0,62,63
 236 50 236 50 282 75 c 2,64,-1
 329 101 l 1,65,-1
 395 145 l 2,66,67
 437 177 437 177 471 225 c 0,68,69
 472 226 472 226 473.5 229 c 128,-1,70
 475 232 475 232 477.5 236.5 c 128,-1,71
 480 241 480 241 482 246 c 0,72,73
 487 256 487 256 493 272 c 0,74,75
 496 283 496 283 499 295 c 128,-1,76
 502 307 502 307 502 318 c 2,77,-1
 503 348 l 2,78,79
 503 368 503 368 505 372 c 2,80,-1
 502 398 l 2,81,82
 502 402 502 402 501 406 c 1,83,84
 503 406 503 406 510 398 c 1,85,-1
 510 411 l 1,86,-1
 510 402 l 1,87,-1
 508 394 l 2,88,89
 502 361 502 361 470 361 c 0,90,91
 407 361 407 361 406 423 c 0,92,93
 406 447 406 447 429 464 c 0,94,95
 438 468 438 468 450 473 c 0,96,97
 459 475 459 475 473 477 c 0,98,99
 493 477 493 477 506 470 c 0,100,101
 517 466 517 466 534 446 c 0,102,103
 540 437 540 437 546 425 c 0,104,105
 546 424 546 424 547 421.5 c 128,-1,106
 548 419 548 419 549 416 c 128,-1,107
 550 413 550 413 551 410 c 2,108,-1
 556 386 l 1,109,-1
 557 364 l 1,0,-1
EndSplineSet
EndChar

StartChar: w
Encoding: 119 119 91
Width: 600
GlyphClass: 2
Flags: W
LayerCount: 2
Fore
SplineSet
568 305 m 0,0,1
 568 196 568 196 513 104 c 0,2,3
 450 -10 450 -10 364 -10 c 0,4,5
 316 -10 316 -10 296 29 c 1,6,-1
 287 73 l 1,7,-1
 255 30 l 1,8,9
 217 -5 217 -5 164 -7 c 0,10,11
 124 -7 124 -7 96 34 c 0,12,13
 78 64 78 64 78 101 c 2,14,-1
 79 130 l 1,15,-1
 85 170 l 2,16,17
 88 189 88 189 95 211 c 0,18,19
 103 240 103 240 112 263 c 2,20,-1
 138 357 l 1,21,-1
 126 351 l 1,22,-1
 91 329 l 2,23,24
 86 323 86 323 79 323 c 0,25,26
 73 323 73 323 64 328 c 0,27,28
 52 337 52 337 51 351 c 0,29,30
 51 360 51 360 60 370 c 0,31,32
 108 406 108 406 141 408 c 0,33,34
 172 408 172 408 183 388 c 0,35,36
 184 386 184 386 187 374 c 0,37,38
 190 364 190 364 190 353 c 2,39,-1
 146 208 l 1,40,-1
 131 142 l 2,41,42
 125 114 125 114 125 98 c 2,43,-1
 130 73 l 2,44,45
 136 58 136 58 145 49 c 0,46,47
 151 43 151 43 166 41 c 0,48,49
 212 41 212 41 247 97 c 0,50,51
 295 174 295 174 295 235 c 0,52,53
 295 253 295 253 321 257 c 1,54,55
 348 257 348 257 349 227 c 1,56,-1
 334 152 l 1,57,-1
 329 97 l 2,58,59
 329 70 329 70 339 51 c 0,60,61
 349 38 349 38 365 37 c 0,62,63
 419 37 419 37 473 134 c 1,64,65
 515 219 515 219 517 305 c 0,66,67
 517 328 517 328 512 356 c 1,68,69
 501 347 501 347 479 345 c 0,70,71
 458 345 458 345 436 361 c 0,72,73
 429 368 429 368 422 382 c 1,74,-1
 418 406 l 1,75,76
 418 433 418 433 437 449 c 0,77,78
 456 463 456 463 480 465 c 0,79,80
 522 465 522 465 546 419 c 0,81,82
 554 399 554 399 562 369 c 0,83,84
 568 342 568 342 568 305 c 0,0,1
EndSplineSet
EndChar

StartChar: x
Encoding: 120 120 92
Width: 600
GlyphClass: 2
Flags: W
LayerCount: 2
Fore
SplineSet
565 354 m 0,0,1
 565 330 565 330 549 305 c 0,2,3
 531 281 531 281 503 281 c 0,4,5
 488 281 488 281 475 289 c 0,6,7
 461 298 461 298 453 312 c 0,8,9
 448 323 448 323 446 344 c 1,10,-1
 448 361 l 2,11,12
 450 368 450 368 459 380 c 1,13,-1
 455 380 l 2,14,15
 434 380 434 380 411 367 c 0,16,17
 390 352 390 352 365 324 c 0,18,19
 326 273 326 273 324 206 c 1,20,-1
 327 141 l 2,21,22
 328 114 328 114 330 108 c 0,23,24
 332 101 332 101 337 92 c 0,25,26
 350 41 350 41 380 40 c 2,27,-1
 393 39 l 2,28,29
 411 39 411 39 443 65 c 0,30,31
 455 77 455 77 464 92 c 0,32,33
 474 109 474 109 482 130 c 0,34,35
 485 142 485 142 503 145 c 0,36,37
 517 145 517 145 526 133 c 0,38,39
 532 128 532 128 532 121 c 0,40,41
 532 116 532 116 530 110 c 0,42,43
 512 61 512 61 479 28 c 0,44,45
 440 -11 440 -11 388 -13 c 1,46,-1
 372 -12 l 1,47,48
 331 -2 331 -2 305 36 c 0,49,50
 291 57 291 57 284 88 c 1,51,52
 267 61 267 61 236 33 c 0,53,54
 203 6 203 6 151 -6 c 1,55,-1
 136 -7 l 2,56,57
 95 -7 95 -7 62 17 c 0,58,59
 32 41 32 41 31 84 c 0,60,61
 31 109 31 109 47 132 c 0,62,63
 64 156 64 156 94 156 c 0,64,65
 101 156 101 156 106 154 c 0,66,67
 114 154 114 154 122 150 c 0,68,69
 149 129 149 129 150 95 c 1,70,-1
 146 73 l 1,71,-1
 129 51 l 2,72,73
 127 49 127 49 120 46 c 1,74,75
 126 45 126 45 133 44 c 2,76,-1
 145 45 l 2,77,78
 186 45 186 45 224 98 c 0,79,80
 237 119 237 119 249 148 c 0,81,82
 259 171 259 171 269 212 c 2,83,-1
 274 245 l 1,84,-1
 276 279 l 2,85,86
 276 324 276 324 257 356 c 0,87,88
 240 380 240 380 215 382 c 0,89,90
 192 382 192 382 171 364 c 0,91,92
 151 350 151 350 130 303 c 0,93,94
 126 291 126 291 106 282 c 1,95,96
 85 282 85 282 81 311 c 0,97,98
 81 325 81 325 87 337 c 0,99,100
 97 359 97 359 109 375 c 0,101,102
 121 390 121 390 138 407 c 1,103,104
 176 434 176 434 231 434 c 1,105,106
 270 426 270 426 297 395 c 0,107,108
 306 382 306 382 317 344 c 1,109,110
 336 371 336 371 365 396 c 0,111,112
 402 423 402 423 449 432 c 1,113,-1
 467 433 l 2,114,115
 504 433 504 433 535 412 c 0,116,117
 565 393 565 393 565 354 c 0,0,1
EndSplineSet
EndChar

StartChar: y
Encoding: 121 121 93
Width: 600
GlyphClass: 2
Flags: W
LayerCount: 2
Fore
SplineSet
582 396 m 2,0,-1
 426 -84 l 2,1,2
 405 -153 405 -153 344 -192 c 0,3,4
 285 -230 285 -230 206 -232 c 0,5,6
 116 -232 116 -232 79 -212 c 0,7,8
 34 -187 34 -187 33 -124 c 0,9,10
 33 -97 33 -97 54 -79 c 1,11,-1
 72 -71 l 2,12,13
 76 -69 76 -69 84 -67 c 0,14,15
 93 -67 93 -67 99 -65 c 0,16,17
 123 -65 123 -65 145 -78 c 0,18,19
 166 -92 166 -92 166 -124 c 0,20,21
 166 -142 166 -142 152 -164 c 0,22,23
 147 -171 147 -171 120 -181 c 1,24,25
 84 -181 84 -181 84 -137 c 1,26,-1
 103 -137 l 1,27,28
 103 -154 103 -154 126 -167 c 1,29,30
 153 -176 153 -176 209 -178 c 0,31,32
 270 -178 270 -178 314 -150 c 0,33,34
 335 -138 335 -138 350 -117 c 0,35,36
 363 -100 363 -100 376 -69 c 2,37,-1
 436 118 l 1,38,39
 358 54 358 54 335 40 c 0,40,41
 249 -16 249 -16 196 -18 c 0,42,43
 142 -18 142 -18 118 6 c 0,44,45
 94 27 94 27 94 74 c 0,46,47
 94 125 94 125 143 238 c 0,48,49
 190 349 190 349 192 371 c 0,50,51
 192 378 192 378 186 379 c 0,52,53
 166 379 166 379 138 365 c 0,54,55
 126 359 126 359 111 350 c 0,56,57
 98 344 98 344 82 331 c 1,58,-1
 68 325 l 1,59,60
 43 325 43 325 42 350 c 0,61,62
 44 356 44 356 46 360 c 0,63,64
 50 368 50 368 53 373 c 0,65,66
 66 383 66 383 114 414 c 1,67,-1
 157 430 l 2,68,69
 180 436 180 436 196 436 c 0,70,71
 216 436 216 436 231 420 c 0,72,73
 246 406 246 406 246 383 c 0,74,75
 246 343 246 343 199 227 c 0,76,77
 154 113 154 113 152 74 c 0,78,79
 152 56 152 56 161 43 c 0,80,81
 170 37 170 37 191 35 c 0,82,83
 228 35 228 35 301 81 c 2,84,-1
 357 119 l 1,85,-1
 416 169 l 1,86,-1
 469 217 l 1,87,-1
 533 411 l 2,88,89
 536 422 536 422 554 427 c 0,90,91
 567 427 567 427 575 419 c 0,92,93
 582 416 582 416 583 405 c 0,94,95
 583 398 583 398 582 396 c 2,0,-1
EndSplineSet
EndChar

StartChar: z
Encoding: 122 122 94
Width: 600
GlyphClass: 2
Flags: W
LayerCount: 2
Fore
SplineSet
535 399 m 1,0,-1
 512 382 l 1,1,-1
 450 281 l 2,2,3
 409 212 409 212 303 192 c 1,4,5
 211 180 211 180 160 107 c 1,6,-1
 104 10 l 1,7,-1
 89 21 l 1,8,-1
 94 26 l 1,9,-1
 92 28 l 1,10,-1
 88 27 l 1,11,-1
 80 44 l 1,12,-1
 123 67 l 2,13,14
 169 94 169 94 205 96 c 0,15,16
 229 96 229 96 244 89 c 0,17,18
 259 84 259 84 282 66 c 0,19,20
 301 53 301 53 305 51 c 0,21,22
 315 44 315 44 321 42 c 2,23,-1
 339 38 l 1,24,-1
 374 38 l 2,25,26
 391 38 391 38 408 45 c 0,27,28
 417 51 417 51 419 53 c 2,29,-1
 421 52 l 1,30,-1
 424 53 l 2,31,32
 416 53 416 53 396 63 c 1,33,34
 381 78 381 78 380 104 c 0,35,36
 380 134 380 134 400 151 c 0,37,38
 421 169 421 169 446 169 c 0,39,40
 470 169 470 169 487 155 c 0,41,42
 503 142 503 142 507 111 c 1,43,44
 507 69 507 69 467 29 c 0,45,46
 428 -10 428 -10 373 -11 c 0,47,48
 325 -11 325 -11 304 -4 c 0,49,50
 280 2 280 2 253 23 c 0,51,52
 227 43 227 43 204 45 c 0,53,54
 185 45 185 45 149 22 c 2,55,-1
 101 -3 l 1,56,-1
 86 -10 l 1,57,-1
 44 28 l 1,58,-1
 66 44 l 1,59,60
 91 111 91 111 144 169 c 0,61,62
 196 224 196 224 284 240 c 0,63,64
 370 255 370 255 408 309 c 1,65,66
 460 401 460 401 477 419 c 1,67,-1
 490 406 l 1,68,-1
 484 400 l 1,69,-1
 486 398 l 1,70,-1
 490 400 l 1,71,-1
 499 383 l 1,72,-1
 433 351 l 1,73,-1
 403 344 l 1,74,-1
 371 341 l 1,75,-1
 356 341 l 1,76,-1
 328 346 l 2,77,78
 306 350 306 350 295 354 c 0,79,80
 274 362 274 362 260 368 c 2,81,-1
 238 376 l 1,82,-1
 223 380 l 1,83,-1
 211 382 l 2,84,85
 205 382 205 382 205 384 c 0,86,87
 205 387 205 387 215 396 c 1,88,89
 209 396 209 396 208 395 c 1,90,91
 212 391 212 391 220 382 c 0,92,93
 228 371 228 371 236 349 c 1,94,95
 236 325 236 325 221 304 c 0,96,97
 207 285 207 285 180 284 c 0,98,99
 166 284 166 284 156 289 c 0,100,101
 147 294 147 294 134 305 c 1,102,103
 119 326 119 326 119 351 c 0,104,105
 119 394 119 394 147 413 c 0,106,107
 175 431 175 431 212 432 c 2,108,-1
 229 431 l 1,109,-1
 254 426 l 1,110,-1
 286 412 l 1,111,-1
 310 405 l 1,112,-1
 341 396 l 1,113,-1
 376 392 l 1,114,-1
 400 393 l 2,115,116
 403 393 403 393 418 399 c 2,117,-1
 475 428 l 1,118,-1
 491 438 l 1,119,-1
 535 399 l 1,0,-1
EndSplineSet
EndChar

StartChar: braceleft
Encoding: 123 123 95
Width: 600
GlyphClass: 2
Flags: W
LayerCount: 2
Fore
SplineSet
422 -65 m 0,0,1
 422 -89 422 -89 397 -92 c 0,2,3
 347 -92 347 -92 315 -70 c 0,4,5
 286 -50 286 -50 274 6 c 1,6,-1
 275 57 l 1,7,-1
 276 102 l 1,8,-1
 276 125 l 1,9,-1
 274 158 l 1,10,-1
 270 184 l 1,11,-1
 263 212 l 2,12,13
 260 226 260 226 212 254 c 1,14,-1
 158 276 l 1,15,-1
 158 322 l 1,16,-1
 212 344 l 2,17,18
 254 365 254 365 264 390 c 1,19,-1
 273 442 l 1,20,-1
 276 498 l 1,21,-1
 275 541 l 1,22,-1
 274 593 l 2,23,24
 274 615 274 615 282 631 c 0,25,26
 289 647 289 647 295 654 c 0,27,28
 299 659 299 659 310 667 c 0,29,30
 312 668 312 668 325 673 c 2,31,-1
 348 684 l 1,32,33
 371 689 371 689 396 691 c 0,34,35
 418 691 418 691 422 666 c 0,36,37
 422 642 422 642 398 638 c 2,38,-1
 363 635 l 2,39,40
 346 632 346 632 341 627 c 0,41,42
 326 617 326 617 324 591 c 2,43,-1
 324 545 l 1,44,-1
 325 502 l 1,45,-1
 323 439 l 2,46,47
 323 411 323 411 313 381 c 0,48,49
 304 346 304 346 282 323 c 0,50,51
 274 315 274 315 268 311 c 0,52,53
 266 309 266 309 249 300 c 1,54,55
 271 289 271 289 283 277 c 0,56,57
 303 257 303 257 311 223 c 2,58,-1
 316 197 l 1,59,-1
 322 161 l 1,60,-1
 325 98 l 1,61,-1
 324 59 l 1,62,-1
 324 21 l 1,63,-1
 324 8 l 2,64,65
 324 -9 324 -9 343 -27 c 1,66,67
 364 -39 364 -39 397 -39 c 0,68,69
 418 -39 418 -39 422 -65 c 0,0,1
EndSplineSet
EndChar

StartChar: bar
Encoding: 124 124 96
Width: 600
GlyphClass: 2
Flags: W
LayerCount: 2
Fore
SplineSet
327 -81 m 2,0,1
 327 -111 327 -111 301 -117 c 1,2,3
 274 -117 274 -117 273 -81 c 2,4,-1
 273 681 l 2,5,6
 273 710 273 710 298 716 c 1,7,8
 319 716 319 716 326 684 c 1,9,-1
 327 -81 l 2,0,1
EndSplineSet
EndChar

StartChar: braceright
Encoding: 125 125 97
Width: 600
GlyphClass: 2
Flags: W
LayerCount: 2
Fore
SplineSet
438 276 m 1,0,-1
 383 254 l 2,1,2
 339 235 339 235 333 210 c 2,3,-1
 324 155 l 1,4,-1
 321 98 l 1,5,-1
 321 53 l 1,6,-1
 322 6 l 2,7,8
 322 -36 322 -36 280 -71 c 0,9,10
 265 -80 265 -80 244 -86 c 0,11,12
 224 -92 224 -92 199 -92 c 0,13,14
 178 -92 178 -92 175 -66 c 0,15,16
 175 -48 175 -48 197 -39 c 1,17,-1
 232 -36 l 2,18,19
 242 -34 242 -34 244 -32 c 0,20,21
 248 -32 248 -32 254 -27 c 0,22,23
 272 -16 272 -16 272 8 c 2,24,-1
 271 53 l 1,25,-1
 271 97 l 1,26,-1
 271 129 l 2,27,28
 271 158 271 158 273 163 c 2,29,-1
 276 187 l 1,30,-1
 284 224 l 2,31,32
 290 254 290 254 312 276 c 1,33,-1
 347 298 l 1,34,-1
 315 320 l 1,35,36
 294 341 294 341 285 375 c 2,37,-1
 274 438 l 1,38,-1
 271 503 l 1,39,-1
 271 545 l 1,40,-1
 272 591 l 2,41,42
 272 608 272 608 253 626 c 1,43,44
 232 638 232 638 199 638 c 0,45,46
 178 638 178 638 175 665 c 0,47,48
 175 681 175 681 197 691 c 1,49,50
 247 691 247 691 278 669 c 0,51,52
 308 649 308 649 322 593 c 1,53,-1
 321 541 l 1,54,-1
 320 497 l 1,55,-1
 320 467 l 1,56,-1
 321 443 l 2,57,58
 321 434 321 434 324 418 c 0,59,60
 326 409 326 409 330 393 c 0,61,62
 336 366 336 366 401 335 c 1,63,-1
 438 322 l 1,64,-1
 438 276 l 1,0,-1
EndSplineSet
EndChar

StartChar: asciitilde
Encoding: 126 126 98
Width: 600
GlyphClass: 2
Flags: W
LayerCount: 2
Fore
SplineSet
552 343 m 1,0,1
 552 286 552 286 514 242 c 0,2,3
 478 200 478 200 421 200 c 0,4,5
 369 200 369 200 316 249 c 0,6,7
 263 299 263 299 231 324 c 0,8,9
 199 348 199 348 185 350 c 0,10,11
 157 350 157 350 124 323 c 1,12,13
 100 296 100 296 98 259 c 0,14,15
 98 235 98 235 72 235 c 0,16,17
 50 235 50 235 46 259 c 1,18,19
 46 312 46 312 86 355 c 0,20,21
 126 397 126 397 186 399 c 0,22,23
 241 399 241 399 316 321 c 0,24,25
 385 249 385 249 418 249 c 0,26,27
 452 249 452 249 477 275 c 0,28,29
 501 305 501 305 501 341 c 0,30,31
 501 363 501 363 526 364 c 0,32,33
 543 364 543 364 552 343 c 1,0,1
EndSplineSet
EndChar

StartChar: exclamdown
Encoding: 161 161 100
Width: 600
GlyphClass: 2
Flags: W
LayerCount: 2
Fore
SplineSet
375 350 m 1,0,1
 375 310 375 310 355 290 c 0,2,3
 344 278 344 278 332 271 c 0,4,5
 323 268 323 268 300 266 c 0,6,7
 267 266 267 266 246 290 c 128,-1,8
 225 314 225 314 225 349 c 0,9,10
 225 381 225 381 244 406 c 0,11,12
 263 430 263 430 300 431 c 0,13,14
 336 431 336 431 356 405 c 2,15,-1
 364 393 l 1,16,-1
 371 377 l 1,17,-1
 375 350 l 1,0,1
366 -95 m 1,18,19
 366 -128 366 -128 346 -148 c 0,20,21
 329 -166 329 -166 300 -168 c 0,22,23
 274 -168 274 -168 253 -146 c 0,24,25
 236 -126 236 -126 234 -94 c 0,26,27
 234 -87 234 -87 237 -75 c 0,28,29
 241 -63 241 -63 250 -45 c 0,30,31
 262 -21 262 -21 270 26 c 2,32,-1
 279 123 l 1,33,-1
 281 185 l 1,34,-1
 319 185 l 1,35,-1
 323 119 l 1,36,-1
 333 27 l 2,37,38
 333 -2 333 -2 356 -58 c 1,39,-1
 366 -95 l 1,18,19
EndSplineSet
EndChar

StartChar: cent
Encoding: 162 162 101
Width: 600
GlyphClass: 2
Flags: W
LayerCount: 2
Fore
SplineSet
327 -81 m 2,0,1
 327 -111 327 -111 301 -117 c 1,2,3
 273 -117 273 -117 273 -81 c 2,4,-1
 273 502 l 2,5,6
 273 531 273 531 298 537 c 1,7,8
 319 537 319 537 326 505 c 1,9,-1
 327 -81 l 2,0,1
551 336 m 0,10,11
 551 288 551 288 524 253 c 0,12,13
 497 220 497 220 457 220 c 0,14,15
 430 220 430 220 408 235 c 0,16,17
 387 250 387 250 387 279 c 0,18,19
 387 311 387 311 407 328 c 0,20,21
 428 346 428 346 456 346 c 0,22,23
 482 346 482 346 498 335 c 0,24,25
 516 324 516 324 516 302 c 2,26,-1
 514 291 l 1,27,-1
 496 295 l 1,28,-1
 501 311 l 1,29,-1
 503 325 l 2,30,31
 503 341 503 341 493 352 c 0,32,33
 485 363 485 363 449 381 c 1,34,-1
 416 386 l 1,35,-1
 380 389 l 1,36,37
 277 389 277 389 187 314 c 0,38,39
 101 239 101 239 99 140 c 0,40,41
 99 90 99 90 133 62 c 0,42,43
 167 35 167 35 228 34 c 0,44,45
 304 34 304 34 366 55 c 128,-1,46
 428 76 428 76 474 124 c 1,47,-1
 495 134 l 1,48,49
 514 134 514 134 518 110 c 1,50,-1
 513 96 l 1,51,52
 495 69 495 69 465 48 c 0,53,54
 438 29 438 29 389 11 c 0,55,56
 314 -16 314 -16 228 -18 c 0,57,58
 149 -18 149 -18 98 23 c 0,59,60
 47 65 47 65 47 138 c 0,61,62
 47 258 47 258 151 355 c 1,63,64
 249 439 249 439 381 440 c 2,65,-1
 403 440 l 2,66,67
 418 440 418 440 427 438 c 0,68,69
 442 438 442 438 466 429 c 0,70,71
 502 420 502 420 531 391 c 0,72,73
 538 382 538 382 545 366 c 0,74,75
 551 352 551 352 551 336 c 0,10,11
EndSplineSet
EndChar

StartChar: sterling
Encoding: 163 163 102
Width: 600
GlyphClass: 2
Flags: W
LayerCount: 2
Fore
SplineSet
568 503 m 0,0,1
 568 477 568 477 552 455 c 0,2,3
 537 434 537 434 505 434 c 0,4,5
 478 434 478 434 467 445 c 0,6,7
 452 457 452 457 451 489 c 0,8,9
 451 510 451 510 467 525 c 0,10,11
 481 537 481 537 501 539 c 0,12,13
 534 539 534 539 535 504 c 1,14,-1
 516 503 l 1,15,16
 516 524 516 524 492 539 c 128,-1,17
 468 554 468 554 433 554 c 0,18,19
 395 554 395 554 357 519 c 0,20,21
 321 486 321 486 313 449 c 2,22,-1
 302 384 l 1,23,-1
 426 384 l 2,24,25
 451 384 451 384 452 359 c 0,26,27
 452 335 452 335 426 332 c 2,28,-1
 294 332 l 1,29,-1
 246 41 l 2,30,31
 243 9 243 9 210 -12 c 1,32,-1
 181 -23 l 1,33,-1
 152 -28 l 1,34,35
 98 -28 98 -28 74 -8 c 0,36,37
 62 2 62 2 56 16 c 0,38,39
 50 28 50 28 50 49 c 0,40,41
 50 85 50 85 80 106 c 1,42,43
 112 120 112 120 148 122 c 0,44,45
 169 122 169 122 198 106 c 0,46,47
 225 92 225 92 269 58 c 0,48,49
 278 51 278 51 295 43 c 1,50,-1
 319 38 l 1,51,52
 346 38 346 38 365 44 c 2,53,-1
 391 55 l 2,54,55
 399 60 399 60 425 100 c 1,56,57
 428 115 428 115 447 115 c 0,58,59
 453 115 453 115 466 105 c 0,60,61
 469 98 469 98 471 79 c 1,62,63
 462 56 462 56 449 39 c 0,64,65
 438 25 438 25 419 11 c 0,66,67
 400 0 400 0 376 -7 c 0,68,69
 354 -12 354 -12 323 -14 c 0,70,71
 278 -14 278 -14 220 31 c 0,72,73
 172 73 172 73 148 70 c 0,74,75
 123 70 123 70 113 65 c 0,76,77
 103 62 103 62 102 49 c 0,78,79
 102 37 102 37 118 28 c 1,80,-1
 153 24 l 2,81,82
 167 24 167 24 179 30 c 128,-1,83
 191 36 191 36 194 50 c 2,84,-1
 240 332 l 1,85,-1
 127 332 l 2,86,87
 106 332 106 332 102 358 c 0,88,89
 102 374 102 374 125 384 c 1,90,-1
 248 384 l 1,91,-1
 261 459 l 2,92,93
 270 512 270 512 318 556 c 0,94,95
 368 604 368 604 433 606 c 0,96,97
 487 606 487 606 522 584 c 0,98,99
 566 556 566 556 568 503 c 0,0,1
EndSplineSet
EndChar

StartChar: currency
Encoding: 164 164 103
Width: 600
GlyphClass: 2
Flags: W
LayerCount: 2
Fore
SplineSet
393 300 m 0,0,1
 393 342 393 342 365 367 c 0,2,3
 338 394 338 394 300 394 c 0,4,5
 259 394 259 394 233 369 c 0,6,7
 206 348 206 348 206 300 c 0,8,9
 206 258 206 258 234 229 c 0,10,11
 258 208 258 208 300 206 c 0,12,13
 339 206 339 206 365 231 c 0,14,15
 391 255 391 255 393 300 c 0,0,1
486 138 m 1,16,-1
 477 122 l 1,17,-1
 467 114 l 1,18,-1
 461 113 l 2,19,20
 447 113 447 113 441 119 c 2,21,-1
 382 178 l 1,22,23
 348 155 348 155 300 155 c 0,24,25
 257 155 257 155 217 180 c 1,26,-1
 154 118 l 1,27,-1
 140 112 l 1,28,29
 127 112 127 112 119 120 c 1,30,-1
 112 136 l 1,31,32
 112 148 112 148 120 155 c 2,33,-1
 179 215 l 1,34,35
 156 249 156 249 155 300 c 0,36,37
 155 347 155 347 180 383 c 1,38,-1
 119 444 l 1,39,-1
 112 457 l 1,40,41
 112 469 112 469 120 477 c 0,42,43
 127 486 127 486 139 486 c 0,44,45
 148 486 148 486 156 478 c 2,46,-1
 215 419 l 1,47,48
 252 445 252 445 300 445 c 0,49,50
 332 445 332 445 353 437 c 0,51,52
 368 432 368 432 384 420 c 1,53,-1
 442 479 l 1,54,-1
 457 486 l 1,55,56
 468 486 468 486 476 478 c 0,57,58
 485 472 485 472 485 459 c 0,59,60
 485 450 485 450 477 442 c 2,61,-1
 420 385 l 1,62,63
 444 350 444 350 444 300 c 0,64,65
 444 253 444 253 418 215 c 1,66,-1
 478 154 l 1,67,-1
 486 138 l 1,16,-1
EndSplineSet
EndChar

StartChar: yen
Encoding: 165 165 104
Width: 600
GlyphClass: 2
Flags: W
LayerCount: 2
Fore
SplineSet
588 577 m 0,0,1
 588 553 588 553 562 550 c 2,2,-1
 531 550 l 1,3,-1
 530 547 l 1,4,-1
 328 269 l 1,5,-1
 250 50 l 1,6,-1
 376 50 l 2,7,8
 398 50 398 50 402 25 c 0,9,10
 402 1 402 1 376 -2 c 2,11,-1
 33 -2 l 2,12,13
 12 -2 12 -2 8 24 c 0,14,15
 8 40 8 40 31 50 c 1,16,-1
 196 50 l 1,17,-1
 274 266 l 1,18,-1
 157 548 l 1,19,-1
 121 548 l 2,20,21
 100 548 100 548 96 574 c 0,22,23
 96 590 96 590 119 600 c 1,24,-1
 281 600 l 2,25,26
 303 600 303 600 307 575 c 0,27,28
 307 551 307 551 281 548 c 2,29,-1
 213 548 l 1,30,-1
 304 322 l 1,31,-1
 467 550 l 1,32,-1
 399 550 l 2,33,34
 377 550 377 550 373 576 c 0,35,36
 373 593 373 593 397 602 c 1,37,-1
 562 602 l 2,38,39
 584 602 584 602 588 577 c 0,0,1
482 199 m 0,40,41
 482 175 482 175 456 172 c 2,42,-1
 118 172 l 2,43,44
 97 172 97 172 93 198 c 0,45,46
 93 215 93 215 116 224 c 1,47,-1
 456 224 l 2,48,49
 478 224 478 224 482 199 c 0,40,41
EndSplineSet
EndChar

StartChar: brokenbar
Encoding: 166 166 105
Width: 600
GlyphClass: 2
Flags: W
LayerCount: 2
Fore
SplineSet
327 396 m 2,0,1
 327 376 327 376 320 366 c 0,2,3
 315 359 315 359 302 352 c 1,4,5
 292 352 292 352 282 363 c 0,6,7
 273 374 273 374 273 396 c 2,8,-1
 273 603 l 2,9,10
 273 638 273 638 297 646 c 0,11,12
 306 646 306 646 315 637 c 0,13,14
 323 629 323 629 326 607 c 2,15,-1
 327 396 l 2,0,1
327 -3 m 2,16,17
 327 -23 327 -23 320 -33 c 0,18,19
 315 -41 315 -41 302 -47 c 1,20,21
 292 -47 292 -47 282 -36 c 0,22,23
 273 -26 273 -26 273 -3 c 2,24,-1
 273 204 l 2,25,26
 273 240 273 240 297 247 c 0,27,28
 306 247 306 247 315 238 c 0,29,30
 323 230 323 230 326 208 c 2,31,-1
 327 -3 l 2,16,17
EndSplineSet
EndChar

StartChar: section
Encoding: 167 167 106
Width: 600
GlyphClass: 2
Flags: W
LayerCount: 2
Fore
SplineSet
287 247 m 1,0,-1
 298 247 l 1,1,-1
 315 248 l 1,2,-1
 340 256 l 2,3,4
 367 262 367 262 406 289 c 0,5,6
 469 326 469 326 460 349 c 1,7,8
 456 377 456 377 324 394 c 0,9,10
 193 411 193 411 175 483 c 1,11,-1
 174 497 l 2,12,13
 174 536 174 536 206 567 c 0,14,15
 222 581 222 581 261 601 c 0,16,17
 313 624 313 624 384 626 c 0,18,19
 444 626 444 626 492 603 c 0,20,21
 519 592 519 592 532 570 c 2,22,-1
 540 553 l 2,23,24
 546 541 546 541 546 523 c 0,25,26
 546 506 546 506 531 491 c 0,27,28
 529 490 529 490 516 482 c 0,29,30
 509 480 509 480 494 479 c 0,31,32
 483 479 483 479 458 491 c 1,33,34
 441 504 441 504 439 525 c 0,35,36
 439 532 439 532 451 554 c 1,37,-1
 463 563 l 2,38,39
 470 568 470 568 481 570 c 0,40,41
 492 570 492 570 500 562 c 1,42,-1
 487 551 l 1,43,44
 480 557 480 557 470 562 c 0,45,46
 463 567 463 567 447 572 c 2,47,-1
 417 577 l 1,48,-1
 388 580 l 1,49,50
 326 580 326 580 284 557 c 2,51,-1
 259 545 l 1,52,-1
 241 532 l 1,53,-1
 227 515 l 2,54,55
 225 510 225 510 223 498 c 2,56,-1
 224 488 l 2,57,58
 223 478 223 478 236 470 c 128,-1,59
 249 462 249 462 277 456 c 2,60,-1
 404 436 l 1,61,62
 482 416 482 416 507 363 c 1,63,-1
 509 348 l 1,64,65
 509 298 509 298 427 246 c 0,66,67
 395 229 395 229 358 214 c 0,68,69
 336 209 336 209 319 206 c 0,70,71
 309 204 309 204 288 202 c 1,72,73
 288 202 288 202 287 247 c 1,0,-1
177 279 m 1024,74,-1
346 392 m 1,75,76
 281 392 281 392 237 368 c 2,77,-1
 210 355 l 1,78,-1
 191 341 l 1,79,-1
 177 323 l 2,80,81
 175 318 175 318 173 305 c 2,82,-1
 174 295 l 2,83,84
 173 284 173 284 186.5 275.5 c 128,-1,85
 200 267 200 267 229 261 c 2,86,-1
 363 240 l 1,87,88
 445 219 445 219 471 163 c 1,89,-1
 474 147 l 1,90,91
 474 95 474 95 387 40 c 0,92,93
 354 22 354 22 315 7 c 0,94,95
 291 1 291 1 274 -2 c 0,96,97
 263 -4 263 -4 241 -6 c 0,98,99
 156 -6 156 -6 99 33 c 1,100,101
 54 69 54 69 53 125 c 0,102,103
 53 139 53 139 68 157 c 0,104,105
 82 171 82 171 107 173 c 0,106,107
 128 173 128 173 143 159 c 0,108,109
 159 146 159 146 160 124 c 0,110,111
 160 105 160 105 152 93 c 128,-1,112
 144 81 144 81 124 75 c 1,113,-1
 106 76 l 2,114,115
 90 80 90 80 81 100 c 1,116,-1
 99 107 l 1,117,118
 107 81 107 81 146 62 c 0,119,120
 193 41 193 41 240 41 c 2,121,-1
 251 41 l 1,122,-1
 269 42 l 1,123,-1
 296 51 l 2,124,125
 324 57 324 57 365 85 c 0,126,127
 431 124 431 124 422 149 c 1,128,129
 418 178 418 178 279 196 c 0,130,131
 141 214 141 214 122 290 c 1,132,-1
 121 304 l 2,133,134
 121 345 121 345 155 378 c 0,135,136
 171 393 171 393 212 414 c 0,137,138
 267 438 267 438 342 440 c 1,139,140
 342 440 342 440 346 392 c 1,75,76
506 363 m 1024,141,142
425 374 m 1024,143,144
EndSplineSet
EndChar

StartChar: dieresis
Encoding: 168 168 107
Width: 600
GlyphClass: 2
Flags: W
LayerCount: 2
Fore
SplineSet
550 686 m 1,0,1
 550 653 550 653 528 631 c 0,2,3
 518 622 518 622 502 615 c 0,4,5
 492 612 492 612 468 610 c 0,6,7
 433 610 433 610 409 631 c 0,8,9
 389 651 389 651 387 685 c 0,10,11
 387 715 387 715 407 738 c 0,12,13
 427 758 427 758 468 760 c 0,14,15
 488 760 488 760 503 754 c 0,16,17
 515 750 515 750 529 736 c 2,18,-1
 537 726 l 1,19,-1
 545 711 l 1,20,-1
 550 686 l 1,0,1
218 686 m 1,21,22
 218 650 218 650 196 631 c 0,23,24
 188 622 188 622 171 615 c 0,25,26
 161 612 161 612 137 610 c 0,27,28
 100 610 100 610 77 632 c 0,29,30
 56 653 56 653 55 685 c 0,31,32
 55 714 55 714 75 737 c 0,33,34
 96 758 96 758 137 760 c 0,35,36
 176 760 176 760 197 736 c 2,37,-1
 206 726 l 1,38,-1
 214 711 l 1,39,-1
 218 686 l 1,21,22
EndSplineSet
EndChar

StartChar: copyright
Encoding: 169 169 108
Width: 410
GlyphClass: 2
Flags: W
LayerCount: 2
Fore
SplineSet
-90 333.5 m 128,-1,1
 -90 212 -90 212 -3.5 126.5 c 128,-1,2
 83 41 83 41 205.5 41 c 128,-1,3
 328 41 328 41 414.5 126.5 c 128,-1,4
 501 212 501 212 501 333.5 c 128,-1,5
 501 455 501 455 414.5 540.5 c 128,-1,6
 328 626 328 626 205.5 626 c 128,-1,7
 83 626 83 626 -3.5 540.5 c 128,-1,0
 -90 455 -90 455 -90 333.5 c 128,-1,1
-130 332.5 m 128,-1,9
 -130 470 -130 470 -31.5 568 c 128,-1,10
 67 666 67 666 206 666 c 128,-1,11
 345 666 345 666 443.5 568 c 128,-1,12
 542 470 542 470 542 332.5 c 128,-1,13
 542 195 542 195 443.5 97.5 c 128,-1,14
 345 0 345 0 206 0 c 128,-1,15
 67 0 67 0 -31.5 97.5 c 128,-1,8
 -130 195 -130 195 -130 332.5 c 128,-1,9
390 501 m 1,16,-1
 387 494 l 1,17,18
 370 471 370 471 365 450 c 2,19,-1
 356 376 l 1,20,-1
 316 374 l 1,21,-1
 322 421 l 2,22,23
 322 447 322 447 313 466 c 0,24,25
 304 483 304 483 284 492 c 0,26,27
 283 492 283 492 268 495 c 0,28,29
 265 496 265 496 255 498 c 0,30,31
 214 498 214 498 174 461 c 0,32,33
 140 432 140 432 108 386 c 0,34,35
 93 366 93 366 76 319 c 0,36,37
 63 277 63 277 61 240 c 0,38,39
 61 210 61 210 72 187 c 0,40,41
 81 168 81 168 108 157 c 0,42,43
 110 156 110 156 114 154.5 c 128,-1,44
 118 153 118 153 120 153 c 0,45,46
 127 153 127 153 132 152 c 0,47,48
 171 152 171 152 219 184 c 0,49,50
 267 215 267 215 271 241 c 0,51,52
 275 253 275 253 288 253 c 0,53,54
 295 253 295 253 299 250 c 0,55,56
 302 247 302 247 306 234 c 1,57,58
 300 214 300 214 284 193 c 0,59,60
 267 171 267 171 240 152 c 0,61,62
 187 114 187 114 130 114 c 2,63,-1
 111 115 l 2,64,65
 102 115 102 115 92 120 c 0,66,67
 55 134 55 134 38 168 c 0,68,69
 32 179 32 179 26 200 c 0,70,71
 22 218 22 218 22 240 c 2,72,-1
 23 260 l 2,73,74
 23 273 23 273 26 288 c 0,75,76
 28 305 28 305 32 310 c 2,77,-1
 40 335 l 1,78,-1
 47 357 l 1,79,-1
 55 375 l 1,80,-1
 75 407 l 1,81,82
 125 475 125 475 173 508 c 0,83,84
 215 536 215 536 255 536 c 0,85,86
 278 536 278 536 296 527 c 0,87,88
 304 524 304 524 311 519 c 0,89,90
 321 514 321 514 327 507 c 0,91,92
 330 504 330 504 334 498 c 0,93,94
 335 497 335 497 336 495.5 c 128,-1,95
 337 494 337 494 338.5 491.5 c 128,-1,96
 340 489 340 489 341 487 c 2,97,-1
 345 495 l 1,98,-1
 358 515 l 2,99,100
 360 522 360 522 371 523 c 0,101,102
 388 523 388 523 390 501 c 1,16,-1
EndSplineSet
EndChar

StartChar: ordfeminine
Encoding: 170 170 109
Width: 413
GlyphClass: 2
Flags: W
LayerCount: 2
Fore
SplineSet
386 669 m 1,0,-1
 381 661 l 1,1,2
 362 646 362 646 321 560 c 0,3,4
 284 478 284 478 283 447 c 1,5,-1
 280 441 l 1,6,-1
 280 434 l 2,7,8
 280 426 280 426 285 421 c 0,9,10
 290 417 290 417 303 417 c 0,11,12
 309 417 309 417 324 430 c 2,13,-1
 334 442 l 1,14,-1
 345 458 l 2,15,16
 349 464 349 464 362 465 c 1,17,-1
 366 463 l 1,18,-1
 373 459 l 2,19,20
 376 458 376 458 379 448 c 1,21,-1
 377 440 l 1,22,-1
 348 405 l 2,23,24
 328 383 328 383 300 381 c 0,25,26
 273 381 273 381 256 393 c 0,27,28
 243 404 243 404 242 424 c 2,29,-1
 242 435 l 2,30,31
 242 443 242 443 246 450 c 2,32,-1
 256 476 l 1,33,-1
 269 471 l 1,34,35
 241 437 241 437 196 410 c 0,36,37
 153 386 153 386 117 384 c 2,38,-1
 110 384 l 1,39,-1
 103 385 l 2,40,41
 69 391 69 391 49 420 c 0,42,43
 41 433 41 433 36 447 c 0,44,45
 33 460 33 460 31 478 c 0,46,47
 31 538 31 538 74 593 c 0,48,49
 88 610 88 610 109 631 c 0,50,51
 124 645 124 645 149 663 c 0,52,53
 188 691 188 691 226 691 c 2,54,-1
 236 690 l 2,55,56
 267 690 267 690 292 666 c 0,57,58
 306 652 306 652 316 628 c 1,59,-1
 327 648 l 1,60,-1
 352 683 l 2,61,62
 356 689 356 689 364 690 c 0,63,64
 372 690 372 690 377 685 c 0,65,66
 382 683 382 683 386 669 c 1,0,-1
290 592 m 0,67,68
 290 615 290 615 275 630 c 0,69,70
 262 644 262 644 230 650 c 2,71,-1
 223 651 l 2,72,73
 199 651 199 651 168 630 c 128,-1,74
 137 609 137 609 106 571 c 0,75,76
 89 551 89 551 80 529 c 0,77,78
 73 508 73 508 71 484 c 0,79,80
 71 460 71 460 81 444 c 0,81,82
 90 431 90 431 115 424 c 2,83,-1
 121 423 l 2,84,85
 144 423 144 423 186 444 c 0,86,87
 225 465 225 465 257 501 c 0,88,89
 265 511 265 511 277 547 c 0,90,91
 288 580 288 580 290 592 c 0,67,68
EndSplineSet
EndChar

StartChar: guillemotleft
Encoding: 171 171 110
Width: 600
GlyphClass: 2
Flags: W
LayerCount: 2
Fore
SplineSet
556 111 m 0,0,1
 556 100 556 100 550 93 c 0,2,3
 546 87 546 87 531 87 c 1,4,-1
 206 300 l 1,5,-1
 529 516 l 2,6,7
 530 516 530 516 538 518 c 0,8,9
 544 518 544 518 548 513 c 0,10,11
 555 507 555 507 556 494 c 0,12,13
 556 489 556 489 546 471 c 1,14,-1
 291 300 l 1,15,-1
 545 133 l 2,16,17
 554 126 554 126 556 111 c 0,0,1
388 111 m 0,18,19
 388 100 388 100 383 93 c 0,20,21
 379 87 379 87 364 87 c 1,22,-1
 39 300 l 1,23,-1
 362 516 l 2,24,25
 363 516 363 516 370 518 c 0,26,27
 376 518 376 518 381 513 c 0,28,29
 388 507 388 507 388 494 c 0,30,31
 388 489 388 489 380 471 c 1,32,-1
 124 300 l 1,33,-1
 378 133 l 2,34,35
 387 126 387 126 388 111 c 0,18,19
EndSplineSet
EndChar

StartChar: logicalnot
Encoding: 172 172 111
Width: 600
GlyphClass: 2
Flags: W
LayerCount: 2
Fore
SplineSet
467 157 m 2,0,1
 467 136 467 136 442 133 c 0,2,3
 420 133 420 133 416 157 c 1,4,-1
 416 267 l 1,5,-1
 162 267 l 2,6,7
 141 267 141 267 137 292 c 0,8,9
 137 309 137 309 160 316 c 1,10,-1
 467 316 l 1,11,-1
 467 157 l 2,0,1
EndSplineSet
EndChar

StartChar: uni00AD
Encoding: 173 173 112
Width: 600
GlyphClass: 2
Flags: W
LayerCount: 2
Fore
SplineSet
540 302 m 1,0,1
 540 274 540 274 505 273 c 2,2,-1
 93 273 l 2,3,4
 65 273 65 273 59 299 c 1,5,6
 59 318 59 318 90 327 c 1,7,-1
 505 327 l 2,8,9
 534 327 534 327 540 302 c 1,0,1
EndSplineSet
EndChar

StartChar: registered
Encoding: 174 174 113
Width: 420
GlyphClass: 2
Flags: W
LayerCount: 2
Fore
SplineSet
-90 334.5 m 128,-1,1
 -90 213 -90 213 -3.5 127.5 c 128,-1,2
 83 42 83 42 205.5 42 c 128,-1,3
 328 42 328 42 414.5 127.5 c 128,-1,4
 501 213 501 213 501 334.5 c 128,-1,5
 501 456 501 456 414.5 541.5 c 128,-1,6
 328 627 328 627 205.5 627 c 128,-1,7
 83 627 83 627 -3.5 541.5 c 128,-1,0
 -90 456 -90 456 -90 334.5 c 128,-1,1
-130 333.5 m 128,-1,9
 -130 471 -130 471 -31.5 569 c 128,-1,10
 67 667 67 667 206 667 c 128,-1,11
 345 667 345 667 443.5 569 c 128,-1,12
 542 471 542 471 542 333.5 c 128,-1,13
 542 196 542 196 443.5 98.5 c 128,-1,14
 345 1 345 1 206 1 c 128,-1,15
 67 1 67 1 -31.5 98.5 c 128,-1,8
 -130 196 -130 196 -130 333.5 c 128,-1,9
412 469 m 0,16,17
 412 438 412 438 404 419 c 0,18,19
 402 412 402 412 395 402 c 0,20,21
 391 394 391 394 379 381 c 2,22,-1
 360 366 l 1,23,-1
 338 352 l 2,24,25
 332 349 332 349 320 345 c 0,26,27
 318 344 318 344 310 342 c 128,-1,28
 302 340 302 340 296 338 c 1,29,30
 299 335 299 335 302.5 331 c 128,-1,31
 306 327 306 327 307 326 c 0,32,33
 307 325 307 325 315 315 c 0,34,35
 318 308 318 308 320 298 c 2,36,-1
 320 297 l 2,37,38
 320 288 320 288 323 276 c 2,39,-1
 325 256 l 1,40,-1
 328 232 l 1,41,-1
 325 204 l 1,42,-1
 321 187 l 1,43,-1
 350 187 l 2,44,45
 365 187 365 187 368 168 c 0,46,47
 368 150 368 150 350 148 c 2,48,-1
 267 148 l 1,49,-1
 276 172 l 1,50,-1
 285 201 l 1,51,-1
 288 232 l 1,52,-1
 288 239 l 1,53,-1
 288 244 l 1,54,-1
 286 252 l 1,55,-1
 284 269 l 2,56,57
 279 301 279 301 278 302 c 2,58,-1
 248 333 l 1,59,-1
 140 333 l 1,60,-1
 98 187 l 1,61,-1
 149 187 l 2,62,63
 164 187 164 187 166 168 c 0,64,65
 166 150 166 150 148 148 c 2,66,-1
 17 148 l 2,67,68
 3 147 3 147 0 167 c 0,69,70
 0 179 0 179 15 187 c 1,71,-1
 58 187 l 1,72,-1
 152 512 l 1,73,-1
 103 512 l 2,74,75
 89 511 89 511 86 531 c 0,76,77
 86 543 86 543 102 551 c 1,78,-1
 299 551 l 2,79,80
 343 551 343 551 374 534 c 0,81,82
 412 513 412 513 412 469 c 0,16,17
373 467 m 2,83,84
 373 488 373 488 353 499 c 0,85,86
 332 510 332 510 297 512 c 2,87,-1
 192 512 l 1,88,-1
 152 373 l 1,89,-1
 256 373 l 1,90,-1
 287 375 l 1,91,-1
 297 377 l 1,92,-1
 311 381 l 2,93,94
 334 389 334 389 352 407 c 0,95,96
 357 411 357 411 360 418 c 0,97,98
 364 427 364 427 366 432 c 2,99,-1
 371 449 l 1,100,-1
 373 467 l 2,83,84
EndSplineSet
EndChar

StartChar: macron
Encoding: 175 175 114
Width: 600
GlyphClass: 2
Flags: W
LayerCount: 2
Fore
SplineSet
540 692 m 5,0,1
 540 664 540 664 505 663 c 6,2,-1
 93 663 l 6,3,4
 65 663 65 663 59 689 c 5,5,6
 59 708 59 708 90 717 c 5,7,-1
 505 717 l 6,8,9
 534 717 534 717 540 692 c 5,0,1
EndSplineSet
EndChar

StartChar: degree
Encoding: 176 176 115
Width: 600
GlyphClass: 2
Flags: W
LayerCount: 2
Fore
SplineSet
448 569 m 0,0,1
 448 499 448 499 402 457 c 0,2,3
 361 419 361 419 300 419 c 0,4,5
 247 419 247 419 199 457 c 0,6,7
 151 494 151 494 151 569 c 0,8,9
 151 631 151 631 194 675 c 128,-1,10
 237 719 237 719 300 719 c 0,11,12
 356 719 356 719 402 680 c 128,-1,13
 448 641 448 641 448 569 c 0,0,1
396 569 m 0,14,15
 396 612 396 612 367 638 c 0,16,17
 338 665 338 665 300 666 c 0,18,19
 260 667 260 667 231 641 c 0,20,21
 203 615 203 615 203 569 c 0,22,23
 203 530 203 530 233 495 c 1,24,25
 259 472 259 472 300 472 c 0,26,27
 339 472 339 472 367 497 c 0,28,29
 396 522 396 522 396 569 c 0,14,15
EndSplineSet
EndChar

StartChar: plusminus
Encoding: 177 177 116
Width: 600
GlyphClass: 2
Flags: W
LayerCount: 2
Fore
SplineSet
544 -80 m 0,0,1
 544 -104 544 -104 518 -107 c 2,2,-1
 81 -107 l 2,3,4
 60 -107 60 -107 56 -81 c 0,5,6
 56 -64 56 -64 79 -55 c 1,7,-1
 518 -55 l 2,8,9
 540 -55 540 -55 544 -80 c 0,0,1
557 301 m 0,10,11
 557 277 557 277 531 274 c 2,12,-1
 326 274 l 1,13,-1
 326 69 l 2,14,15
 326 47 326 47 300 43 c 0,16,17
 278 43 278 43 274 69 c 1,18,-1
 274 274 l 1,19,-1
 69 274 l 2,20,21
 48 274 48 274 44 300 c 0,22,23
 44 316 44 316 67 326 c 1,24,-1
 274 326 l 1,25,-1
 274 531 l 2,26,27
 274 552 274 552 299 556 c 0,28,29
 315 556 315 556 325 533 c 1,30,-1
 326 326 l 1,31,-1
 531 326 l 2,32,33
 553 326 553 326 557 301 c 0,10,11
EndSplineSet
EndChar

StartChar: uni00B2
Encoding: 178 178 117
Width: 409
GlyphClass: 2
Flags: W
LayerCount: 2
Fore
SplineSet
351 674 m 0,0,1
 351 646 351 646 340 624 c 0,2,3
 336 615 336 615 332 609 c 0,4,5
 323 597 323 597 305 582 c 2,6,-1
 132 430 l 1,7,-1
 324 430 l 2,8,9
 338 430 338 430 341 411 c 0,10,11
 341 393 341 393 324 391 c 2,12,-1
 37 391 l 1,13,-1
 279 604 l 2,14,15
 287 611 287 611 294 618 c 0,16,17
 298 623 298 623 305 634 c 0,18,19
 313 647 313 647 313 669 c 0,20,21
 313 700 313 700 285 726 c 0,22,23
 258 750 258 750 221 751 c 0,24,25
 182 751 182 751 156 729 c 0,26,27
 130 708 130 708 122 666 c 0,28,29
 122 652 122 652 105 651 c 0,30,31
 87 651 87 651 84 670 c 1,32,33
 90 722 90 722 129 756 c 0,34,35
 166 789 166 789 221 790 c 0,36,37
 270 790 270 790 311 758 c 0,38,39
 350 727 350 727 351 674 c 0,0,1
EndSplineSet
EndChar

StartChar: uni00B3
Encoding: 179 179 118
Width: 410
GlyphClass: 2
Flags: W
LayerCount: 2
Fore
SplineSet
330 492 m 0,0,1
 330 441 330 441 290 406 c 0,2,3
 275 393 275 393 250 384 c 0,4,5
 231 378 231 378 202 377 c 0,6,7
 163 377 163 377 128 396 c 0,8,9
 95 415 95 415 78 455 c 0,10,11
 76 467 76 467 85 473 c 2,12,-1
 96 477 l 2,13,14
 103 477 103 477 113 466 c 1,15,16
 117 443 117 443 143 429 c 128,-1,17
 169 415 169 415 200 415 c 0,18,19
 238 415 238 415 263 434 c 0,20,21
 291 455 291 455 292 493 c 0,22,23
 292 534 292 534 264 556 c 0,24,25
 252 566 252 566 229 573 c 0,26,27
 208 579 208 579 177 579 c 1,28,-1
 177 619 l 1,29,30
 219 619 219 619 241 631 c 0,31,32
 283 649 283 649 284 692 c 0,33,34
 284 724 284 724 259 742 c 0,35,36
 248 751 248 751 231 755 c 0,37,38
 216 758 216 758 195 760 c 0,39,40
 157 760 157 760 130 745 c 0,41,42
 118 739 118 739 111 730 c 0,43,44
 105 722 105 722 105 711 c 0,45,46
 105 701 105 701 88 697 c 1,47,48
 70 697 70 697 67 713 c 0,49,50
 67 746 67 746 108 772 c 0,51,52
 146 795 146 795 196 795 c 128,-1,53
 246 795 246 795 282 771 c 0,54,55
 322 744 322 744 323 693 c 0,56,57
 323 648 323 648 285 616 c 0,58,59
 274 609 274 609 269 605 c 0,60,61
 268 604 268 604 263.5 602.5 c 128,-1,62
 259 601 259 601 255 599 c 1,63,64
 271 594 271 594 287 585 c 0,65,66
 307 572 307 572 318 547 c 0,67,68
 329 526 329 526 330 492 c 0,0,1
EndSplineSet
EndChar

StartChar: acute
Encoding: 180 180 119
Width: 600
GlyphClass: 2
Flags: W
LayerCount: 2
Fore
SplineSet
165 445 m 1,0,-1
 230 446 l 1,1,-1
 415 605 l 1,2,-1
 256 605 l 1,3,-1
 165 445 l 1,0,-1
EndSplineSet
EndChar

StartChar: mu
Encoding: 181 181 120
Width: 600
GlyphClass: 2
Flags: W
LayerCount: 2
Fore
SplineSet
165 5 m 1,0,1
 183 -16 183 -16 224 -16 c 0,2,3
 261 -16 261 -16 317 21 c 0,4,5
 373 59 373 59 421 106 c 2,6,-1
 486 169 l 1,7,-1
 482 157 l 2,8,9
 463 100 463 100 463 64 c 0,10,11
 463 25 463 25 481 7 c 0,12,13
 503 -15 503 -15 545 -15 c 0,14,15
 563 -15 563 -15 596 0 c 0,16,17
 633 17 633 17 646 30 c 0,18,19
 658 42 658 42 658 50 c 0,20,21
 657 74 657 74 632 74 c 1,22,-1
 616 68 l 1,23,24
 585 42 585 42 568 37 c 0,25,26
 553 33 553 33 538 33 c 0,27,28
 514 34 514 34 518 62 c 2,29,-1
 523 100 l 1,30,-1
 537 153 l 1,31,-1
 578 280 l 2,32,33
 588 311 588 311 597 348 c 0,34,35
 609 398 609 398 610 407 c 1,36,-1
 600 425 l 1,37,-1
 583 433 l 1,38,39
 559 430 559 430 559 412 c 0,40,41
 558 409 558 409 557.5 405 c 128,-1,42
 557 401 557 401 556 396 c 128,-1,43
 555 391 555 391 554 387 c 0,44,45
 550 368 550 368 545 354 c 2,46,-1
 510 260 l 2,47,48
 502 248 502 248 447 195 c 0,49,50
 373 124 373 124 326 88 c 0,51,52
 258 35 258 35 225 35 c 0,53,54
 202 36 202 36 202 63 c 0,55,56
 202 95 202 95 242 209 c 0,57,58
 283 326 283 326 283 369 c 0,59,60
 283 400 283 400 268 418 c 0,61,62
 252 438 252 438 220 436 c 0,63,64
 215 436 215 436 206 432 c 0,65,66
 202 429 202 429 195 428 c 0,67,68
 190 427 190 427 180 422 c 0,69,70
 177 420 177 420 167 417 c 0,71,72
 163 416 163 416 148 406 c 0,73,74
 137 398 137 398 133 397 c 0,75,76
 130 396 130 396 107 376 c 1,77,-1
 99 363 l 1,78,-1
 96 352 l 1,79,80
 99 339 99 339 104 335 c 0,81,82
 113 328 113 328 121 331 c 2,83,-1
 139 338 l 1,84,85
 154 352 154 352 169 363 c 0,86,87
 182 374 182 374 188 376 c 0,88,89
 193 378 193 378 203 381 c 0,90,91
 210 383 210 383 222 383 c 0,92,93
 232 383 232 383 232 368 c 0,94,95
 232 348 232 348 189 232 c 0,96,97
 171 184 171 184 161 147 c 2,98,-1
 92 -57 l 2,99,100
 87 -68 87 -68 76 -78 c 0,101,102
 53 -101 53 -101 31 -101 c 1,103,104
 48 -81 48 -81 48 -62 c 1,105,106
 41 -36 41 -36 31 -27 c 0,107,108
 21 -17 21 -17 0 -17 c 0,109,110
 -64 -18 -64 -18 -64 -75 c 0,111,112
 -64 -115 -64 -115 -37 -136 c 0,113,114
 -7 -157 -7 -157 23 -157 c 0,115,116
 76 -157 76 -157 110 -121 c 0,117,118
 129 -102 129 -102 139 -79 c 2,119,-1
 165 5 l 1,0,1
EndSplineSet
EndChar

StartChar: paragraph
Encoding: 182 182 121
Width: 600
GlyphClass: 2
Flags: W
LayerCount: 2
Fore
SplineSet
485 -81 m 2,0,1
 485 -111 485 -111 459 -117 c 1,2,3
 431 -117 431 -117 431 -81 c 2,4,-1
 431 681 l 2,5,6
 431 710 431 710 456 716 c 1,7,8
 477 716 477 716 484 684 c 1,9,-1
 485 -81 l 2,0,1
345 716 m 2,10,11
 366 716 366 716 373 684 c 1,12,-1
 374 -81 l 2,13,14
 374 -111 374 -111 348 -117 c 1,15,16
 320 -117 320 -117 320 -81 c 2,17,-1
 320 264 l 1,18,-1
 318 304 l 1,19,20
 232 304 232 304 172 364 c 256,21,22
 112 424 112 424 112 510 c 256,23,24
 112 596 112 596 172 656 c 256,25,26
 232 716 232 716 318 716 c 2,27,-1
 345 716 l 2,10,11
EndSplineSet
EndChar

StartChar: periodcentered
Encoding: 183 183 122
Width: 600
GlyphClass: 2
Flags: W
LayerCount: 2
Fore
SplineSet
375 301 m 1,0,1
 375 266 375 266 355 246 c 0,2,3
 346 237 346 237 332 230 c 0,4,5
 323 227 323 227 300 225 c 0,6,7
 267 225 267 225 245 247 c 0,8,9
 227 267 227 267 225 300 c 0,10,11
 225 330 225 330 244 352 c 0,12,13
 252 362 252 362 267 369 c 0,14,15
 280 375 280 375 300 375 c 0,16,17
 335 375 335 375 356 351 c 2,18,-1
 364 341 l 1,19,-1
 371 326 l 1,20,-1
 375 301 l 1,0,1
EndSplineSet
EndChar

StartChar: cedilla
Encoding: 184 184 123
Width: 600
GlyphClass: 2
Flags: W
LayerCount: 2
Fore
SplineSet
337 -21 m 4,0,1
 337 -65 337 -65 318 -103 c 4,2,3
 297 -147 297 -147 240 -186 c 5,4,-1
 218 -153 l 5,5,6
 250 -126 250 -126 258 -120 c 4,7,8
 275 -105 275 -105 282 -96 c 4,9,10
 290 -87 290 -87 291 -87 c 6,11,12
 291 -87 291 -87 294 -84 c 6,13,-1
 280 -84 l 6,14,15
 253 -84 253 -84 237 -61 c 5,16,-1
 228 -42 l 5,17,-1
 226 -21 l 6,18,19
 226 4 226 4 242 20 c 4,20,21
 258 33 258 33 282 33 c 4,22,23
 305 33 305 33 321 18 c 4,24,25
 336 4 336 4 337 -21 c 4,0,1
EndSplineSet
EndChar

StartChar: one.superior
Encoding: 185 185 124
Width: 404
GlyphClass: 2
Flags: W
LayerCount: 2
Fore
SplineSet
356 411 m 0,0,1
 356 393 356 393 338 391 c 2,2,-1
 72 391 l 2,3,4
 58 390 58 390 55 410 c 0,5,6
 55 423 55 423 71 430 c 1,7,-1
 202 430 l 1,8,-1
 202 736 l 1,9,10
 191 726 191 726 180 718 c 0,11,12
 171 711 171 711 154 699 c 0,13,14
 137 688 137 688 116 677 c 0,15,16
 105 672 105 672 73 659 c 0,17,18
 66 655 66 655 56 663 c 1,19,-1
 51 675 l 2,20,21
 51 684 51 684 62 691 c 1,22,23
 99 700 99 700 139.5 730.5 c 128,-1,24
 180 761 180 761 200 791 c 1,25,-1
 241 796 l 1,26,-1
 241 430 l 1,27,-1
 338 430 l 2,28,29
 353 430 353 430 356 411 c 0,0,1
EndSplineSet
EndChar

StartChar: ordmasculine
Encoding: 186 186 125
Width: 408
GlyphClass: 2
Flags: W
LayerCount: 2
Fore
SplineSet
366 584 m 2,0,-1
 365 567 l 2,1,2
 365 561 365 561 364 558 c 0,3,4
 364 555 364 555 359 546 c 0,5,6
 351 513 351 513 331 485 c 0,7,8
 313 457 313 457 280 431 c 0,9,10
 218 381 218 381 150 380 c 2,11,-1
 134 380 l 1,12,-1
 121 383 l 2,13,14
 82 393 82 393 62 422 c 0,15,16
 54 435 54 435 47 452 c 0,17,18
 44 466 44 466 42 484 c 0,19,20
 42 540 42 540 83 594 c 0,21,22
 116 636 116 636 163 661 c 0,23,24
 209 685 209 685 254 685 c 2,25,-1
 269 684 l 2,26,27
 309 684 309 684 339 653 c 0,28,29
 366 626 366 626 366 584 c 2,0,-1
325 584 m 0,30,31
 325 601 325 601 322 608 c 0,32,33
 320 616 320 616 311 625 c 0,34,35
 298 638 298 638 264 645 c 1,36,-1
 252 646 l 2,37,38
 220 646 220 646 182 628 c 0,39,40
 146 611 146 611 113 571 c 0,41,42
 82 532 82 532 80 486 c 0,43,44
 80 463 80 463 92 444 c 0,45,46
 103 427 103 427 131 421 c 2,47,-1
 153 418 l 1,48,49
 198 418 198 418 253 460 c 0,50,51
 307 503 307 503 322 554 c 0,52,53
 323 558 323 558 323.5 563 c 128,-1,54
 324 568 324 568 324 570 c 0,55,56
 324 578 324 578 325 584 c 0,30,31
EndSplineSet
EndChar

StartChar: guillemotright
Encoding: 187 187 126
Width: 600
GlyphClass: 2
Flags: W
LayerCount: 2
Fore
SplineSet
553 300 m 1,0,-1
 229 87 l 2,1,2
 222 84 222 84 210 91 c 1,3,-1
 204 109 l 2,4,5
 204 114 204 114 212 132 c 1,6,-1
 468 300 l 1,7,-1
 214 470 l 2,8,9
 205 477 205 477 204 492 c 0,10,11
 204 501 204 501 209 509 c 0,12,13
 212 516 212 516 228 517 c 1,14,-1
 553 300 l 1,0,-1
405 300 m 1,15,-1
 81 87 l 2,16,17
 74 84 74 84 62 91 c 1,18,-1
 56 109 l 2,19,20
 56 114 56 114 64 132 c 1,21,-1
 320 300 l 1,22,-1
 66 470 l 2,23,24
 57 477 57 477 56 492 c 0,25,26
 56 501 56 501 61 509 c 0,27,28
 64 516 64 516 80 517 c 1,29,-1
 405 300 l 1,15,-1
EndSplineSet
EndChar

StartChar: onequarter
Encoding: 188 188 127
Width: 600
GlyphClass: 2
Flags: W
LayerCount: 2
Fore
SplineSet
597 -63 m 0,0,1
 597 -83 597 -83 580 -83 c 2,2,-1
 518 -83 l 1,3,-1
 518 -182 l 2,4,5
 518 -197 518 -197 499 -199 c 0,6,7
 483 -199 483 -199 479 -182 c 1,8,-1
 479 -83 l 1,9,-1
 264 -83 l 1,10,11
 264 -19 264 -19 282 47 c 0,12,13
 300 111 300 111 301 145 c 1,14,-1
 298 176 l 1,15,-1
 297 206 l 2,16,17
 297 226 297 226 316 226 c 0,18,19
 331 226 331 226 337 198 c 2,20,-1
 340 167 l 1,21,-1
 340 135 l 2,22,23
 340 95 340 95 319 16 c 0,24,25
 310 -15 310 -15 308 -44 c 1,26,-1
 479 -44 l 1,27,-1
 479 143 l 2,28,29
 479 156 479 156 498 159 c 0,30,31
 510 159 510 159 518 144 c 1,32,-1
 518 -44 l 1,33,-1
 580 -44 l 2,34,35
 594 -44 594 -44 597 -63 c 0,0,1
307 414 m 0,36,37
 307 394 307 394 289 394 c 2,38,-1
 23 394 l 2,39,40
 8 394 8 394 6 413 c 0,41,42
 5 426 5 426 22 433 c 1,43,-1
 153 433 l 1,44,-1
 153 739 l 1,45,46
 142 729 142 729 131 721 c 0,47,48
 122 714 122 714 105 702 c 0,49,50
 73 682 73 682 67 680 c 0,51,52
 46 674 46 674 24 662 c 0,53,54
 17 658 17 658 7 666 c 1,55,-1
 2 678 l 2,56,57
 2 687 2 687 13 694 c 1,58,59
 50 703 50 703 90.5 733.5 c 128,-1,60
 131 764 131 764 151 794 c 1,61,-1
 192 799 l 1,62,-1
 192 433 l 1,63,-1
 289 433 l 2,64,65
 307 433 307 433 307 414 c 0,36,37
554 615 m 1,66,-1
 550 603 l 1,67,-1
 93 -32 l 2,68,69
 88 -41 88 -41 74 -43 c 0,70,71
 62 -43 62 -43 54 -35 c 0,72,73
 49 -29 49 -29 46 -14 c 1,74,-1
 50 -3 l 1,75,-1
 507 632 l 2,76,77
 512 642 512 642 527 643 c 0,78,79
 551 643 551 643 554 615 c 1,66,-1
EndSplineSet
EndChar

StartChar: onehalf
Encoding: 189 189 128
Width: 600
GlyphClass: 2
Flags: W
LayerCount: 2
Fore
SplineSet
500 87 m 0,0,1
 500 59 500 59 489 37 c 0,2,3
 485 28 485 28 481 22 c 0,4,5
 472 10 472 10 454 -5 c 2,6,-1
 281 -157 l 1,7,-1
 473 -157 l 2,8,9
 487 -157 487 -157 490 -176 c 0,10,11
 490 -194 490 -194 473 -196 c 2,12,-1
 186 -196 l 1,13,-1
 428 17 l 2,14,15
 436 24 436 24 443 31 c 0,16,17
 447 36 447 36 454 47 c 0,18,19
 462 60 462 60 462 82 c 0,20,21
 462 113 462 113 434 139 c 0,22,23
 407 163 407 163 370 164 c 0,24,25
 331 164 331 164 305 142 c 0,26,27
 279 121 279 121 271 79 c 0,28,29
 271 65 271 65 254 64 c 0,30,31
 236 64 236 64 233 83 c 1,32,33
 239 135 239 135 278 169 c 0,34,35
 315 202 315 202 370 203 c 0,36,37
 419 203 419 203 460 171 c 0,38,39
 499 140 499 140 500 87 c 0,0,1
307 416 m 0,40,41
 307 396 307 396 289 396 c 2,42,-1
 23 396 l 2,43,44
 8 396 8 396 6 415 c 0,45,46
 5 428 5 428 22 435 c 1,47,-1
 153 435 l 1,48,-1
 153 741 l 1,49,50
 142 731 142 731 131 723 c 0,51,52
 122 716 122 716 105 704 c 0,53,54
 73 684 73 684 67 682 c 0,55,56
 46 676 46 676 24 664 c 0,57,58
 17 660 17 660 7 668 c 1,59,-1
 2 680 l 2,60,61
 2 689 2 689 13 696 c 1,62,63
 50 705 50 705 90.5 735.5 c 128,-1,64
 131 766 131 766 151 796 c 1,65,-1
 192 801 l 1,66,-1
 192 435 l 1,67,-1
 289 435 l 2,68,69
 307 435 307 435 307 416 c 0,40,41
554 615 m 1,70,-1
 550 603 l 1,71,-1
 93 -32 l 2,72,73
 88 -41 88 -41 74 -43 c 0,74,75
 62 -43 62 -43 54 -35 c 0,76,77
 49 -29 49 -29 46 -14 c 1,78,-1
 50 -3 l 1,79,-1
 507 632 l 2,80,81
 512 642 512 642 527 643 c 0,82,83
 551 643 551 643 554 615 c 1,70,-1
EndSplineSet
EndChar

StartChar: threequarters
Encoding: 190 190 129
Width: 600
GlyphClass: 2
Flags: W
LayerCount: 2
Fore
SplineSet
597 -63 m 0,0,1
 597 -83 597 -83 580 -83 c 2,2,-1
 518 -83 l 1,3,-1
 518 -182 l 2,4,5
 518 -197 518 -197 499 -199 c 0,6,7
 483 -199 483 -199 479 -182 c 1,8,-1
 479 -83 l 1,9,-1
 264 -83 l 1,10,11
 264 -19 264 -19 282 47 c 0,12,13
 300 111 300 111 301 145 c 1,14,-1
 298 176 l 1,15,-1
 297 206 l 2,16,17
 297 226 297 226 316 226 c 0,18,19
 331 226 331 226 337 198 c 2,20,-1
 340 167 l 1,21,-1
 340 135 l 2,22,23
 340 95 340 95 319 16 c 0,24,25
 310 -15 310 -15 308 -44 c 1,26,-1
 479 -44 l 1,27,-1
 479 143 l 2,28,29
 479 156 479 156 498 159 c 0,30,31
 510 159 510 159 518 144 c 1,32,-1
 518 -44 l 1,33,-1
 580 -44 l 2,34,35
 594 -44 594 -44 597 -63 c 0,0,1
307 414 m 0,36,37
 307 394 307 394 289 394 c 2,38,-1
 23 394 l 2,39,40
 8 394 8 394 6 413 c 0,41,42
 5 426 5 426 22 433 c 1,43,-1
 153 433 l 1,44,-1
 153 739 l 1,45,46
 142 729 142 729 131 721 c 0,47,48
 122 714 122 714 105 702 c 0,49,50
 73 682 73 682 67 680 c 0,51,52
 46 674 46 674 24 662 c 0,53,54
 17 658 17 658 7 666 c 1,55,-1
 2 678 l 2,56,57
 2 687 2 687 13 694 c 1,58,59
 50 703 50 703 90.5 733.5 c 128,-1,60
 131 764 131 764 151 794 c 1,61,-1
 192 799 l 1,62,-1
 192 433 l 1,63,-1
 289 433 l 2,64,65
 307 433 307 433 307 414 c 0,36,37
554 615 m 1,66,-1
 550 603 l 1,67,-1
 93 -32 l 2,68,69
 88 -41 88 -41 74 -43 c 0,70,71
 62 -43 62 -43 54 -35 c 0,72,73
 49 -29 49 -29 46 -14 c 1,74,-1
 50 -3 l 1,75,-1
 507 632 l 2,76,77
 512 642 512 642 527 643 c 0,78,79
 551 643 551 643 554 615 c 1,66,-1
EndSplineSet
EndChar

StartChar: questiondown
Encoding: 191 191 130
Width: 600
GlyphClass: 2
Flags: W
LayerCount: 2
Fore
SplineSet
480 366 m 0,0,1
 480 335 480 335 459 308 c 0,2,3
 450 296 450 296 434 289 c 0,4,5
 420 283 420 283 399 283 c 0,6,7
 360 283 360 283 339 310 c 2,8,-1
 330 321 l 1,9,-1
 322 338 l 1,10,-1
 318 365 l 2,11,12
 318 387 318 387 322 399 c 0,13,14
 327 411 327 411 339 425 c 0,15,16
 360 446 360 446 399 448 c 0,17,18
 432 448 432 448 458 424 c 0,19,20
 478 401 478 401 480 366 c 0,0,1
449 -35 m 1,21,22
 449 -84 449 -84 372 -130 c 1,23,24
 309 -156 309 -156 271 -158 c 0,25,26
 192 -158 192 -158 144 -126 c 0,27,28
 96 -96 96 -96 95 -26 c 0,29,30
 95 -5 95 -5 110 20 c 0,31,32
 125 44 125 44 160 73 c 2,33,-1
 272 152 l 1,34,35
 328 198 328 198 330 251 c 0,36,37
 331 252 331 252 332.5 254 c 128,-1,38
 334 256 334 256 335 257 c 0,39,40
 340 262 340 262 352 268 c 1,41,42
 376 268 376 268 379 244 c 0,43,44
 379 182 379 182 316 123 c 1,45,-1
 203 42 l 2,46,47
 146 3 146 3 146 -26 c 0,48,49
 146 -66 146 -66 174 -87 c 0,50,51
 201 -105 201 -105 271 -107 c 0,52,53
 298 -107 298 -107 342 -89 c 0,54,55
 395 -68 395 -68 397 -35 c 1,56,-1
 416 -35 l 1,57,58
 416 -54 416 -54 405 -65 c 0,59,60
 396 -77 396 -77 379 -78 c 0,61,62
 362 -78 362 -78 347 -63 c 0,63,64
 335 -51 335 -51 333 -26 c 0,65,66
 333 -3 333 -3 347 14 c 0,67,68
 362 35 362 35 391 35 c 0,69,70
 423 35 423 35 436 13 c 2,71,-1
 445 -7 l 1,72,-1
 449 -35 l 1,21,22
EndSplineSet
EndChar

StartChar: Agrave
Encoding: 192 192 131
Width: 600
GlyphClass: 2
Flags: W
LayerCount: 2
Fore
SplineSet
449 622 m 1,0,-1
 384 623 l 1,1,-1
 199 782 l 1,2,-1
 358 782 l 1,3,-1
 449 622 l 1,0,-1
580 25 m 0,4,5
 580 1 580 1 554 -2 c 2,6,-1
 372 -2 l 2,7,8
 351 -2 351 -2 347 24 c 0,9,10
 347 40 347 40 370 50 c 1,11,-1
 430 50 l 1,12,-1
 425 155 l 1,13,-1
 181 155 l 1,14,-1
 117 50 l 1,15,-1
 174 50 l 2,16,17
 196 50 196 50 200 25 c 0,18,19
 200 1 200 1 174 -2 c 2,20,-1
 32 -2 l 2,21,22
 11 -2 11 -2 7 24 c 0,23,24
 7 40 7 40 30 50 c 1,25,-1
 54 50 l 1,26,-1
 377 600 l 1,27,-1
 457 600 l 1,28,-1
 483 50 l 1,29,-1
 554 50 l 2,30,31
 576 50 576 50 580 25 c 0,4,5
423 207 m 1,32,-1
 407 548 l 1,33,-1
 209 207 l 1,34,-1
 423 207 l 1,32,-1
EndSplineSet
EndChar

StartChar: Aacute
Encoding: 193 193 132
Width: 600
GlyphClass: 2
Flags: W
LayerCount: 2
Fore
SplineSet
384 622 m 1,0,-1
 449 623 l 1,1,-1
 634 782 l 1,2,-1
 475 782 l 1,3,-1
 384 622 l 1,0,-1
580 25 m 0,4,5
 580 1 580 1 554 -2 c 2,6,-1
 372 -2 l 2,7,8
 351 -2 351 -2 347 24 c 0,9,10
 347 40 347 40 370 50 c 1,11,-1
 430 50 l 1,12,-1
 425 155 l 1,13,-1
 181 155 l 1,14,-1
 117 50 l 1,15,-1
 174 50 l 2,16,17
 196 50 196 50 200 25 c 0,18,19
 200 1 200 1 174 -2 c 2,20,-1
 32 -2 l 2,21,22
 11 -2 11 -2 7 24 c 0,23,24
 7 40 7 40 30 50 c 1,25,-1
 54 50 l 1,26,-1
 377 600 l 1,27,-1
 457 600 l 1,28,-1
 483 50 l 1,29,-1
 554 50 l 2,30,31
 576 50 576 50 580 25 c 0,4,5
423 207 m 1,32,-1
 407 548 l 1,33,-1
 209 207 l 1,34,-1
 423 207 l 1,32,-1
EndSplineSet
EndChar

StartChar: Acircumflex
Encoding: 194 194 133
Width: 600
GlyphClass: 2
Flags: W
LayerCount: 2
Fore
SplineSet
584 629 m 2,0,1
 587 625 587 625 587 621 c 256,2,3
 587 617 587 617 582 611 c 0,4,5
 578 605 578 605 563 604 c 0,6,7
 559 604 559 604 544 610 c 0,8,9
 543 611 543 611 542 612 c 2,10,-1
 419 777 l 1,11,-1
 298 613 l 1,12,-1
 298 612 l 1,13,14
 291 605 291 605 278 604 c 0,15,16
 270 604 270 604 260 609 c 0,17,18
 259 609 259 609 258 611 c 0,19,20
 256 616 256 616 254 624 c 0,21,22
 254 626 254 626 255 628 c 2,23,-1
 415 845 l 2,24,25
 419 851 419 851 423 845 c 2,26,-1
 584 629 l 2,0,1
580 25 m 0,27,28
 580 1 580 1 554 -2 c 2,29,-1
 372 -2 l 2,30,31
 351 -2 351 -2 347 24 c 0,32,33
 347 40 347 40 370 50 c 1,34,-1
 430 50 l 1,35,-1
 425 155 l 1,36,-1
 181 155 l 1,37,-1
 117 50 l 1,38,-1
 174 50 l 2,39,40
 196 50 196 50 200 25 c 0,41,42
 200 1 200 1 174 -2 c 2,43,-1
 32 -2 l 2,44,45
 11 -2 11 -2 7 24 c 0,46,47
 7 40 7 40 30 50 c 1,48,-1
 54 50 l 1,49,-1
 377 600 l 1,50,-1
 457 600 l 1,51,-1
 483 50 l 1,52,-1
 554 50 l 2,53,54
 576 50 576 50 580 25 c 0,27,28
423 207 m 1,55,-1
 407 548 l 1,56,-1
 209 207 l 1,57,-1
 423 207 l 1,55,-1
EndSplineSet
EndChar

StartChar: Atilde
Encoding: 195 195 134
Width: 600
GlyphClass: 2
Flags: W
LayerCount: 2
Fore
SplineSet
598 733 m 1,0,1
 598 690 598 690 569 657 c 0,2,3
 542 626 542 626 500 626 c 0,4,5
 460 626 460 626 421 663 c 0,6,7
 381 700 381 700 357 719 c 0,8,9
 333 737 333 737 322 738 c 0,10,11
 302 738 302 738 277 718 c 1,12,13
 259 698 259 698 257 670 c 0,14,15
 257 652 257 652 238 652 c 0,16,17
 221 652 221 652 218 670 c 0,18,19
 218 710 218 710 248 742 c 256,20,21
 278 774 278 774 323 775 c 0,22,23
 364 775 364 775 421 717 c 0,24,25
 472 663 472 663 497 663 c 0,26,27
 523 663 523 663 542 682 c 0,28,29
 560 705 560 705 560 732 c 0,30,31
 560 748 560 748 578 749 c 0,32,33
 591 749 591 749 598 733 c 1,0,1
580 25 m 0,34,35
 580 1 580 1 554 -2 c 2,36,-1
 372 -2 l 2,37,38
 351 -2 351 -2 347 24 c 0,39,40
 347 40 347 40 370 50 c 1,41,-1
 430 50 l 1,42,-1
 425 155 l 1,43,-1
 181 155 l 1,44,-1
 117 50 l 1,45,-1
 174 50 l 2,46,47
 196 50 196 50 200 25 c 0,48,49
 200 1 200 1 174 -2 c 2,50,-1
 32 -2 l 2,51,52
 11 -2 11 -2 7 24 c 0,53,54
 7 40 7 40 30 50 c 1,55,-1
 54 50 l 1,56,-1
 377 600 l 1,57,-1
 457 600 l 1,58,-1
 483 50 l 1,59,-1
 554 50 l 2,60,61
 576 50 576 50 580 25 c 0,34,35
423 207 m 1,62,-1
 407 548 l 1,63,-1
 209 207 l 1,64,-1
 423 207 l 1,62,-1
EndSplineSet
EndChar

StartChar: Adieresis
Encoding: 196 196 135
Width: 600
GlyphClass: 2
Flags: W
LayerCount: 2
Fore
SplineSet
635 708 m 1,0,1
 635 670 635 670 613 648 c 0,2,3
 601 637 601 637 588 629 c 0,4,5
 579 626 579 626 553 624 c 0,6,7
 518 624 518 624 495 647 c 0,8,9
 474 670 474 670 472 707 c 0,10,11
 472 740 472 740 493 764 c 0,12,13
 514 787 514 787 553 789 c 0,14,15
 592 789 592 789 614 763 c 2,16,-1
 622 751 l 1,17,-1
 630 735 l 1,18,-1
 635 708 l 1,0,1
303 708 m 1,19,20
 303 669 303 669 281 648 c 0,21,22
 260 624 260 624 222 624 c 0,23,24
 187 624 187 624 163 648 c 0,25,26
 142 671 142 671 140 707 c 0,27,28
 140 738 140 738 160 764 c 0,29,30
 182 788 182 788 222 789 c 0,31,32
 262 789 262 789 282 763 c 2,33,-1
 291 751 l 1,34,-1
 299 735 l 1,35,-1
 303 708 l 1,19,20
580 25 m 0,36,37
 580 1 580 1 554 -2 c 2,38,-1
 372 -2 l 2,39,40
 351 -2 351 -2 347 24 c 0,41,42
 347 40 347 40 370 50 c 1,43,-1
 430 50 l 1,44,-1
 425 155 l 1,45,-1
 181 155 l 1,46,-1
 117 50 l 1,47,-1
 174 50 l 2,48,49
 196 50 196 50 200 25 c 0,50,51
 200 1 200 1 174 -2 c 2,52,-1
 32 -2 l 2,53,54
 11 -2 11 -2 7 24 c 0,55,56
 7 40 7 40 30 50 c 1,57,-1
 54 50 l 1,58,-1
 377 600 l 1,59,-1
 457 600 l 1,60,-1
 483 50 l 1,61,-1
 554 50 l 2,62,63
 576 50 576 50 580 25 c 0,36,37
423 207 m 1,64,-1
 407 548 l 1,65,-1
 209 207 l 1,66,-1
 423 207 l 1,64,-1
EndSplineSet
EndChar

StartChar: Aring
Encoding: 197 197 136
Width: 600
GlyphClass: 2
Flags: W
LayerCount: 2
Fore
SplineSet
364 700 m 132,-1,1
 364 677 364 677 380 661 c 132,-1,2
 396 645 396 645 420 644 c 4,3,4
 444 645 444 645 460 661 c 132,-1,5
 476 677 476 677 476 700 c 132,-1,6
 476 723 476 723 460 739 c 132,-1,7
 444 755 444 755 420 756 c 4,8,9
 396 755 396 755 380 739 c 132,-1,0
 364 723 364 723 364 700 c 132,-1,1
326 700 m 132,-1,11
 326 739 326 739 354 767 c 132,-1,12
 382 795 382 795 420 794 c 4,13,14
 458 795 458 795 486 767 c 132,-1,15
 514 739 514 739 514 700 c 132,-1,16
 514 661 514 661 486 633 c 132,-1,17
 458 605 458 605 420 606 c 4,18,19
 382 605 382 605 354 633 c 132,-1,10
 326 661 326 661 326 700 c 132,-1,11
580 25 m 0,20,21
 580 1 580 1 554 -2 c 2,22,-1
 372 -2 l 2,23,24
 351 -2 351 -2 347 24 c 0,25,26
 347 40 347 40 370 50 c 1,27,-1
 430 50 l 1,28,-1
 425 155 l 1,29,-1
 181 155 l 1,30,-1
 117 50 l 1,31,-1
 174 50 l 2,32,33
 196 50 196 50 200 25 c 0,34,35
 200 1 200 1 174 -2 c 2,36,-1
 32 -2 l 2,37,38
 11 -2 11 -2 7 24 c 0,39,40
 7 40 7 40 30 50 c 1,41,-1
 54 50 l 1,42,-1
 377 600 l 1,43,-1
 457 600 l 1,44,-1
 483 50 l 1,45,-1
 554 50 l 2,46,47
 576 50 576 50 580 25 c 0,20,21
423 207 m 1,48,-1
 407 548 l 1,49,-1
 209 207 l 1,50,-1
 423 207 l 1,48,-1
EndSplineSet
EndChar

StartChar: AE
Encoding: 198 198 137
Width: 600
GlyphClass: 2
Flags: W
LayerCount: 2
Fore
SplineSet
334 50 m 1,0,-1
 461 53 l 1,1,-1
 504 206 l 2,2,3
 508 220 508 220 520 222 c 0,4,5
 526 223 526 223 528.5 220 c 128,-1,6
 531 217 531 217 535 212 c 0,7,8
 537 210 537 210 538 202 c 0,9,10
 538 194 538 194 540 190 c 2,11,-1
 488 1 l 1,12,-1
 396 -2 l 1,13,-1
 250 -2 l 2,14,15
 234 -2 234 -2 232 24 c 0,16,17
 231 39 231 39 249 50 c 1,18,-1
 294 50 l 1,19,-1
 290 155 l 1,20,-1
 107 155 l 1,21,-1
 59 50 l 1,22,-1
 102 50 l 2,23,24
 120 50 120 50 122 25 c 0,25,26
 123 -2 123 -2 102 -2 c 2,27,-1
 -4 -2 l 2,28,29
 -21 -2 -21 -2 -23 24 c 0,30,31
 -24 39 -24 39 -6 50 c 1,32,-1
 12 50 l 1,33,-1
 254 600 l 1,34,-1
 621 602 l 1,35,-1
 582 425 l 2,36,37
 579 408 579 408 564 406 c 1,38,-1
 556 409 l 1,39,-1
 550 414 l 2,40,41
 548 416 548 416 545 437 c 1,42,-1
 569 550 l 1,43,-1
 316 550 l 1,44,-1
 323 345 l 1,45,-1
 423 345 l 1,46,-1
 440 418 l 2,47,48
 443 432 443 432 457 436 c 0,49,50
 461 437 461 437 465 434 c 0,51,52
 468 432 468 432 472 426 c 0,53,54
 474 423 474 423 478 405 c 1,55,-1
 430 204 l 2,56,57
 426 188 426 188 413 187 c 0,58,59
 408 187 408 187 405 190 c 0,60,61
 403 192 403 192 402 192 c 0,62,63
 400 192 400 192 397 196 c 0,64,65
 395 199 395 199 393 218 c 1,66,-1
 410 292 l 1,67,-1
 325 292 l 1,68,-1
 334 50 l 1,0,-1
289 207 m 1,69,-1
 277 548 l 1,70,-1
 128 207 l 1,71,-1
 289 207 l 1,69,-1
EndSplineSet
EndChar

StartChar: Ccedilla
Encoding: 199 199 138
Width: 600
GlyphClass: 2
Flags: W
LayerCount: 2
Fore
SplineSet
246 -16 m 4,0,1
 246 -60 246 -60 227 -98 c 4,2,3
 206 -142 206 -142 149 -181 c 5,4,-1
 127 -148 l 5,5,6
 159 -121 159 -121 167 -115 c 4,7,8
 184 -100 184 -100 191 -91 c 4,9,10
 199 -82 199 -82 200 -82 c 6,11,12
 200 -82 200 -82 203 -79 c 6,13,-1
 189 -79 l 6,14,15
 162 -79 162 -79 146 -56 c 5,16,-1
 137 -37 l 5,17,-1
 135 -16 l 6,18,19
 135 9 135 9 151 25 c 4,20,21
 167 38 167 38 191 38 c 4,22,23
 214 38 214 38 230 23 c 4,24,25
 245 9 245 9 246 -16 c 4,0,1
569 572 m 1,26,-1
 565 561 l 1,27,28
 540 526 540 526 532 495 c 1,29,-1
 519 387 l 1,30,-1
 468 400 l 1,31,-1
 472 451 l 2,32,33
 472 490 472 490 459 519 c 0,34,35
 445 545 445 545 416 558 c 0,36,37
 415 558 415 558 392 563 c 0,38,39
 388 564 388 564 373 567 c 0,40,41
 312 567 312 567 253 511 c 0,42,43
 202 466 202 466 154 395 c 0,44,45
 132 365 132 365 107 293 c 0,46,47
 87 229 87 229 85 173 c 0,48,49
 85 127 85 127 102 92 c 0,50,51
 115 63 115 63 156 45 c 0,52,53
 159 44 159 44 164.5 42 c 128,-1,54
 170 40 170 40 173 39 c 0,55,56
 184 39 184 39 192 38 c 0,57,58
 250 38 250 38 322 88 c 0,59,60
 394 137 394 137 401 176 c 0,61,62
 407 194 407 194 426 195 c 0,63,64
 436 195 436 195 442 190 c 0,65,66
 447 186 447 186 453 166 c 1,67,68
 444 137 444 137 420 105 c 0,69,70
 395 73 395 73 355 45 c 0,71,72
 277 -12 277 -12 192 -12 c 2,73,-1
 165 -11 l 2,74,75
 152 -11 152 -11 137 -3 c 4,76,77
 82 18 82 18 56 68 c 0,78,79
 47 85 47 85 39 117 c 0,80,81
 33 144 33 144 33 176 c 2,82,-1
 34 206 l 2,83,84
 34 226 34 226 39 247 c 0,85,86
 42 273 42 273 47 281 c 2,87,-1
 59 318 l 1,88,-1
 70 350 l 1,89,-1
 81 377 l 1,90,-1
 110 426 l 1,91,92
 183 528 183 528 253 576 c 0,93,94
 314 618 314 618 373 618 c 0,95,96
 406 618 406 618 433 606 c 0,97,98
 444 602 444 602 454 595 c 0,99,100
 468 588 468 588 478 578 c 0,101,102
 482 574 482 574 488 566 c 0,103,104
 489 564 489 564 490.5 562 c 128,-1,105
 492 560 492 560 494.5 556.5 c 128,-1,106
 497 553 497 553 498 551 c 2,107,-1
 503 562 l 1,108,-1
 522 590 l 2,109,110
 525 600 525 600 542 601 c 0,111,112
 566 601 566 601 569 572 c 1,26,-1
EndSplineSet
EndChar

StartChar: Egrave
Encoding: 200 200 139
Width: 600
GlyphClass: 2
Flags: W
LayerCount: 2
Fore
SplineSet
449 622 m 5,0,-1
 384 623 l 5,1,-1
 199 782 l 5,2,-1
 358 782 l 5,3,-1
 449 622 l 5,0,-1
600 602 m 1,4,-1
 549 425 l 2,5,6
 545 408 545 408 525 406 c 1,7,-1
 513 409 l 1,8,-1
 506 414 l 2,9,10
 502 419 502 419 499 437 c 1,11,-1
 531 550 l 1,12,-1
 278 550 l 1,13,-1
 214 345 l 1,14,-1
 336 345 l 1,15,-1
 359 418 l 2,16,17
 364 432 364 432 382 436 c 0,18,19
 389 436 389 436 392 434 c 0,20,21
 397 432 397 432 401 426 c 0,22,23
 404 423 404 423 409 405 c 1,24,-1
 345 204 l 2,25,26
 341 193 341 193 323 187 c 0,27,28
 316 188 316 188 312 190 c 0,29,30
 311 190 311 190 308 192 c 0,31,32
 306 192 306 192 302 196 c 0,33,34
 299 199 299 199 296 218 c 1,35,-1
 319 292 l 1,36,-1
 198 292 l 1,37,-1
 125 53 l 1,38,-1
 387 53 l 1,39,-1
 444 206 l 2,40,41
 448 216 448 216 466 222 c 0,42,43
 473 222 473 222 477 220 c 128,-1,44
 481 218 481 218 486 212 c 0,45,46
 488 210 488 210 489 202 c 256,47,48
 490 194 490 194 492 190 c 2,49,-1
 423 1 l 1,50,-1
 27 1 l 2,51,52
 6 1 6 1 2 27 c 0,53,54
 2 43 2 43 25 53 c 1,55,-1
 70 53 l 1,56,-1
 223 550 l 1,57,-1
 119 550 l 2,58,59
 98 550 98 550 94 576 c 0,60,61
 94 592 94 592 117 602 c 1,62,-1
 600 602 l 1,4,-1
EndSplineSet
EndChar

StartChar: Eacute
Encoding: 201 201 140
Width: 600
GlyphClass: 2
Flags: W
LayerCount: 2
Fore
SplineSet
384 622 m 5,0,-1
 449 623 l 5,1,-1
 634 782 l 5,2,-1
 475 782 l 5,3,-1
 384 622 l 5,0,-1
600 602 m 1,4,-1
 549 425 l 2,5,6
 545 408 545 408 525 406 c 1,7,-1
 513 409 l 1,8,-1
 506 414 l 2,9,10
 502 419 502 419 499 437 c 1,11,-1
 531 550 l 1,12,-1
 278 550 l 1,13,-1
 214 345 l 1,14,-1
 336 345 l 1,15,-1
 359 418 l 2,16,17
 364 432 364 432 382 436 c 0,18,19
 389 436 389 436 392 434 c 0,20,21
 397 432 397 432 401 426 c 0,22,23
 404 423 404 423 409 405 c 1,24,-1
 345 204 l 2,25,26
 341 193 341 193 323 187 c 0,27,28
 316 188 316 188 312 190 c 0,29,30
 311 190 311 190 308 192 c 0,31,32
 306 192 306 192 302 196 c 0,33,34
 299 199 299 199 296 218 c 1,35,-1
 319 292 l 1,36,-1
 198 292 l 1,37,-1
 125 53 l 1,38,-1
 387 53 l 1,39,-1
 444 206 l 2,40,41
 448 216 448 216 466 222 c 0,42,43
 473 222 473 222 477 220 c 128,-1,44
 481 218 481 218 486 212 c 0,45,46
 488 210 488 210 489 202 c 256,47,48
 490 194 490 194 492 190 c 2,49,-1
 423 1 l 1,50,-1
 27 1 l 2,51,52
 6 1 6 1 2 27 c 0,53,54
 2 43 2 43 25 53 c 1,55,-1
 70 53 l 1,56,-1
 223 550 l 1,57,-1
 119 550 l 2,58,59
 98 550 98 550 94 576 c 0,60,61
 94 592 94 592 117 602 c 1,62,-1
 600 602 l 1,4,-1
EndSplineSet
EndChar

StartChar: Ecircumflex
Encoding: 202 202 141
Width: 600
GlyphClass: 2
Flags: W
LayerCount: 2
Fore
SplineSet
540 629 m 6,0,1
 543 625 543 625 543 621 c 260,2,3
 543 617 543 617 538 611 c 4,4,5
 534 605 534 605 519 604 c 4,6,7
 515 604 515 604 500 610 c 4,8,9
 499 611 499 611 498 612 c 6,10,-1
 375 777 l 5,11,-1
 254 613 l 5,12,-1
 254 612 l 5,13,14
 247 605 247 605 234 604 c 4,15,16
 226 604 226 604 216 609 c 4,17,18
 215 609 215 609 214 611 c 4,19,20
 212 616 212 616 210 624 c 4,21,22
 210 626 210 626 211 628 c 6,23,-1
 371 845 l 6,24,25
 375 851 375 851 379 845 c 6,26,-1
 540 629 l 6,0,1
600 602 m 1,27,-1
 549 425 l 2,28,29
 545 408 545 408 525 406 c 1,30,-1
 513 409 l 1,31,-1
 506 414 l 2,32,33
 502 419 502 419 499 437 c 1,34,-1
 531 550 l 1,35,-1
 278 550 l 1,36,-1
 214 345 l 1,37,-1
 336 345 l 1,38,-1
 359 418 l 2,39,40
 364 432 364 432 382 436 c 0,41,42
 389 436 389 436 392 434 c 0,43,44
 397 432 397 432 401 426 c 0,45,46
 404 423 404 423 409 405 c 1,47,-1
 345 204 l 2,48,49
 341 193 341 193 323 187 c 0,50,51
 316 188 316 188 312 190 c 0,52,53
 311 190 311 190 308 192 c 0,54,55
 306 192 306 192 302 196 c 0,56,57
 299 199 299 199 296 218 c 1,58,-1
 319 292 l 1,59,-1
 198 292 l 1,60,-1
 125 53 l 1,61,-1
 387 53 l 1,62,-1
 444 206 l 2,63,64
 448 216 448 216 466 222 c 0,65,66
 473 222 473 222 477 220 c 128,-1,67
 481 218 481 218 486 212 c 0,68,69
 488 210 488 210 489 202 c 256,70,71
 490 194 490 194 492 190 c 2,72,-1
 423 1 l 1,73,-1
 27 1 l 2,74,75
 6 1 6 1 2 27 c 0,76,77
 2 43 2 43 25 53 c 1,78,-1
 70 53 l 1,79,-1
 223 550 l 1,80,-1
 119 550 l 2,81,82
 98 550 98 550 94 576 c 0,83,84
 94 592 94 592 117 602 c 1,85,-1
 600 602 l 1,27,-1
EndSplineSet
EndChar

StartChar: Edieresis
Encoding: 203 203 142
Width: 600
GlyphClass: 2
Flags: W
LayerCount: 2
Fore
SplineSet
635 708 m 5,0,1
 635 670 635 670 613 648 c 4,2,3
 601 637 601 637 588 629 c 4,4,5
 579 626 579 626 553 624 c 4,6,7
 518 624 518 624 495 647 c 4,8,9
 474 670 474 670 472 707 c 4,10,11
 472 740 472 740 493 764 c 4,12,13
 514 787 514 787 553 789 c 4,14,15
 592 789 592 789 614 763 c 6,16,-1
 622 751 l 5,17,-1
 630 735 l 5,18,-1
 635 708 l 5,0,1
303 708 m 5,19,20
 303 669 303 669 281 648 c 4,21,22
 260 624 260 624 222 624 c 4,23,24
 187 624 187 624 163 648 c 4,25,26
 142 671 142 671 140 707 c 4,27,28
 140 738 140 738 160 764 c 4,29,30
 182 788 182 788 222 789 c 4,31,32
 262 789 262 789 282 763 c 6,33,-1
 291 751 l 5,34,-1
 299 735 l 5,35,-1
 303 708 l 5,19,20
600 602 m 1,36,-1
 549 425 l 2,37,38
 545 408 545 408 525 406 c 1,39,-1
 513 409 l 1,40,-1
 506 414 l 2,41,42
 502 419 502 419 499 437 c 1,43,-1
 531 550 l 1,44,-1
 278 550 l 1,45,-1
 214 345 l 1,46,-1
 336 345 l 1,47,-1
 359 418 l 2,48,49
 364 432 364 432 382 436 c 0,50,51
 389 436 389 436 392 434 c 0,52,53
 397 432 397 432 401 426 c 0,54,55
 404 423 404 423 409 405 c 1,56,-1
 345 204 l 2,57,58
 341 193 341 193 323 187 c 0,59,60
 316 188 316 188 312 190 c 0,61,62
 311 190 311 190 308 192 c 0,63,64
 306 192 306 192 302 196 c 0,65,66
 299 199 299 199 296 218 c 1,67,-1
 319 292 l 1,68,-1
 198 292 l 1,69,-1
 125 53 l 1,70,-1
 387 53 l 1,71,-1
 444 206 l 2,72,73
 448 216 448 216 466 222 c 0,74,75
 473 222 473 222 477 220 c 128,-1,76
 481 218 481 218 486 212 c 0,77,78
 488 210 488 210 489 202 c 256,79,80
 490 194 490 194 492 190 c 2,81,-1
 423 1 l 1,82,-1
 27 1 l 2,83,84
 6 1 6 1 2 27 c 0,85,86
 2 43 2 43 25 53 c 1,87,-1
 70 53 l 1,88,-1
 223 550 l 1,89,-1
 119 550 l 2,90,91
 98 550 98 550 94 576 c 0,92,93
 94 592 94 592 117 602 c 1,94,-1
 600 602 l 1,36,-1
EndSplineSet
EndChar

StartChar: Igrave
Encoding: 204 204 143
Width: 600
GlyphClass: 2
Flags: W
LayerCount: 2
Fore
SplineSet
449 622 m 1,0,-1
 384 623 l 1,1,-1
 199 782 l 1,2,-1
 358 782 l 1,3,-1
 449 622 l 1,0,-1
593 577 m 0,4,5
 593 553 593 553 567 550 c 2,6,-1
 403 550 l 1,7,-1
 249 48 l 1,8,-1
 411 48 l 2,9,10
 433 48 433 48 437 23 c 0,11,12
 437 -1 437 -1 411 -4 c 2,13,-1
 34 -4 l 2,14,15
 13 -4 13 -4 9 22 c 0,16,17
 9 38 9 38 32 48 c 1,18,-1
 194 48 l 1,19,-1
 348 550 l 1,20,-1
 178 550 l 2,21,22
 157 550 157 550 153 576 c 0,23,24
 153 592 153 592 176 602 c 1,25,-1
 567 602 l 2,26,27
 589 602 589 602 593 577 c 0,4,5
EndSplineSet
EndChar

StartChar: Iacute
Encoding: 205 205 144
Width: 600
GlyphClass: 2
Flags: W
LayerCount: 2
Fore
SplineSet
384 622 m 5,0,-1
 449 623 l 5,1,-1
 634 782 l 5,2,-1
 475 782 l 5,3,-1
 384 622 l 5,0,-1
593 577 m 0,4,5
 593 553 593 553 567 550 c 2,6,-1
 403 550 l 1,7,-1
 249 48 l 1,8,-1
 411 48 l 2,9,10
 433 48 433 48 437 23 c 0,11,12
 437 -1 437 -1 411 -4 c 2,13,-1
 34 -4 l 2,14,15
 13 -4 13 -4 9 22 c 0,16,17
 9 38 9 38 32 48 c 1,18,-1
 194 48 l 1,19,-1
 348 550 l 1,20,-1
 178 550 l 2,21,22
 157 550 157 550 153 576 c 0,23,24
 153 592 153 592 176 602 c 1,25,-1
 567 602 l 2,26,27
 589 602 589 602 593 577 c 0,4,5
EndSplineSet
EndChar

StartChar: Icircumflex
Encoding: 206 206 145
Width: 600
GlyphClass: 2
Flags: W
LayerCount: 2
Fore
SplineSet
540 629 m 6,0,1
 543 625 543 625 543 621 c 260,2,3
 543 617 543 617 538 611 c 4,4,5
 534 605 534 605 519 604 c 4,6,7
 515 604 515 604 500 610 c 4,8,9
 499 611 499 611 498 612 c 6,10,-1
 375 777 l 5,11,-1
 254 613 l 5,12,-1
 254 612 l 5,13,14
 247 605 247 605 234 604 c 4,15,16
 226 604 226 604 216 609 c 4,17,18
 215 609 215 609 214 611 c 4,19,20
 212 616 212 616 210 624 c 4,21,22
 210 626 210 626 211 628 c 6,23,-1
 371 845 l 6,24,25
 375 851 375 851 379 845 c 6,26,-1
 540 629 l 6,0,1
593 577 m 0,27,28
 593 553 593 553 567 550 c 2,29,-1
 403 550 l 1,30,-1
 249 48 l 1,31,-1
 411 48 l 2,32,33
 433 48 433 48 437 23 c 0,34,35
 437 -1 437 -1 411 -4 c 2,36,-1
 34 -4 l 2,37,38
 13 -4 13 -4 9 22 c 0,39,40
 9 38 9 38 32 48 c 1,41,-1
 194 48 l 1,42,-1
 348 550 l 1,43,-1
 178 550 l 2,44,45
 157 550 157 550 153 576 c 0,46,47
 153 592 153 592 176 602 c 1,48,-1
 567 602 l 2,49,50
 589 602 589 602 593 577 c 0,27,28
EndSplineSet
EndChar

StartChar: Idieresis
Encoding: 207 207 146
Width: 600
GlyphClass: 2
Flags: W
LayerCount: 2
Fore
SplineSet
635 708 m 1,0,1
 635 670 635 670 613 648 c 0,2,3
 601 637 601 637 588 629 c 0,4,5
 579 626 579 626 553 624 c 0,6,7
 518 624 518 624 495 647 c 0,8,9
 474 670 474 670 472 707 c 0,10,11
 472 740 472 740 493 764 c 0,12,13
 514 787 514 787 553 789 c 0,14,15
 592 789 592 789 614 763 c 2,16,-1
 622 751 l 1,17,-1
 630 735 l 1,18,-1
 635 708 l 1,0,1
303 708 m 5,19,20
 303 669 303 669 281 648 c 4,21,22
 260 624 260 624 222 624 c 4,23,24
 187 624 187 624 163 648 c 4,25,26
 142 671 142 671 140 707 c 4,27,28
 140 738 140 738 160 764 c 4,29,30
 182 788 182 788 222 789 c 4,31,32
 262 789 262 789 282 763 c 6,33,-1
 291 751 l 5,34,-1
 299 735 l 5,35,-1
 303 708 l 5,19,20
593 577 m 0,36,37
 593 553 593 553 567 550 c 2,38,-1
 403 550 l 1,39,-1
 249 48 l 1,40,-1
 411 48 l 2,41,42
 433 48 433 48 437 23 c 0,43,44
 437 -1 437 -1 411 -4 c 2,45,-1
 34 -4 l 2,46,47
 13 -4 13 -4 9 22 c 0,48,49
 9 38 9 38 32 48 c 1,50,-1
 194 48 l 1,51,-1
 348 550 l 1,52,-1
 178 550 l 2,53,54
 157 550 157 550 153 576 c 0,55,56
 153 592 153 592 176 602 c 1,57,-1
 567 602 l 2,58,59
 589 602 589 602 593 577 c 0,36,37
EndSplineSet
EndChar

StartChar: Eth
Encoding: 208 208 147
Width: 600
GlyphClass: 2
Flags: W
LayerCount: 2
Fore
SplineSet
303 302 m 1,0,1
 303 273 303 273 268 273 c 2,2,-1
 93 273 l 2,3,4
 65 273 65 273 59 299 c 1,5,6
 59 318 59 318 90 327 c 1,7,-1
 268 327 l 2,8,9
 297 327 297 327 303 302 c 1,0,1
572 409 m 2,10,-1
 572 368 l 2,11,12
 571 363 571 363 569.5 353 c 128,-1,13
 568 343 568 343 567 338 c 0,14,15
 566 324 566 324 552 288 c 0,16,17
 507 148 507 148 421 77 c 0,18,19
 329 -1 329 -1 179 -2 c 2,20,-1
 31 -2 l 2,21,22
 10 -2 10 -2 6 24 c 0,23,24
 6 40 6 40 29 50 c 1,25,-1
 72 50 l 1,26,-1
 219 547 l 1,27,-1
 140 547 l 2,28,29
 119 547 119 547 115 573 c 0,30,31
 115 589 115 589 138 599 c 1,32,-1
 416 599 l 2,33,34
 491 599 491 599 538 540 c 1,35,36
 571 490 571 490 572 409 c 2,10,-1
520 409 m 0,37,38
 520 472 520 472 497 506 c 0,39,40
 469 545 469 545 416 547 c 2,41,-1
 275 547 l 1,42,-1
 127 50 l 1,43,-1
 179 50 l 2,44,45
 308 50 308 50 388 117 c 0,46,47
 449 167 449 167 503 306 c 0,48,49
 518 354 518 354 520 409 c 0,37,38
EndSplineSet
EndChar

StartChar: Ntilde
Encoding: 209 209 148
Width: 600
GlyphClass: 2
Flags: W
LayerCount: 2
Fore
SplineSet
598 733 m 5,0,1
 598 690 598 690 569 657 c 4,2,3
 542 626 542 626 500 626 c 4,4,5
 460 626 460 626 421 663 c 4,6,7
 381 700 381 700 357 719 c 4,8,9
 333 737 333 737 322 738 c 4,10,11
 302 738 302 738 277 718 c 5,12,13
 259 698 259 698 257 670 c 4,14,15
 257 652 257 652 238 652 c 4,16,17
 221 652 221 652 218 670 c 4,18,19
 218 710 218 710 248 742 c 260,20,21
 278 774 278 774 323 775 c 4,22,23
 364 775 364 775 421 717 c 4,24,25
 472 663 472 663 497 663 c 4,26,27
 523 663 523 663 542 682 c 4,28,29
 560 705 560 705 560 732 c 4,30,31
 560 748 560 748 578 749 c 4,32,33
 591 749 591 749 598 733 c 5,0,1
603 577 m 0,34,35
 603 553 603 553 577 550 c 2,36,-1
 558 550 l 1,37,-1
 413 -3 l 1,38,-1
 344 -3 l 1,39,-1
 241 550 l 1,40,-1
 104 48 l 1,41,-1
 182 48 l 2,42,43
 204 48 204 48 208 23 c 0,44,45
 208 -1 208 -1 182 -4 c 2,46,-1
 25 -4 l 2,47,48
 4 -4 4 -4 0 22 c 0,49,50
 0 38 0 38 23 48 c 1,51,-1
 49 48 l 1,52,-1
 184 550 l 1,53,-1
 114 550 l 2,54,55
 93 550 93 550 89 576 c 0,56,57
 89 592 89 592 112 602 c 1,58,-1
 284 602 l 1,59,-1
 381 85 l 1,60,-1
 504 550 l 1,61,-1
 441 550 l 2,62,63
 420 550 420 550 416 576 c 0,64,65
 416 592 416 592 439 602 c 1,66,-1
 577 602 l 2,67,68
 599 602 599 602 603 577 c 0,34,35
EndSplineSet
EndChar

StartChar: Ograve
Encoding: 210 210 149
Width: 600
GlyphClass: 2
Flags: W
LayerCount: 2
Fore
SplineSet
449 622 m 1,0,-1
 384 623 l 1,1,-1
 199 782 l 1,2,-1
 358 782 l 1,3,-1
 449 622 l 1,0,-1
581 418 m 0,4,5
 581 272 581 272 476 131 c 0,6,7
 362 -19 362 -19 213 -20 c 0,8,9
 127 -20 127 -20 79 37 c 0,10,11
 40 85 40 85 38 174 c 0,12,13
 38 322 38 322 140 460 c 0,14,15
 250 607 250 607 404 609 c 0,16,17
 494 609 494 609 540 553 c 0,18,19
 579 506 579 506 581 418 c 0,4,5
525 419 m 0,20,21
 525 483 525 483 494 521 c 0,22,23
 464 560 464 560 402 560 c 0,24,25
 285 560 285 560 183 427 c 1,26,27
 96 305 96 305 94 173 c 0,28,29
 94 109 94 109 123 68 c 0,30,31
 152 28 152 28 215 27 c 0,32,33
 327 27 327 27 432 163 c 0,34,35
 525 289 525 289 525 419 c 0,20,21
EndSplineSet
EndChar

StartChar: Oacute
Encoding: 211 211 150
Width: 600
GlyphClass: 2
Flags: W
LayerCount: 2
Fore
SplineSet
384 622 m 5,0,-1
 449 623 l 5,1,-1
 634 782 l 5,2,-1
 475 782 l 5,3,-1
 384 622 l 5,0,-1
581 418 m 0,4,5
 581 272 581 272 476 131 c 0,6,7
 362 -19 362 -19 213 -20 c 0,8,9
 127 -20 127 -20 79 37 c 0,10,11
 40 85 40 85 38 174 c 0,12,13
 38 322 38 322 140 460 c 0,14,15
 250 607 250 607 404 609 c 0,16,17
 494 609 494 609 540 553 c 0,18,19
 579 506 579 506 581 418 c 0,4,5
525 419 m 0,20,21
 525 483 525 483 494 521 c 0,22,23
 464 560 464 560 402 560 c 0,24,25
 285 560 285 560 183 427 c 1,26,27
 96 305 96 305 94 173 c 0,28,29
 94 109 94 109 123 68 c 0,30,31
 152 28 152 28 215 27 c 0,32,33
 327 27 327 27 432 163 c 0,34,35
 525 289 525 289 525 419 c 0,20,21
EndSplineSet
EndChar

StartChar: Ocircumflex
Encoding: 212 212 151
Width: 600
GlyphClass: 2
Flags: W
LayerCount: 2
Fore
SplineSet
540 629 m 2,0,1
 543 625 543 625 543 621 c 256,2,3
 543 617 543 617 538 611 c 0,4,5
 534 605 534 605 519 604 c 0,6,7
 515 604 515 604 500 610 c 0,8,9
 499 611 499 611 498 612 c 2,10,-1
 375 777 l 1,11,-1
 254 613 l 1,12,-1
 254 612 l 1,13,14
 247 605 247 605 234 604 c 0,15,16
 226 604 226 604 216 609 c 0,17,18
 215 609 215 609 214 611 c 0,19,20
 212 616 212 616 210 624 c 0,21,22
 210 626 210 626 211 628 c 2,23,-1
 371 845 l 2,24,25
 375 851 375 851 379 845 c 2,26,-1
 540 629 l 2,0,1
581 418 m 0,27,28
 581 272 581 272 476 131 c 0,29,30
 362 -19 362 -19 213 -20 c 0,31,32
 127 -20 127 -20 79 37 c 0,33,34
 40 85 40 85 38 174 c 0,35,36
 38 322 38 322 140 460 c 0,37,38
 250 607 250 607 404 609 c 0,39,40
 494 609 494 609 540 553 c 0,41,42
 579 506 579 506 581 418 c 0,27,28
525 419 m 0,43,44
 525 483 525 483 494 521 c 0,45,46
 464 560 464 560 402 560 c 0,47,48
 285 560 285 560 183 427 c 1,49,50
 96 305 96 305 94 173 c 0,51,52
 94 109 94 109 123 68 c 0,53,54
 152 28 152 28 215 27 c 0,55,56
 327 27 327 27 432 163 c 0,57,58
 525 289 525 289 525 419 c 0,43,44
EndSplineSet
EndChar

StartChar: Otilde
Encoding: 213 213 152
Width: 600
GlyphClass: 2
Flags: W
LayerCount: 2
Fore
SplineSet
598 733 m 1,0,1
 598 690 598 690 569 657 c 0,2,3
 542 626 542 626 500 626 c 0,4,5
 460 626 460 626 421 663 c 0,6,7
 381 700 381 700 357 719 c 0,8,9
 333 737 333 737 322 738 c 0,10,11
 302 738 302 738 277 718 c 1,12,13
 259 698 259 698 257 670 c 0,14,15
 257 652 257 652 238 652 c 0,16,17
 221 652 221 652 218 670 c 0,18,19
 218 710 218 710 248 742 c 256,20,21
 278 774 278 774 323 775 c 0,22,23
 364 775 364 775 421 717 c 0,24,25
 472 663 472 663 497 663 c 0,26,27
 523 663 523 663 542 682 c 0,28,29
 560 705 560 705 560 732 c 0,30,31
 560 748 560 748 578 749 c 0,32,33
 591 749 591 749 598 733 c 1,0,1
581 418 m 0,34,35
 581 272 581 272 476 131 c 0,36,37
 362 -19 362 -19 213 -20 c 0,38,39
 127 -20 127 -20 79 37 c 0,40,41
 40 85 40 85 38 174 c 0,42,43
 38 322 38 322 140 460 c 0,44,45
 250 607 250 607 404 609 c 0,46,47
 494 609 494 609 540 553 c 0,48,49
 579 506 579 506 581 418 c 0,34,35
525 419 m 0,50,51
 525 483 525 483 494 521 c 0,52,53
 464 560 464 560 402 560 c 0,54,55
 285 560 285 560 183 427 c 1,56,57
 96 305 96 305 94 173 c 0,58,59
 94 109 94 109 123 68 c 0,60,61
 152 28 152 28 215 27 c 0,62,63
 327 27 327 27 432 163 c 0,64,65
 525 289 525 289 525 419 c 0,50,51
EndSplineSet
EndChar

StartChar: Odieresis
Encoding: 214 214 153
Width: 600
GlyphClass: 2
Flags: W
LayerCount: 2
Fore
SplineSet
635 708 m 1,0,1
 635 670 635 670 613 648 c 0,2,3
 601 637 601 637 588 629 c 0,4,5
 579 626 579 626 553 624 c 0,6,7
 518 624 518 624 495 647 c 0,8,9
 474 670 474 670 472 707 c 0,10,11
 472 740 472 740 493 764 c 0,12,13
 514 787 514 787 553 789 c 0,14,15
 592 789 592 789 614 763 c 2,16,-1
 622 751 l 1,17,-1
 630 735 l 1,18,-1
 635 708 l 1,0,1
303 708 m 1,19,20
 303 669 303 669 281 648 c 0,21,22
 260 624 260 624 222 624 c 0,23,24
 187 624 187 624 163 648 c 0,25,26
 142 671 142 671 140 707 c 0,27,28
 140 738 140 738 160 764 c 0,29,30
 182 788 182 788 222 789 c 0,31,32
 262 789 262 789 282 763 c 2,33,-1
 291 751 l 1,34,-1
 299 735 l 1,35,-1
 303 708 l 1,19,20
581 418 m 0,36,37
 581 272 581 272 476 131 c 0,38,39
 362 -19 362 -19 213 -20 c 0,40,41
 127 -20 127 -20 79 37 c 0,42,43
 40 85 40 85 38 174 c 0,44,45
 38 322 38 322 140 460 c 0,46,47
 250 607 250 607 404 609 c 0,48,49
 494 609 494 609 540 553 c 0,50,51
 579 506 579 506 581 418 c 0,36,37
525 419 m 0,52,53
 525 483 525 483 494 521 c 0,54,55
 464 560 464 560 402 560 c 0,56,57
 285 560 285 560 183 427 c 1,58,59
 96 305 96 305 94 173 c 0,60,61
 94 109 94 109 123 68 c 0,62,63
 152 28 152 28 215 27 c 0,64,65
 327 27 327 27 432 163 c 0,66,67
 525 289 525 289 525 419 c 0,52,53
EndSplineSet
EndChar

StartChar: multiply
Encoding: 215 215 154
Width: 600
GlyphClass: 2
Flags: W
LayerCount: 2
Fore
SplineSet
486 138 m 1,0,-1
 477 122 l 1,1,-1
 467 114 l 1,2,-1
 461 113 l 2,3,4
 447 113 447 113 441 119 c 2,5,-1
 299 262 l 1,6,-1
 154 118 l 1,7,-1
 140 112 l 1,8,9
 127 112 127 112 119 120 c 1,10,-1
 112 136 l 1,11,12
 112 148 112 148 120 155 c 2,13,-1
 263 299 l 1,14,-1
 119 444 l 1,15,-1
 112 457 l 1,16,17
 112 469 112 469 120 477 c 0,18,19
 127 486 127 486 139 486 c 0,20,21
 148 486 148 486 156 478 c 2,22,-1
 299 335 l 1,23,-1
 442 479 l 1,24,-1
 457 486 l 1,25,26
 468 486 468 486 476 478 c 0,27,28
 485 472 485 472 485 459 c 0,29,30
 485 450 485 450 477 442 c 2,31,-1
 335 299 l 1,32,-1
 478 154 l 1,33,-1
 486 138 l 1,0,-1
EndSplineSet
EndChar

StartChar: Oslash
Encoding: 216 216 155
Width: 600
GlyphClass: 2
Flags: W
LayerCount: 2
Fore
SplineSet
554 615 m 1,0,-1
 550 603 l 1,1,-1
 93 -32 l 2,2,3
 88 -41 88 -41 74 -43 c 0,4,5
 62 -43 62 -43 54 -35 c 0,6,7
 49 -29 49 -29 46 -14 c 1,8,-1
 50 -3 l 1,9,-1
 507 632 l 2,10,11
 512 642 512 642 527 643 c 0,12,13
 551 643 551 643 554 615 c 1,0,-1
581 418 m 0,14,15
 581 272 581 272 476 131 c 0,16,17
 362 -19 362 -19 213 -20 c 0,18,19
 127 -20 127 -20 79 37 c 0,20,21
 40 85 40 85 38 174 c 0,22,23
 38 322 38 322 140 460 c 0,24,25
 250 607 250 607 404 609 c 0,26,27
 494 609 494 609 540 553 c 0,28,29
 579 506 579 506 581 418 c 0,14,15
525 419 m 0,30,31
 525 483 525 483 494 521 c 0,32,33
 464 560 464 560 402 560 c 0,34,35
 285 560 285 560 183 427 c 1,36,37
 96 305 96 305 94 173 c 0,38,39
 94 109 94 109 123 68 c 0,40,41
 152 28 152 28 215 27 c 0,42,43
 327 27 327 27 432 163 c 0,44,45
 525 289 525 289 525 419 c 0,30,31
EndSplineSet
EndChar

StartChar: Ugrave
Encoding: 217 217 156
Width: 600
GlyphClass: 2
Flags: W
LayerCount: 2
Fore
SplineSet
449 622 m 1,0,-1
 384 623 l 1,1,-1
 199 782 l 1,2,-1
 358 782 l 1,3,-1
 449 622 l 1,0,-1
596 577 m 0,4,5
 596 553 596 553 570 550 c 2,6,-1
 535 550 l 1,7,-1
 414 152 l 2,8,9
 395 84 395 84 329 33 c 0,10,11
 267 -14 267 -14 193 -16 c 1,12,-1
 174 -15 l 2,13,14
 159 -15 159 -15 149 -10 c 0,15,16
 99 2 99 2 62 45 c 0,17,18
 26 90 26 90 26 138 c 1,19,-1
 32 177 l 1,20,-1
 151 550 l 1,21,-1
 74 550 l 2,22,23
 53 550 53 550 49 576 c 0,24,25
 49 592 49 592 72 602 c 1,26,-1
 275 602 l 2,27,28
 297 602 297 602 301 577 c 0,29,30
 301 553 301 553 275 550 c 2,31,-1
 206 550 l 1,32,-1
 82 162 l 1,33,-1
 78 137 l 2,34,35
 78 120 78 120 83 107 c 0,36,37
 88 93 88 93 100 79 c 0,38,39
 126 53 126 53 161 41 c 2,40,-1
 178 37 l 1,41,-1
 196 36 l 2,42,43
 246 36 246 36 295 75 c 0,44,45
 345 114 345 114 364 167 c 2,46,-1
 480 550 l 1,47,-1
 440 550 l 2,48,49
 419 550 419 550 415 576 c 0,50,51
 415 593 415 593 439 602 c 1,52,-1
 570 602 l 2,53,54
 592 602 592 602 596 577 c 0,4,5
EndSplineSet
EndChar

StartChar: Uacute
Encoding: 218 218 157
Width: 600
GlyphClass: 2
Flags: W
LayerCount: 2
Fore
SplineSet
328 622 m 1,0,-1
 393 623 l 1,1,-1
 578 782 l 1,2,-1
 419 782 l 1,3,-1
 328 622 l 1,0,-1
596 577 m 0,4,5
 596 553 596 553 570 550 c 2,6,-1
 535 550 l 1,7,-1
 414 152 l 2,8,9
 395 84 395 84 329 33 c 0,10,11
 267 -14 267 -14 193 -16 c 1,12,-1
 174 -15 l 2,13,14
 159 -15 159 -15 149 -10 c 0,15,16
 99 2 99 2 62 45 c 0,17,18
 26 90 26 90 26 138 c 1,19,-1
 32 177 l 1,20,-1
 151 550 l 1,21,-1
 74 550 l 2,22,23
 53 550 53 550 49 576 c 0,24,25
 49 592 49 592 72 602 c 1,26,-1
 275 602 l 2,27,28
 297 602 297 602 301 577 c 0,29,30
 301 553 301 553 275 550 c 2,31,-1
 206 550 l 1,32,-1
 82 162 l 1,33,-1
 78 137 l 2,34,35
 78 120 78 120 83 107 c 0,36,37
 88 93 88 93 100 79 c 0,38,39
 126 53 126 53 161 41 c 2,40,-1
 178 37 l 1,41,-1
 196 36 l 2,42,43
 246 36 246 36 295 75 c 0,44,45
 345 114 345 114 364 167 c 2,46,-1
 480 550 l 1,47,-1
 440 550 l 2,48,49
 419 550 419 550 415 576 c 0,50,51
 415 593 415 593 439 602 c 1,52,-1
 570 602 l 2,53,54
 592 602 592 602 596 577 c 0,4,5
EndSplineSet
EndChar

StartChar: Ucircumflex
Encoding: 219 219 158
Width: 600
GlyphClass: 2
Flags: W
LayerCount: 2
Fore
SplineSet
540 629 m 2,0,1
 543 625 543 625 543 621 c 256,2,3
 543 617 543 617 538 611 c 0,4,5
 534 605 534 605 519 604 c 0,6,7
 515 604 515 604 500 610 c 0,8,9
 499 611 499 611 498 612 c 2,10,-1
 375 777 l 1,11,-1
 254 613 l 1,12,-1
 254 612 l 1,13,14
 247 605 247 605 234 604 c 0,15,16
 226 604 226 604 216 609 c 0,17,18
 215 609 215 609 214 611 c 0,19,20
 212 616 212 616 210 624 c 0,21,22
 210 626 210 626 211 628 c 2,23,-1
 371 845 l 2,24,25
 375 851 375 851 379 845 c 2,26,-1
 540 629 l 2,0,1
596 577 m 0,27,28
 596 553 596 553 570 550 c 2,29,-1
 535 550 l 1,30,-1
 414 152 l 2,31,32
 395 84 395 84 329 33 c 0,33,34
 267 -14 267 -14 193 -16 c 1,35,-1
 174 -15 l 2,36,37
 159 -15 159 -15 149 -10 c 0,38,39
 99 2 99 2 62 45 c 0,40,41
 26 90 26 90 26 138 c 1,42,-1
 32 177 l 1,43,-1
 151 550 l 1,44,-1
 74 550 l 2,45,46
 53 550 53 550 49 576 c 0,47,48
 49 592 49 592 72 602 c 1,49,-1
 275 602 l 2,50,51
 297 602 297 602 301 577 c 0,52,53
 301 553 301 553 275 550 c 2,54,-1
 206 550 l 1,55,-1
 82 162 l 1,56,-1
 78 137 l 2,57,58
 78 120 78 120 83 107 c 0,59,60
 88 93 88 93 100 79 c 0,61,62
 126 53 126 53 161 41 c 2,63,-1
 178 37 l 1,64,-1
 196 36 l 2,65,66
 246 36 246 36 295 75 c 0,67,68
 345 114 345 114 364 167 c 2,69,-1
 480 550 l 1,70,-1
 440 550 l 2,71,72
 419 550 419 550 415 576 c 0,73,74
 415 593 415 593 439 602 c 1,75,-1
 570 602 l 2,76,77
 592 602 592 602 596 577 c 0,27,28
EndSplineSet
EndChar

StartChar: Udieresis
Encoding: 220 220 159
Width: 600
GlyphClass: 2
Flags: W
LayerCount: 2
Fore
SplineSet
635 708 m 1,0,1
 635 670 635 670 613 648 c 0,2,3
 601 637 601 637 588 629 c 0,4,5
 579 626 579 626 553 624 c 0,6,7
 518 624 518 624 495 647 c 0,8,9
 474 670 474 670 472 707 c 0,10,11
 472 740 472 740 493 764 c 0,12,13
 514 787 514 787 553 789 c 0,14,15
 592 789 592 789 614 763 c 2,16,-1
 622 751 l 1,17,-1
 630 735 l 1,18,-1
 635 708 l 1,0,1
303 708 m 1,19,20
 303 669 303 669 281 648 c 0,21,22
 260 624 260 624 222 624 c 0,23,24
 187 624 187 624 163 648 c 0,25,26
 142 671 142 671 140 707 c 0,27,28
 140 738 140 738 160 764 c 0,29,30
 182 788 182 788 222 789 c 0,31,32
 262 789 262 789 282 763 c 2,33,-1
 291 751 l 1,34,-1
 299 735 l 1,35,-1
 303 708 l 1,19,20
596 577 m 0,36,37
 596 553 596 553 570 550 c 2,38,-1
 535 550 l 1,39,-1
 414 152 l 2,40,41
 395 84 395 84 329 33 c 0,42,43
 267 -14 267 -14 193 -16 c 1,44,-1
 174 -15 l 2,45,46
 159 -15 159 -15 149 -10 c 0,47,48
 99 2 99 2 62 45 c 0,49,50
 26 90 26 90 26 138 c 1,51,-1
 32 177 l 1,52,-1
 151 550 l 1,53,-1
 74 550 l 2,54,55
 53 550 53 550 49 576 c 0,56,57
 49 592 49 592 72 602 c 1,58,-1
 275 602 l 2,59,60
 297 602 297 602 301 577 c 0,61,62
 301 553 301 553 275 550 c 2,63,-1
 206 550 l 1,64,-1
 82 162 l 1,65,-1
 78 137 l 2,66,67
 78 120 78 120 83 107 c 0,68,69
 88 93 88 93 100 79 c 0,70,71
 126 53 126 53 161 41 c 2,72,-1
 178 37 l 1,73,-1
 196 36 l 2,74,75
 246 36 246 36 295 75 c 0,76,77
 345 114 345 114 364 167 c 2,78,-1
 480 550 l 1,79,-1
 440 550 l 2,80,81
 419 550 419 550 415 576 c 0,82,83
 415 593 415 593 439 602 c 1,84,-1
 570 602 l 2,85,86
 592 602 592 602 596 577 c 0,36,37
EndSplineSet
EndChar

StartChar: Yacute
Encoding: 221 221 160
Width: 600
GlyphClass: 2
Flags: W
LayerCount: 2
Fore
SplineSet
328 622 m 1,0,-1
 393 623 l 1,1,-1
 578 782 l 1,2,-1
 419 782 l 1,3,-1
 328 622 l 1,0,-1
588 577 m 0,4,5
 588 553 588 553 562 550 c 2,6,-1
 531 550 l 1,7,-1
 530 547 l 1,8,-1
 328 269 l 1,9,-1
 250 50 l 1,10,-1
 376 50 l 2,11,12
 398 50 398 50 402 25 c 0,13,14
 402 1 402 1 376 -2 c 2,15,-1
 33 -2 l 2,16,17
 12 -2 12 -2 8 24 c 0,18,19
 8 40 8 40 31 50 c 1,20,-1
 196 50 l 1,21,-1
 274 266 l 1,22,-1
 157 548 l 1,23,-1
 121 548 l 2,24,25
 100 548 100 548 96 574 c 0,26,27
 96 590 96 590 119 600 c 1,28,-1
 281 600 l 2,29,30
 303 600 303 600 307 575 c 0,31,32
 307 551 307 551 281 548 c 2,33,-1
 213 548 l 1,34,-1
 304 322 l 1,35,-1
 467 550 l 1,36,-1
 399 550 l 2,37,38
 377 550 377 550 373 576 c 0,39,40
 373 593 373 593 397 602 c 1,41,-1
 562 602 l 2,42,43
 584 602 584 602 588 577 c 0,4,5
EndSplineSet
EndChar

StartChar: Thorn
Encoding: 222 222 161
Width: 600
GlyphClass: 2
Flags: W
LayerCount: 2
Fore
SplineSet
287 348 m 1,0,-1
 430 348 l 2,1,2
 491 348 491 348 539 313 c 0,3,4
 590 277 590 277 588 226 c 2,5,-1
 587 194 l 1,6,7
 581 133 581 133 544 87 c 0,8,9
 475 0 475 0 367 0 c 2,10,-1
 192 0 l 1,11,-1
 141 -192 l 1,12,-1
 270 -192 l 2,13,14
 294 -192 294 -192 296 -217 c 0,15,16
 298 -244 298 -244 270 -244 c 2,17,-1
 25 -244 l 2,18,19
 2 -244 2 -244 0 -218 c 0,20,21
 -1 -203 -1 -203 23 -192 c 1,22,-1
 87 -192 l 1,23,-1
 220 296 l 1,24,-1
 288 550 l 1,25,-1
 190 550 l 2,26,27
 167 550 167 550 165 576 c 0,28,29
 164 591 164 591 188 602 c 1,30,-1
 432 602 l 2,31,32
 456 602 456 602 458 577 c 0,33,34
 460 550 460 550 432 550 c 2,35,-1
 343 550 l 1,36,-1
 287 348 l 1,0,-1
536 226 m 0,37,38
 536 248 536 248 504 271 c 0,39,40
 501 273 501 273 498.5 274.5 c 128,-1,41
 496 276 496 276 494 277 c 128,-1,42
 492 278 492 278 490.5 279 c 128,-1,43
 489 280 489 280 488 281 c 0,44,45
 483 284 483 284 464 291 c 0,46,47
 453 294 453 294 429 296 c 2,48,-1
 274 296 l 1,49,-1
 208 52 l 1,50,-1
 367 52 l 2,51,52
 448 52 448 52 503 120 c 0,53,54
 518 138 518 138 527 166 c 0,55,56
 536 193 536 193 536 226 c 0,37,38
EndSplineSet
EndChar

StartChar: germandbls
Encoding: 223 223 162
Width: 600
GlyphClass: 2
Flags: W
LayerCount: 2
Fore
SplineSet
391 547 m 2,0,-1
 388 549 l 1,1,-1
 375 552 l 1,2,-1
 349 553 l 2,3,4
 310 555 310 555 271 517 c 0,5,6
 233 480 233 480 228 448 c 2,7,-1
 218 383 l 1,8,-1
 210 330 l 1,9,-1
 151 -38 l 2,10,11
 143 -87 143 -87 110 -121 c 0,12,13
 76 -157 76 -157 23 -157 c 0,14,15
 -10 -157 -10 -157 -37 -136 c 128,-1,16
 -64 -115 -64 -115 -64 -75 c 0,17,18
 -64 -18 -64 -18 0 -17 c 0,19,20
 21 -17 21 -17 31 -27 c 0,21,22
 41 -36 41 -36 48 -62 c 1,23,24
 48 -81 48 -81 31 -101 c 1,25,26
 51 -101 51 -101 76 -78 c 0,27,28
 94 -61 94 -61 99 -31 c 2,29,-1
 156 330 l 1,30,-1
 164 383 l 1,31,-1
 176 458 l 2,32,33
 184 510 184 510 233 555 c 0,34,35
 287 606 287 606 349 606 c 0,36,37
 403 606 403 606 438 584 c 0,38,39
 493 549 493 549 505 485 c 0,40,41
 513 441 513 441 486 392 c 1,42,43
 427 392 427 392 377 368 c 2,44,-1
 350 355 l 1,45,-1
 331 341 l 1,46,-1
 317 323 l 2,47,48
 312 316 312 316 313 305 c 2,49,-1
 314 295 l 2,50,51
 315 283 315 283 326 276 c 0,52,53
 343 265 343 265 369 261 c 2,54,-1
 503 240 l 1,55,56
 585 219 585 219 611 163 c 1,57,-1
 614 147 l 1,58,59
 614 91 614 91 527 40 c 0,60,61
 492 20 492 20 455 7 c 0,62,63
 444 3 444 3 414 -2 c 0,64,65
 393 -6 393 -6 381 -6 c 0,66,67
 298 -8 298 -8 239 33 c 0,68,69
 194 69 194 69 193 125 c 0,70,71
 193 142 193 142 208 157 c 0,72,73
 224 173 224 173 247 173 c 0,74,75
 266 173 266 173 283 159 c 0,76,77
 299 146 299 146 300 124 c 0,78,79
 300 105 300 105 292 93 c 128,-1,80
 284 81 284 81 264 75 c 1,81,-1
 246 76 l 2,82,83
 231 77 231 77 221 100 c 1,84,-1
 239 107 l 1,85,86
 248 79 248 79 286 62 c 0,87,88
 333 41 333 41 380 41 c 2,89,-1
 391 41 l 1,90,-1
 409 42 l 1,91,-1
 436 51 l 2,92,93
 468 62 468 62 505 85 c 0,94,95
 570 126 570 126 562 149 c 1,96,97
 558 178 558 178 419 196 c 0,98,99
 281 214 281 214 262 290 c 1,100,-1
 261 304 l 2,101,102
 258 342 258 342 295 378 c 0,103,104
 311 393 311 393 352 414 c 1,105,-1
 422 434 l 2,106,107
 446 441 446 441 453 457 c 0,108,109
 460 475 460 475 443 500 c 0,110,111
 426 524 426 524 391 547 c 2,0,-1
EndSplineSet
EndChar

StartChar: agrave
Encoding: 224 224 163
Width: 600
GlyphClass: 2
Flags: W
LayerCount: 2
Fore
SplineSet
451 545 m 1,0,-1
 386 546 l 1,1,-1
 201 705 l 1,2,-1
 360 705 l 1,3,-1
 451 545 l 1,0,-1
560 415 m 1,4,-1
 552 403 l 1,5,6
 525 380 525 380 466 250 c 0,7,8
 412 125 412 125 410 79 c 1,9,-1
 407 69 l 1,10,-1
 407 60 l 2,11,12
 407 48 407 48 414 41 c 0,13,14
 422 35 422 35 441 35 c 0,15,16
 450 35 450 35 473 53 c 1,17,-1
 488 71 l 1,18,-1
 505 96 l 2,19,20
 510 105 510 105 527 107 c 1,21,-1
 533 104 l 1,22,-1
 542 98 l 2,23,24
 546 97 546 97 550 81 c 1,25,-1
 547 68 l 1,26,-1
 509 19 l 1,27,28
 480 -11 480 -11 440 -13 c 0,29,30
 402 -13 402 -13 377 4 c 0,31,32
 359 20 359 20 357 49 c 2,33,-1
 357 65 l 2,34,35
 357 76 357 76 362 86 c 2,36,-1
 375 124 l 1,37,-1
 392 115 l 1,38,39
 351 66 351 66 286 28 c 0,40,41
 224 -7 224 -7 172 -9 c 2,42,-1
 161 -9 l 1,43,-1
 151 -7 l 2,44,45
 101 2 101 2 72 44 c 0,46,47
 61 63 61 63 54 84 c 0,48,49
 49 103 49 103 47 130 c 0,50,51
 47 219 47 219 109 299 c 0,52,53
 129 324 129 324 160 355 c 0,54,55
 182 375 182 375 218 402 c 0,56,57
 275 444 275 444 330 444 c 2,58,-1
 345 443 l 2,59,60
 390 443 390 443 426 410 c 0,61,62
 446 391 446 391 461 357 c 1,63,-1
 477 385 l 1,64,-1
 511 433 l 2,65,66
 517 441 517 441 529 443 c 0,67,68
 540 443 540 443 547 436 c 0,69,70
 554 433 554 433 560 415 c 1,4,-1
421 301 m 0,71,72
 421 337 421 337 401 360 c 0,73,74
 383 381 383 381 339 391 c 1,75,-1
 328 392 l 2,76,77
 292 392 292 392 245 360 c 0,78,79
 199 328 199 328 152 269 c 0,80,81
 126 238 126 238 113 204 c 0,82,83
 102 172 102 172 100 136 c 0,84,85
 100 99 100 99 114 75 c 0,86,87
 128 55 128 55 165 43 c 1,88,-1
 175 42 l 2,89,90
 209 42 209 42 269 75 c 0,91,92
 326 107 326 107 373 162 c 0,93,94
 384 178 384 178 402 233 c 0,95,96
 418 283 418 283 421 301 c 0,71,72
EndSplineSet
EndChar

StartChar: aacute
Encoding: 225 225 164
Width: 600
GlyphClass: 2
Flags: W
LayerCount: 2
Fore
SplineSet
384 546 m 1,0,-1
 449 547 l 1,1,-1
 634 706 l 1,2,-1
 475 706 l 1,3,-1
 384 546 l 1,0,-1
560 415 m 1,4,-1
 552 403 l 1,5,6
 525 380 525 380 466 250 c 0,7,8
 412 125 412 125 410 79 c 1,9,-1
 407 69 l 1,10,-1
 407 60 l 2,11,12
 407 48 407 48 414 41 c 0,13,14
 422 35 422 35 441 35 c 0,15,16
 450 35 450 35 473 53 c 1,17,-1
 488 71 l 1,18,-1
 505 96 l 2,19,20
 510 105 510 105 527 107 c 1,21,-1
 533 104 l 1,22,-1
 542 98 l 2,23,24
 546 97 546 97 550 81 c 1,25,-1
 547 68 l 1,26,-1
 509 19 l 1,27,28
 480 -11 480 -11 440 -13 c 0,29,30
 402 -13 402 -13 377 4 c 0,31,32
 359 20 359 20 357 49 c 2,33,-1
 357 65 l 2,34,35
 357 76 357 76 362 86 c 2,36,-1
 375 124 l 1,37,-1
 392 115 l 1,38,39
 351 66 351 66 286 28 c 0,40,41
 224 -7 224 -7 172 -9 c 2,42,-1
 161 -9 l 1,43,-1
 151 -7 l 2,44,45
 101 2 101 2 72 44 c 0,46,47
 61 63 61 63 54 84 c 0,48,49
 49 103 49 103 47 130 c 0,50,51
 47 219 47 219 109 299 c 0,52,53
 129 324 129 324 160 355 c 0,54,55
 182 375 182 375 218 402 c 0,56,57
 275 444 275 444 330 444 c 2,58,-1
 345 443 l 2,59,60
 390 443 390 443 426 410 c 0,61,62
 446 391 446 391 461 357 c 1,63,-1
 477 385 l 1,64,-1
 511 433 l 2,65,66
 517 441 517 441 529 443 c 0,67,68
 540 443 540 443 547 436 c 0,69,70
 554 433 554 433 560 415 c 1,4,-1
421 301 m 0,71,72
 421 337 421 337 401 360 c 0,73,74
 383 381 383 381 339 391 c 1,75,-1
 328 392 l 2,76,77
 292 392 292 392 245 360 c 0,78,79
 199 328 199 328 152 269 c 0,80,81
 126 238 126 238 113 204 c 0,82,83
 102 172 102 172 100 136 c 0,84,85
 100 99 100 99 114 75 c 0,86,87
 128 55 128 55 165 43 c 1,88,-1
 175 42 l 2,89,90
 209 42 209 42 269 75 c 0,91,92
 326 107 326 107 373 162 c 0,93,94
 384 178 384 178 402 233 c 0,95,96
 418 283 418 283 421 301 c 0,71,72
EndSplineSet
EndChar

StartChar: acircumflex
Encoding: 226 226 165
Width: 600
GlyphClass: 2
Flags: W
LayerCount: 2
Fore
SplineSet
540 520 m 6,0,1
 543 516 543 516 543 512 c 260,2,3
 543 508 543 508 538 502 c 4,4,5
 534 496 534 496 519 495 c 4,6,7
 515 495 515 495 500 501 c 4,8,9
 499 502 499 502 498 503 c 6,10,-1
 375 668 l 5,11,-1
 254 504 l 5,12,-1
 254 503 l 5,13,14
 247 496 247 496 234 495 c 4,15,16
 226 495 226 495 216 500 c 4,17,18
 215 500 215 500 214 502 c 4,19,20
 212 507 212 507 210 515 c 4,21,22
 210 517 210 517 211 519 c 6,23,-1
 371 736 l 6,24,25
 375 742 375 742 379 736 c 6,26,-1
 540 520 l 6,0,1
560 415 m 1,27,-1
 552 403 l 1,28,29
 525 380 525 380 466 250 c 0,30,31
 412 125 412 125 410 79 c 1,32,-1
 407 69 l 1,33,-1
 407 60 l 2,34,35
 407 48 407 48 414 41 c 0,36,37
 422 35 422 35 441 35 c 0,38,39
 450 35 450 35 473 53 c 1,40,-1
 488 71 l 1,41,-1
 505 96 l 2,42,43
 510 105 510 105 527 107 c 1,44,-1
 533 104 l 1,45,-1
 542 98 l 2,46,47
 546 97 546 97 550 81 c 1,48,-1
 547 68 l 1,49,-1
 509 19 l 1,50,51
 480 -11 480 -11 440 -13 c 0,52,53
 402 -13 402 -13 377 4 c 0,54,55
 359 20 359 20 357 49 c 2,56,-1
 357 65 l 2,57,58
 357 76 357 76 362 86 c 2,59,-1
 375 124 l 1,60,-1
 392 115 l 1,61,62
 351 66 351 66 286 28 c 0,63,64
 224 -7 224 -7 172 -9 c 2,65,-1
 161 -9 l 1,66,-1
 151 -7 l 2,67,68
 101 2 101 2 72 44 c 0,69,70
 61 63 61 63 54 84 c 0,71,72
 49 103 49 103 47 130 c 0,73,74
 47 219 47 219 109 299 c 0,75,76
 129 324 129 324 160 355 c 0,77,78
 182 375 182 375 218 402 c 0,79,80
 275 444 275 444 330 444 c 2,81,-1
 345 443 l 2,82,83
 390 443 390 443 426 410 c 0,84,85
 446 391 446 391 461 357 c 1,86,-1
 477 385 l 1,87,-1
 511 433 l 2,88,89
 517 441 517 441 529 443 c 0,90,91
 540 443 540 443 547 436 c 0,92,93
 554 433 554 433 560 415 c 1,27,-1
421 301 m 0,94,95
 421 337 421 337 401 360 c 0,96,97
 383 381 383 381 339 391 c 1,98,-1
 328 392 l 2,99,100
 292 392 292 392 245 360 c 0,101,102
 199 328 199 328 152 269 c 0,103,104
 126 238 126 238 113 204 c 0,105,106
 102 172 102 172 100 136 c 0,107,108
 100 99 100 99 114 75 c 0,109,110
 128 55 128 55 165 43 c 1,111,-1
 175 42 l 2,112,113
 209 42 209 42 269 75 c 0,114,115
 326 107 326 107 373 162 c 0,116,117
 384 178 384 178 402 233 c 0,118,119
 418 283 418 283 421 301 c 0,94,95
EndSplineSet
EndChar

StartChar: atilde
Encoding: 227 227 166
Width: 600
GlyphClass: 2
Flags: W
LayerCount: 2
Fore
SplineSet
598 653 m 5,0,1
 598 610 598 610 569 577 c 4,2,3
 542 546 542 546 500 546 c 4,4,5
 460 546 460 546 421 583 c 4,6,7
 381 620 381 620 357 639 c 4,8,9
 333 657 333 657 322 658 c 4,10,11
 302 658 302 658 277 638 c 5,12,13
 259 618 259 618 257 590 c 4,14,15
 257 572 257 572 238 572 c 4,16,17
 221 572 221 572 218 590 c 4,18,19
 218 630 218 630 248 662 c 260,20,21
 278 694 278 694 323 695 c 4,22,23
 364 695 364 695 421 637 c 4,24,25
 472 583 472 583 497 583 c 4,26,27
 523 583 523 583 542 602 c 4,28,29
 560 625 560 625 560 652 c 4,30,31
 560 668 560 668 578 669 c 4,32,33
 591 669 591 669 598 653 c 5,0,1
560 415 m 1,34,-1
 552 403 l 1,35,36
 525 380 525 380 466 250 c 0,37,38
 412 125 412 125 410 79 c 1,39,-1
 407 69 l 1,40,-1
 407 60 l 2,41,42
 407 48 407 48 414 41 c 0,43,44
 422 35 422 35 441 35 c 0,45,46
 450 35 450 35 473 53 c 1,47,-1
 488 71 l 1,48,-1
 505 96 l 2,49,50
 510 105 510 105 527 107 c 1,51,-1
 533 104 l 1,52,-1
 542 98 l 2,53,54
 546 97 546 97 550 81 c 1,55,-1
 547 68 l 1,56,-1
 509 19 l 1,57,58
 480 -11 480 -11 440 -13 c 0,59,60
 402 -13 402 -13 377 4 c 0,61,62
 359 20 359 20 357 49 c 2,63,-1
 357 65 l 2,64,65
 357 76 357 76 362 86 c 2,66,-1
 375 124 l 1,67,-1
 392 115 l 1,68,69
 351 66 351 66 286 28 c 0,70,71
 224 -7 224 -7 172 -9 c 2,72,-1
 161 -9 l 1,73,-1
 151 -7 l 2,74,75
 101 2 101 2 72 44 c 0,76,77
 61 63 61 63 54 84 c 0,78,79
 49 103 49 103 47 130 c 0,80,81
 47 219 47 219 109 299 c 0,82,83
 129 324 129 324 160 355 c 0,84,85
 182 375 182 375 218 402 c 0,86,87
 275 444 275 444 330 444 c 2,88,-1
 345 443 l 2,89,90
 390 443 390 443 426 410 c 0,91,92
 446 391 446 391 461 357 c 1,93,-1
 477 385 l 1,94,-1
 511 433 l 2,95,96
 517 441 517 441 529 443 c 0,97,98
 540 443 540 443 547 436 c 0,99,100
 554 433 554 433 560 415 c 1,34,-1
421 301 m 0,101,102
 421 337 421 337 401 360 c 0,103,104
 383 381 383 381 339 391 c 1,105,-1
 328 392 l 2,106,107
 292 392 292 392 245 360 c 0,108,109
 199 328 199 328 152 269 c 0,110,111
 126 238 126 238 113 204 c 0,112,113
 102 172 102 172 100 136 c 0,114,115
 100 99 100 99 114 75 c 0,116,117
 128 55 128 55 165 43 c 1,118,-1
 175 42 l 2,119,120
 209 42 209 42 269 75 c 0,121,122
 326 107 326 107 373 162 c 0,123,124
 384 178 384 178 402 233 c 0,125,126
 418 283 418 283 421 301 c 0,101,102
EndSplineSet
EndChar

StartChar: adieresis
Encoding: 228 228 167
Width: 600
GlyphClass: 2
Flags: W
LayerCount: 2
Fore
SplineSet
635 679 m 1,0,1
 635 641 635 641 613 619 c 0,2,3
 601 608 601 608 588 600 c 0,4,5
 579 597 579 597 553 595 c 0,6,7
 518 595 518 595 495 618 c 0,8,9
 474 641 474 641 472 678 c 0,10,11
 472 711 472 711 493 735 c 0,12,13
 514 758 514 758 553 760 c 0,14,15
 592 760 592 760 614 734 c 2,16,-1
 622 722 l 1,17,-1
 630 706 l 1,18,-1
 635 679 l 1,0,1
303 679 m 1,19,20
 303 640 303 640 281 619 c 0,21,22
 260 595 260 595 222 595 c 0,23,24
 187 595 187 595 163 619 c 0,25,26
 142 642 142 642 140 678 c 0,27,28
 140 709 140 709 160 735 c 0,29,30
 182 759 182 759 222 760 c 0,31,32
 262 760 262 760 282 734 c 2,33,-1
 291 722 l 1,34,-1
 299 706 l 1,35,-1
 303 679 l 1,19,20
560 415 m 1,36,-1
 552 403 l 1,37,38
 525 380 525 380 466 250 c 0,39,40
 412 125 412 125 410 79 c 1,41,-1
 407 69 l 1,42,-1
 407 60 l 2,43,44
 407 48 407 48 414 41 c 0,45,46
 422 35 422 35 441 35 c 0,47,48
 450 35 450 35 473 53 c 1,49,-1
 488 71 l 1,50,-1
 505 96 l 2,51,52
 510 105 510 105 527 107 c 1,53,-1
 533 104 l 1,54,-1
 542 98 l 2,55,56
 546 97 546 97 550 81 c 1,57,-1
 547 68 l 1,58,-1
 509 19 l 1,59,60
 480 -11 480 -11 440 -13 c 0,61,62
 402 -13 402 -13 377 4 c 0,63,64
 359 20 359 20 357 49 c 2,65,-1
 357 65 l 2,66,67
 357 76 357 76 362 86 c 2,68,-1
 375 124 l 1,69,-1
 392 115 l 1,70,71
 351 66 351 66 286 28 c 0,72,73
 224 -7 224 -7 172 -9 c 2,74,-1
 161 -9 l 1,75,-1
 151 -7 l 2,76,77
 101 2 101 2 72 44 c 0,78,79
 61 63 61 63 54 84 c 0,80,81
 49 103 49 103 47 130 c 0,82,83
 47 219 47 219 109 299 c 0,84,85
 129 324 129 324 160 355 c 0,86,87
 182 375 182 375 218 402 c 0,88,89
 275 444 275 444 330 444 c 2,90,-1
 345 443 l 2,91,92
 390 443 390 443 426 410 c 0,93,94
 446 391 446 391 461 357 c 1,95,-1
 477 385 l 1,96,-1
 511 433 l 2,97,98
 517 441 517 441 529 443 c 0,99,100
 540 443 540 443 547 436 c 0,101,102
 554 433 554 433 560 415 c 1,36,-1
421 301 m 0,103,104
 421 337 421 337 401 360 c 0,105,106
 383 381 383 381 339 391 c 1,107,-1
 328 392 l 2,108,109
 292 392 292 392 245 360 c 0,110,111
 199 328 199 328 152 269 c 0,112,113
 126 238 126 238 113 204 c 0,114,115
 102 172 102 172 100 136 c 0,116,117
 100 99 100 99 114 75 c 0,118,119
 128 55 128 55 165 43 c 1,120,-1
 175 42 l 2,121,122
 209 42 209 42 269 75 c 0,123,124
 326 107 326 107 373 162 c 0,125,126
 384 178 384 178 402 233 c 0,127,128
 418 283 418 283 421 301 c 0,103,104
EndSplineSet
EndChar

StartChar: aring
Encoding: 229 229 168
Width: 600
GlyphClass: 2
Flags: W
LayerCount: 2
Fore
SplineSet
364 625 m 128,-1,1
 364 602 364 602 380 586 c 128,-1,2
 396 570 396 570 420 570 c 256,3,4
 444 570 444 570 460 586 c 128,-1,5
 476 602 476 602 476 625 c 128,-1,6
 476 648 476 648 460 664 c 128,-1,7
 444 680 444 680 420 680 c 256,8,9
 396 680 396 680 380 664 c 128,-1,0
 364 648 364 648 364 625 c 128,-1,1
326 625 m 128,-1,11
 326 664 326 664 354 692 c 128,-1,12
 382 720 382 720 420 720 c 256,13,14
 458 720 458 720 486 692 c 128,-1,15
 514 664 514 664 514 625 c 128,-1,16
 514 586 514 586 486 558 c 128,-1,17
 458 530 458 530 420 530 c 256,18,19
 382 530 382 530 354 558 c 128,-1,10
 326 586 326 586 326 625 c 128,-1,11
560 415 m 1,20,-1
 552 403 l 1,21,22
 525 380 525 380 466 250 c 0,23,24
 412 125 412 125 410 79 c 1,25,-1
 407 69 l 1,26,-1
 407 60 l 2,27,28
 407 48 407 48 414 41 c 0,29,30
 422 35 422 35 441 35 c 0,31,32
 450 35 450 35 473 53 c 1,33,-1
 488 71 l 1,34,-1
 505 96 l 2,35,36
 510 105 510 105 527 107 c 1,37,-1
 533 104 l 1,38,-1
 542 98 l 2,39,40
 546 97 546 97 550 81 c 1,41,-1
 547 68 l 1,42,-1
 509 19 l 1,43,44
 480 -11 480 -11 440 -13 c 0,45,46
 402 -13 402 -13 377 4 c 0,47,48
 359 20 359 20 357 49 c 2,49,-1
 357 65 l 2,50,51
 357 76 357 76 362 86 c 2,52,-1
 375 124 l 1,53,-1
 392 115 l 1,54,55
 351 66 351 66 286 28 c 0,56,57
 224 -7 224 -7 172 -9 c 2,58,-1
 161 -9 l 1,59,-1
 151 -7 l 2,60,61
 101 2 101 2 72 44 c 0,62,63
 61 63 61 63 54 84 c 0,64,65
 49 103 49 103 47 130 c 0,66,67
 47 219 47 219 109 299 c 0,68,69
 129 324 129 324 160 355 c 0,70,71
 182 375 182 375 218 402 c 0,72,73
 275 444 275 444 330 444 c 2,74,-1
 345 443 l 2,75,76
 390 443 390 443 426 410 c 0,77,78
 446 391 446 391 461 357 c 1,79,-1
 477 385 l 1,80,-1
 511 433 l 2,81,82
 517 441 517 441 529 443 c 0,83,84
 540 443 540 443 547 436 c 0,85,86
 554 433 554 433 560 415 c 1,20,-1
421 301 m 0,87,88
 421 337 421 337 401 360 c 0,89,90
 383 381 383 381 339 391 c 1,91,-1
 328 392 l 2,92,93
 292 392 292 392 245 360 c 0,94,95
 199 328 199 328 152 269 c 0,96,97
 126 238 126 238 113 204 c 0,98,99
 102 172 102 172 100 136 c 0,100,101
 100 99 100 99 114 75 c 0,102,103
 128 55 128 55 165 43 c 1,104,-1
 175 42 l 2,105,106
 209 42 209 42 269 75 c 0,107,108
 326 107 326 107 373 162 c 0,109,110
 384 178 384 178 402 233 c 0,111,112
 418 283 418 283 421 301 c 0,87,88
EndSplineSet
EndChar

StartChar: ae
Encoding: 230 230 169
Width: 600
GlyphClass: 2
Flags: W
LayerCount: 2
Fore
SplineSet
549 333 m 0,0,1
 549 351 549 351 532 367 c 0,2,3
 516 382 516 382 480 384 c 0,4,5
 464 384 464 384 443 378 c 0,6,7
 421 373 421 373 416 370 c 0,8,9
 408 367 408 367 395 357 c 0,10,11
 348 331 348 331 310 269 c 0,12,13
 303 260 303 260 296 245 c 0,14,15
 294 241 294 241 283 214 c 2,16,-1
 274 184 l 1,17,-1
 272 165 l 1,18,19
 288 169 288 169 298 171 c 0,20,21
 313 175 313 175 337 185 c 2,22,-1
 368 194 l 1,23,-1
 411 211 l 1,24,-1
 446 227 l 1,25,-1
 476 245 l 2,26,27
 548 290 548 290 549 333 c 0,0,1
239 115 m 1,28,29
 208 66 208 66 160 28 c 0,30,31
 113 -7 113 -7 74 -9 c 2,32,-1
 66 -9 l 1,33,-1
 58 -7 l 2,34,35
 21 2 21 2 -1 44 c 0,36,37
 -9 63 -9 63 -14 84 c 0,38,39
 -18 103 -18 103 -20 130 c 0,40,41
 -20 219 -20 219 27 299 c 0,42,43
 42 324 42 324 65 355 c 0,44,45
 82 375 82 375 108 402 c 0,46,47
 151 444 151 444 192 444 c 2,48,-1
 204 443 l 2,49,50
 238 443 238 443 264 410 c 0,51,52
 280 391 280 391 291 357 c 1,53,54
 287 391 287 391 286.5 391 c 128,-1,55
 286 391 286 391 290 356.5 c 128,-1,56
 294 322 294 322 294 322 c 1,57,58
 331 375 331 375 381 406 c 0,59,60
 430 436 430 436 484 436 c 0,61,62
 513 436 513 436 524 431 c 0,63,64
 538 428 538 428 557 412 c 0,65,66
 591 386 591 386 592 333 c 0,67,68
 592 267 592 267 504 203 c 0,69,70
 480 189 480 189 438 170 c 0,71,72
 390 150 390 150 346 134 c 1,73,-1
 267 115 l 1,74,75
 269 82 269 82 284 59 c 1,76,77
 311 29 311 29 383 29 c 0,78,79
 423 29 423 29 486 68 c 0,80,81
 516 88 516 88 528 100 c 0,82,83
 548 116 548 116 560 133 c 0,84,85
 563 139 563 139 574 142 c 0,86,87
 582 142 582 142 587 135 c 0,88,89
 594 129 594 129 594 116 c 0,90,91
 594 107 594 107 589 100 c 0,92,93
 574 76 574 76 549 51 c 0,94,95
 528 32 528 32 496 10 c 0,96,97
 438 -23 438 -23 378 -25 c 0,98,99
 304 -25 304 -25 259 17 c 1,100,101
 228 54 228 54 226 120 c 1,102,103
 226 120 226 120 239 115 c 1,28,29
261 301 m 0,104,105
 261 337 261 337 246 360 c 0,106,107
 232 381 232 381 199 391 c 1,108,-1
 191 392 l 2,109,110
 164 392 164 392 129 360 c 256,111,112
 94 328 94 328 59 269 c 0,113,114
 40 238 40 238 30 204 c 0,115,116
 22 172 22 172 20 136 c 0,117,118
 20 99 20 99 30 75 c 0,119,120
 41 55 41 55 69 43 c 1,121,-1
 76 42 l 2,122,123
 102 42 102 42 147 75 c 0,124,125
 190 107 190 107 225 162 c 0,126,127
 233 178 233 178 246 233 c 0,128,129
 258 283 258 283 261 301 c 0,104,105
EndSplineSet
EndChar

